<svg width="48" height="48" viewBox="0 0 48 48" fill="none" xmlns="http://www.w3.org/2000/svg">
<path fill-rule="evenodd" clip-rule="evenodd" d="M35.6302 8.94C35.4702 8.94 35.3102 8.9 35.1702 8.82C31.3302 6.84 28.0102 6 24.0302 6C20.0702 6 16.3102 6.94 12.8902 8.82C12.4102 9.08 11.8102 8.9 11.5302 8.42C11.2702 7.94 11.4502 7.32 11.9302 7.06C15.6502 5.04 19.7302 4 24.0302 4C28.2902 4 32.0102 4.94 36.0902 7.04C36.5902 7.3 36.7702 7.9 36.5102 8.38C36.3302 8.74 35.9902 8.94 35.6302 8.94ZM7.01012 19.44C6.81012 19.44 6.61012 19.38 6.43012 19.26C5.97012 18.94 5.87012 18.32 6.19012 17.86C8.17012 15.06 10.6901 12.86 13.6901 11.32C19.9701 8.07995 28.0101 8.05995 34.3101 11.3C37.3101 12.84 39.8301 15.02 41.8101 17.8C42.1301 18.24 42.0301 18.88 41.5701 19.2C41.1101 19.52 40.4901 19.42 40.1701 18.96C38.3701 16.44 36.0901 14.46 33.3901 13.08C27.6501 10.14 20.3101 10.14 14.5901 13.1C11.8701 14.5 9.59012 16.5 7.79012 19.02C7.63012 19.3 7.33012 19.44 7.01012 19.44ZM18.8102 43.28C18.9902 43.48 19.2502 43.58 19.5102 43.58C19.7702 43.58 20.0302 43.48 20.2502 43.28C20.6302 42.88 20.6302 42.26 20.2502 41.86C18.7102 40.3 17.8302 39.32 16.5502 37.02C15.3302 34.86 14.6902 32.2 14.6902 29.32C14.6902 24.48 18.8702 20.54 24.0102 20.54C29.1502 20.54 33.3302 24.48 33.3302 29.32C33.3302 29.88 33.7702 30.32 34.3302 30.32C34.8902 30.32 35.3302 29.88 35.3302 29.32C35.3302 23.38 30.2502 18.54 24.0102 18.54C17.7702 18.54 12.6902 23.38 12.6902 29.32C12.6902 32.54 13.4102 35.54 14.7902 38C16.1302 40.42 17.0702 41.54 18.8102 43.28ZM33.8503 39.8801C31.4703 39.8801 29.3703 39.2801 27.6503 38.1001C24.6703 36.0801 22.8903 32.8001 22.8903 29.3201C22.8903 28.7601 23.3303 28.3201 23.8903 28.3201C24.4503 28.3201 24.8903 28.7601 24.8903 29.3201C24.8903 32.1401 26.3303 34.8001 28.7703 36.4401C30.1903 37.4001 31.8503 37.8601 33.8503 37.8601C34.3303 37.8601 35.1303 37.8001 35.9303 37.6601C36.4703 37.5601 36.9903 37.9201 37.0903 38.4801C37.1903 39.0201 36.8303 39.5401 36.2703 39.6401C35.1303 39.8601 34.1303 39.8801 33.8503 39.8801ZM29.5699 43.9599C29.6499 43.9799 29.7499 43.9999 29.8299 43.9999C30.2499 43.9999 30.6699 43.6999 30.7699 43.2399C30.9099 42.7199 30.6099 42.1599 30.0699 42.0199C27.2499 41.2399 25.4299 40.1999 23.5299 38.3199C21.1099 35.9199 19.7899 32.7199 19.7899 29.2999C19.7899 27.1599 21.6499 25.4199 23.9499 25.4199C26.2499 25.4199 28.1099 27.1599 28.1099 29.2999C28.1099 32.5399 30.8699 35.1799 34.2699 35.1799C37.6699 35.1799 40.4299 32.5399 40.4299 29.2999C40.4299 20.6599 33.0299 13.6399 23.9299 13.6399C17.4699 13.6399 11.5699 17.2599 8.90986 22.8399C8.00986 24.7399 7.54986 26.9199 7.54986 29.3199C7.54986 32.0199 8.02986 34.6199 9.00986 37.2399C9.18986 37.7399 9.76986 38.0199 10.2899 37.8199C10.8099 37.6399 11.0699 37.0599 10.8699 36.5399C9.66986 33.3399 9.52986 30.8799 9.52986 29.3199C9.52986 27.2399 9.92986 25.3399 10.7099 23.7199C13.0499 18.8199 18.2499 15.6599 23.9299 15.6599C31.9299 15.6599 38.4299 21.7799 38.4299 29.3199C38.4299 31.4599 36.5699 33.1999 34.2699 33.1999C31.9699 33.1999 30.1099 31.4599 30.1099 29.3199C30.1099 26.0799 27.3499 23.4399 23.9499 23.4399C20.5499 23.4399 17.7899 26.0799 17.7899 29.3199C17.7899 33.2799 19.3299 36.9799 22.1299 39.7599C24.3099 41.8999 26.3899 43.0799 29.5699 43.9599Z" fill="#62BB46"/>
</svg>
