<svg width="82" height="92" viewBox="0 0 82 92" fill="none" xmlns="http://www.w3.org/2000/svg">
<path fill-rule="evenodd" clip-rule="evenodd" d="M29.1186 61.5566C29.0404 62.1099 29 62.6752 29 63.25C29 69.8774 34.3726 75.25 41 75.25C47.6274 75.25 53 69.8774 53 63.25C53 62.6752 52.9596 62.1099 52.8815 61.5566H82V88.25C82 89.9069 80.6569 91.25 79 91.25H3C1.34315 91.25 0 89.9069 0 88.25V61.5566H29.1186Z" fill="white"/>
<path fill-rule="evenodd" clip-rule="evenodd" d="M54 61.25C54 68.4297 48.1797 74.25 41 74.25C33.8203 74.25 28 68.4297 28 61.25C28 61.0174 28.0061 60.7862 28.0182 60.5566H0L9.56044 32.2889C9.9726 31.0702 11.1159 30.25 12.4023 30.25L69.5977 30.25C70.8841 30.25 72.0274 31.0702 72.4396 32.2889L82 60.5566H53.9818C53.9939 60.7862 54 61.0174 54 61.25Z" fill="white"/>
<path fill-rule="evenodd" clip-rule="evenodd" d="M52.0976 62.2045C52.0976 67.7525 47.129 73.25 41 73.25C34.871 73.25 29.9024 67.7525 29.9024 62.2045C29.9024 62.0248 29.9077 60.8462 29.918 60.6688H9L17.1614 40.8255C17.5132 39.8838 18.4891 39.25 19.5873 39.25H62.4127C63.5109 39.25 64.4868 39.8838 64.8386 40.8255L73 60.6688H52.082C52.0923 60.8462 52.0976 62.0248 52.0976 62.2045Z" fill="#E0FAD7"/>
<path d="M12.4023 31.5H69.5977C70.3481 31.5 71.015 31.9785 71.2554 32.6893L80.75 60.7623V87.25C80.75 88.2165 79.9665 89 79 89H3C2.0335 89 1.25 88.2165 1.25 87.25V60.7623L10.7446 32.6893C10.985 31.9785 11.6519 31.5 12.4023 31.5Z" stroke="#62BB46" stroke-width="2.5" stroke-linejoin="round"/>
<path d="M14.0005 59.75H15.2505C15.2505 59.0596 14.6908 58.5 14.0005 58.5V59.75ZM14.0005 60.75V62C14.6908 62 15.2505 61.4404 15.2505 60.75H14.0005ZM14.0006 60.75L12.7506 60.7502C12.7506 61.4405 13.3103 62 14.0006 62V60.75ZM27.9519 61.2406L29.04 60.6253L29.04 60.6253L27.9519 61.2406ZM53.8436 61.2406L54.9318 61.8558L54.9318 61.8558L53.8436 61.2406ZM52.9731 60.7484L51.885 60.1332L51.885 60.1332L52.9731 60.7484ZM52.6738 62.2211L53.9238 62.2202L53.9238 62.2201L52.6738 62.2211ZM29.1217 62.2211L27.8717 62.2201L27.8717 62.2201L29.1217 62.2211ZM28.8224 60.7484L27.7343 61.3636L27.7343 61.3636L28.8224 60.7484ZM14.0006 59.75V58.5C13.3103 58.5 12.7506 59.0595 12.7506 59.7498L14.0006 59.75ZM6.57422 57.75C5.19351 57.75 4.07422 58.8693 4.07422 60.25H6.57422V57.75ZM9.00049 57.75H6.57422V60.25H9.00049V57.75ZM11.5005 60.25C11.5005 58.8693 10.3812 57.75 9.00049 57.75V60.25H11.5005ZM9.00049 62.75C10.3812 62.75 11.5005 61.6307 11.5005 60.25H9.00049V62.75ZM6.57422 62.75H9.00049V60.25H6.57422V62.75ZM4.07422 60.25C4.07422 61.6307 5.19351 62.75 6.57422 62.75V60.25H4.07422ZM14.0005 58.5C13.034 58.5 12.2505 59.2835 12.2505 60.25H14.7505C14.7505 60.6642 14.4147 61 14.0005 61V58.5ZM15.2505 60.25V59.75H12.7505V60.25H15.2505ZM15.2505 60.75V60.25H12.7505V60.75H15.2505ZM12.2505 60.25C12.2505 61.2165 13.034 62 14.0005 62V59.5C14.4147 59.5 14.7505 59.8358 14.7505 60.25H12.2505ZM12.7505 60.2502L12.7506 60.7502L15.2506 60.7498L15.2505 60.2498L12.7505 60.2502ZM14.0006 62H14.0008V59.5H14.0006V62ZM14.0008 62H14.0011V59.5H14.0008V62ZM14.0011 62H14.0016V59.5H14.0011V62ZM14.0016 62H14.0022V59.5H14.0016V62ZM14.0022 62H14.0029V59.5H14.0022V62ZM14.0029 62H14.0038V59.5H14.0029V62ZM14.0038 62H14.0048V59.5H14.0038V62ZM14.0048 62H14.0059V59.5H14.0048V62ZM14.0059 62H14.0072V59.5H14.0059V62ZM14.0072 62H14.0086V59.5H14.0072V62ZM14.0086 62H14.0102V59.5H14.0086V62ZM14.0102 62H14.0118V59.5H14.0102V62ZM14.0118 62H14.0136V59.5H14.0118V62ZM14.0136 62H14.0156V59.5H14.0136V62ZM14.0156 62H14.0176V59.5H14.0156V62ZM14.0176 62H14.0198V59.5H14.0176V62ZM14.0198 62H14.0222V59.5H14.0198V62ZM14.0222 62H14.0246V59.5H14.0222V62ZM14.0246 62H14.0272V59.5H14.0246V62ZM14.0272 62H14.0299V59.5H14.0272V62ZM14.0299 62H14.0328V59.5H14.0299V62ZM14.0328 62H14.0358V59.5H14.0328V62ZM14.0358 62H14.0389V59.5H14.0358V62ZM14.0389 62H14.0421V59.5H14.0389V62ZM14.0421 62H14.0455V59.5H14.0421V62ZM14.0455 62H14.049V59.5H14.0455V62ZM14.049 62H14.0527V59.5H14.049V62ZM14.0527 62H14.0564V59.5H14.0527V62ZM14.0564 62H14.0603V59.5H14.0564V62ZM14.0603 62H14.0643V59.5H14.0603V62ZM14.0643 62H14.0685V59.5H14.0643V62ZM14.0685 62H14.0727V59.5H14.0685V62ZM14.0727 62H14.0772V59.5H14.0727V62ZM14.0772 62H14.0817V59.5H14.0772V62ZM14.0817 62H14.0863V59.5H14.0817V62ZM14.0863 62H14.0911V59.5H14.0863V62ZM14.0911 62H14.096V59.5H14.0911V62ZM14.096 62H14.1011V59.5H14.096V62ZM14.1011 62H14.1062V59.5H14.1011V62ZM14.1062 62H14.1115V59.5H14.1062V62ZM14.1115 62H14.1169V59.5H14.1115V62ZM14.1169 62H14.1225V59.5H14.1169V62ZM14.1225 62H14.1282V59.5H14.1225V62ZM14.1282 62H14.134V59.5H14.1282V62ZM14.134 62H14.1399V59.5H14.134V62ZM14.1399 62H14.1459V59.5H14.1399V62ZM14.1459 62H14.1521V59.5H14.1459V62ZM14.1521 62H14.1584V59.5H14.1521V62ZM14.1584 62H14.1648V59.5H14.1584V62ZM14.1648 62H14.1713V59.5H14.1648V62ZM14.1713 62H14.178V59.5H14.1713V62ZM14.178 62H14.1848V59.5H14.178V62ZM14.1848 62H14.1917V59.5H14.1848V62ZM14.1917 62H14.1987V59.5H14.1917V62ZM14.1987 62H14.2059V59.5H14.1987V62ZM14.2059 62H14.2132V59.5H14.2059V62ZM14.2132 62H14.2206V59.5H14.2132V62ZM14.2206 62H14.2281V59.5H14.2206V62ZM14.2281 62H14.2358V59.5H14.2281V62ZM14.2358 62H14.2435V59.5H14.2358V62ZM14.2435 62H14.2514V59.5H14.2435V62ZM14.2514 62H14.2594V59.5H14.2514V62ZM14.2594 62H14.2676V59.5H14.2594V62ZM14.2676 62H14.2758V59.5H14.2676V62ZM14.2758 62H14.2842V59.5H14.2758V62ZM14.2842 62H14.2927V59.5H14.2842V62ZM14.2927 62H14.3013V59.5H14.2927V62ZM14.3013 62H14.3101V59.5H14.3013V62ZM14.3101 62H14.3189V59.5H14.3101V62ZM14.3189 62H14.3279V59.5H14.3189V62ZM14.3279 62H14.337V59.5H14.3279V62ZM14.337 62H14.3462V59.5H14.337V62ZM14.3462 62H14.3555V59.5H14.3462V62ZM14.3555 62H14.365V59.5H14.3555V62ZM14.365 62H14.3746V59.5H14.365V62ZM14.3746 62H14.3842V59.5H14.3746V62ZM14.3842 62H14.394V59.5H14.3842V62ZM14.394 62H14.404V59.5H14.394V62ZM14.404 62H14.414V59.5H14.404V62ZM14.414 62H14.4242V59.5H14.414V62ZM14.4242 62H14.4345V59.5H14.4242V62ZM14.4345 62H14.4448V59.5H14.4345V62ZM14.4448 62H14.4554V59.5H14.4448V62ZM14.4554 62H14.466V59.5H14.4554V62ZM14.466 62H14.4767V59.5H14.466V62ZM14.4767 62H14.4876V59.5H14.4767V62ZM14.4876 62H14.4986V59.5H14.4876V62ZM14.4986 62H14.5097V59.5H14.4986V62ZM14.5097 62H14.5209V59.5H14.5097V62ZM14.5209 62H14.5322V59.5H14.5209V62ZM14.5322 62H14.5436V59.5H14.5322V62ZM14.5436 62H14.5552V59.5H14.5436V62ZM14.5552 62H14.5668V59.5H14.5552V62ZM14.5668 62H14.5786V59.5H14.5668V62ZM14.5786 62H14.5905V59.5H14.5786V62ZM14.5905 62H14.6025V59.5H14.5905V62ZM14.6025 62H14.6146V59.5H14.6025V62ZM14.6146 62H14.6269V59.5H14.6146V62ZM14.6269 62H14.6392V59.5H14.6269V62ZM14.6392 62H14.6517V59.5H14.6392V62ZM14.6517 62H14.6643V59.5H14.6517V62ZM14.6643 62H14.6769V59.5H14.6643V62ZM14.6769 62H14.6897V59.5H14.6769V62ZM14.6897 62H14.7026V59.5H14.6897V62ZM14.7026 62H14.7157V59.5H14.7026V62ZM14.7157 62H14.7288V59.5H14.7157V62ZM14.7288 62H14.742V59.5H14.7288V62ZM14.742 62H14.7554V59.5H14.742V62ZM14.7554 62H14.7689V59.5H14.7554V62ZM14.7689 62H14.7824V59.5H14.7689V62ZM14.7824 62H14.7961V59.5H14.7824V62ZM14.7961 62H14.8099V59.5H14.7961V62ZM14.8099 62H14.8238V59.5H14.8099V62ZM14.8238 62H14.8379V59.5H14.8238V62ZM14.8379 62H14.852V59.5H14.8379V62ZM14.852 62H14.8662V59.5H14.852V62ZM14.8662 62H14.8806V59.5H14.8662V62ZM14.8806 62H14.895V59.5H14.8806V62ZM14.895 62H14.9096V59.5H14.895V62ZM14.9096 62H14.9243V59.5H14.9096V62ZM14.9243 62H14.939V59.5H14.9243V62ZM14.939 62H14.9539V59.5H14.939V62ZM14.9539 62H14.9689V59.5H14.9539V62ZM14.9689 62H14.984V59.5H14.9689V62ZM14.984 62H14.9993V59.5H14.984V62ZM14.9993 62H15.0146V59.5H14.9993V62ZM15.0146 62H15.03V59.5H15.0146V62ZM15.03 62H15.0455V59.5H15.03V62ZM15.0455 62H15.0612V59.5H15.0455V62ZM15.0612 62H15.0769V59.5H15.0612V62ZM15.0769 62H15.0928V59.5H15.0769V62ZM15.0928 62H15.1087V59.5H15.0928V62ZM15.1087 62H15.1248V59.5H15.1087V62ZM15.1248 62H15.141V59.5H15.1248V62ZM15.141 62H15.1572V59.5H15.141V62ZM15.1572 62H15.1736V59.5H15.1572V62ZM15.1736 62H15.1901V59.5H15.1736V62ZM15.1901 62H15.2067V59.5H15.1901V62ZM15.2067 62H15.2234V59.5H15.2067V62ZM15.2234 62H15.2402V59.5H15.2234V62ZM15.2402 62H15.2571V59.5H15.2402V62ZM15.2571 62H15.2741V59.5H15.2571V62ZM15.2741 62H15.2912V59.5H15.2741V62ZM15.2912 62H15.3084V59.5H15.2912V62ZM15.3084 62H15.3257V59.5H15.3084V62ZM15.3257 62H15.3431V59.5H15.3257V62ZM15.3431 62H15.3606V59.5H15.3431V62ZM15.3606 62H15.3783V59.5H15.3606V62ZM15.3783 62H15.396V59.5H15.3783V62ZM15.396 62H15.4138V59.5H15.396V62ZM15.4138 62H15.4317V59.5H15.4138V62ZM15.4317 62H15.4498V59.5H15.4317V62ZM15.4498 62H15.4679V59.5H15.4498V62ZM15.4679 62H15.4861V59.5H15.4679V62ZM15.4861 62H15.5044V59.5H15.4861V62ZM15.5044 62H15.5229V59.5H15.5044V62ZM15.5229 62H15.5414V59.5H15.5229V62ZM15.5414 62H15.56V59.5H15.5414V62ZM15.56 62H15.5788V59.5H15.56V62ZM15.5788 62H15.5976V59.5H15.5788V62ZM15.5976 62H15.6165V59.5H15.5976V62ZM15.6165 62H15.6356V59.5H15.6165V62ZM15.6356 62H15.6547V59.5H15.6356V62ZM15.6547 62H15.6739V59.5H15.6547V62ZM15.6739 62H15.6932V59.5H15.6739V62ZM15.6932 62H15.7127V59.5H15.6932V62ZM15.7127 62H15.7322V59.5H15.7127V62ZM15.7322 62H15.7518V59.5H15.7322V62ZM15.7518 62H15.7715V59.5H15.7518V62ZM15.7715 62H15.7913V59.5H15.7715V62ZM15.7913 62H15.8112V59.5H15.7913V62ZM15.8112 62H15.8312V59.5H15.8112V62ZM15.8312 62H15.8514V59.5H15.8312V62ZM15.8514 62H15.8716V59.5H15.8514V62ZM15.8716 62H15.8919V59.5H15.8716V62ZM15.8919 62H15.9122V59.5H15.8919V62ZM15.9122 62H15.9327V59.5H15.9122V62ZM15.9327 62H15.9533V59.5H15.9327V62ZM15.9533 62H15.974V59.5H15.9533V62ZM15.974 62H15.9948V59.5H15.974V62ZM15.9948 62H16.0156V59.5H15.9948V62ZM16.0156 62H16.0366V59.5H16.0156V62ZM16.0366 62H16.0577V59.5H16.0366V62ZM16.0577 62H16.0788V59.5H16.0577V62ZM16.0788 62H16.1001V59.5H16.0788V62ZM16.1001 62H16.1214V59.5H16.1001V62ZM16.1214 62H16.1429V59.5H16.1214V62ZM16.1429 62H16.1644V59.5H16.1429V62ZM16.1644 62H16.186V59.5H16.1644V62ZM16.186 62H16.2077V59.5H16.186V62ZM16.2077 62H16.2295V59.5H16.2077V62ZM16.2295 62H16.2514V59.5H16.2295V62ZM16.2514 62H16.2734V59.5H16.2514V62ZM16.2734 62H16.2955V59.5H16.2734V62ZM16.2955 62H16.3177V59.5H16.2955V62ZM16.3177 62H16.3399V59.5H16.3177V62ZM16.3399 62H16.3623V59.5H16.3399V62ZM16.3623 62H16.3848V59.5H16.3623V62ZM16.3848 62H16.4073V59.5H16.3848V62ZM16.4073 62H16.4299V59.5H16.4073V62ZM16.4299 62H16.4527V59.5H16.4299V62ZM16.4527 62H16.4755V59.5H16.4527V62ZM16.4755 62H16.4984V59.5H16.4755V62ZM16.4984 62H16.5214V59.5H16.4984V62ZM16.5214 62H16.5444V59.5H16.5214V62ZM16.5444 62H16.5676V59.5H16.5444V62ZM16.5676 62H16.5909V59.5H16.5676V62ZM16.5909 62H16.6142V59.5H16.5909V62ZM16.6142 62H16.6377V59.5H16.6142V62ZM16.6377 62H16.6612V59.5H16.6377V62ZM16.6612 62H16.6848V59.5H16.6612V62ZM16.6848 62H16.7085V59.5H16.6848V62ZM16.7085 62H16.7323V59.5H16.7085V62ZM16.7323 62H16.7562V59.5H16.7323V62ZM16.7562 62H16.7802V59.5H16.7562V62ZM16.7802 62H16.8042V59.5H16.7802V62ZM16.8042 62H16.8283V59.5H16.8042V62ZM16.8283 62H16.8526V59.5H16.8283V62ZM16.8526 62H16.8769V59.5H16.8526V62ZM16.8769 62H16.9013V59.5H16.8769V62ZM16.9013 62H16.9258V59.5H16.9013V62ZM16.9258 62H16.9503V59.5H16.9258V62ZM16.9503 62H16.975V59.5H16.9503V62ZM16.975 62H16.9997V59.5H16.975V62ZM16.9997 62H17.0246V59.5H16.9997V62ZM17.0246 62H17.0495V59.5H17.0246V62ZM17.0495 62H17.0745V59.5H17.0495V62ZM17.0745 62H17.0996V59.5H17.0745V62ZM17.0996 62H17.1247V59.5H17.0996V62ZM17.1247 62H17.15V59.5H17.1247V62ZM17.15 62H17.1753V59.5H17.15V62ZM17.1753 62H17.2007V59.5H17.1753V62ZM17.2007 62H17.2262V59.5H17.2007V62ZM17.2262 62H17.2518V59.5H17.2262V62ZM17.2518 62H17.2775V59.5H17.2518V62ZM17.2775 62H17.3032V59.5H17.2775V62ZM17.3032 62H17.3291V59.5H17.3032V62ZM17.3291 62H17.355V59.5H17.3291V62ZM17.355 62H17.381V59.5H17.355V62ZM17.381 62H17.4071V59.5H17.381V62ZM17.4071 62H17.4332V59.5H17.4071V62ZM17.4332 62H17.4595V59.5H17.4332V62ZM17.4595 62H17.4858V59.5H17.4595V62ZM17.4858 62H17.5122V59.5H17.4858V62ZM17.5122 62H17.5387V59.5H17.5122V62ZM17.5387 62H17.5652V59.5H17.5387V62ZM17.5652 62H17.5919V59.5H17.5652V62ZM17.5919 62H17.6186V59.5H17.5919V62ZM17.6186 62H17.6454V59.5H17.6186V62ZM17.6454 62H17.6723V59.5H17.6454V62ZM17.6723 62H17.6993V59.5H17.6723V62ZM17.6993 62H17.7263V59.5H17.6993V62ZM17.7263 62H17.7534V59.5H17.7263V62ZM17.7534 62H17.7806V59.5H17.7534V62ZM17.7806 62H17.8079V59.5H17.7806V62ZM17.8079 62H17.8353V59.5H17.8079V62ZM17.8353 62H17.8627V59.5H17.8353V62ZM17.8627 62H17.8902V59.5H17.8627V62ZM17.8902 62H17.9178V59.5H17.8902V62ZM17.9178 62H17.9455V59.5H17.9178V62ZM17.9455 62H17.9732V59.5H17.9455V62ZM17.9732 62H18.0011V59.5H17.9732V62ZM18.0011 62H18.029V59.5H18.0011V62ZM18.029 62H18.0569V59.5H18.029V62ZM18.0569 62H18.085V59.5H18.0569V62ZM18.085 62H18.1131V59.5H18.085V62ZM18.1131 62H18.1413V59.5H18.1131V62ZM18.1413 62H18.1696V59.5H18.1413V62ZM18.1696 62H18.198V59.5H18.1696V62ZM18.198 62H18.2264V59.5H18.198V62ZM18.2264 62H18.2549V59.5H18.2264V62ZM18.2549 62H18.2835V59.5H18.2549V62ZM18.2835 62H18.3121V59.5H18.2835V62ZM18.3121 62H18.3409V59.5H18.3121V62ZM18.3409 62H18.3697V59.5H18.3409V62ZM18.3697 62H18.3985V59.5H18.3697V62ZM18.3985 62H18.4275V59.5H18.3985V62ZM18.4275 62H18.4565V59.5H18.4275V62ZM18.4565 62H18.4856V59.5H18.4565V62ZM18.4856 62H18.5148V59.5H18.4856V62ZM18.5148 62H18.544V59.5H18.5148V62ZM18.544 62H18.5733V59.5H18.544V62ZM18.5733 62H18.6027V59.5H18.5733V62ZM18.6027 62H18.6322V59.5H18.6027V62ZM18.6322 62H18.6617V59.5H18.6322V62ZM18.6617 62H18.6913V59.5H18.6617V62ZM18.6913 62H18.721V59.5H18.6913V62ZM18.721 62H18.7507V59.5H18.721V62ZM18.7507 62H18.7806V59.5H18.7507V62ZM18.7806 62H18.8104V59.5H18.7806V62ZM18.8104 62H18.8404V59.5H18.8104V62ZM18.8404 62H18.8704V59.5H18.8404V62ZM18.8704 62H18.9005V59.5H18.8704V62ZM18.9005 62H18.9307V59.5H18.9005V62ZM18.9307 62H18.9609V59.5H18.9307V62ZM18.9609 62H18.9912V59.5H18.9609V62ZM18.9912 62H19.0216V59.5H18.9912V62ZM19.0216 62H19.0521V59.5H19.0216V62ZM19.0521 62H19.0826V59.5H19.0521V62ZM19.0826 62H19.1132V59.5H19.0826V62ZM19.1132 62H19.1438V59.5H19.1132V62ZM19.1438 62H19.1745V59.5H19.1438V62ZM19.1745 62H19.2053V59.5H19.1745V62ZM19.2053 62H19.2362V59.5H19.2053V62ZM19.2362 62H19.2671V59.5H19.2362V62ZM19.2671 62H19.2981V59.5H19.2671V62ZM19.2981 62H19.3291V59.5H19.2981V62ZM19.3291 62H19.3603V59.5H19.3291V62ZM19.3603 62H19.3914V59.5H19.3603V62ZM19.3914 62H19.4227V59.5H19.3914V62ZM19.4227 62H19.454V59.5H19.4227V62ZM19.454 62H19.4854V59.5H19.454V62ZM19.4854 62H19.5169V59.5H19.4854V62ZM19.5169 62H19.5484V59.5H19.5169V62ZM19.5484 62H19.58V59.5H19.5484V62ZM19.58 62H19.6116V59.5H19.58V62ZM19.6116 62H19.6433V59.5H19.6116V62ZM19.6433 62H19.6751V59.5H19.6433V62ZM19.6751 62H19.7069V59.5H19.6751V62ZM19.7069 62H19.7389V59.5H19.7069V62ZM19.7389 62H19.7708V59.5H19.7389V62ZM19.7708 62H19.8029V59.5H19.7708V62ZM19.8029 62H19.835V59.5H19.8029V62ZM19.835 62H19.8671V59.5H19.835V62ZM19.8671 62H19.8993V59.5H19.8671V62ZM19.8993 62H19.9316V59.5H19.8993V62ZM19.9316 62H19.964V59.5H19.9316V62ZM19.964 62H19.9964V59.5H19.964V62ZM19.9964 62H20.0289V59.5H19.9964V62ZM20.0289 62H20.0614V59.5H20.0289V62ZM20.0614 62H20.094V59.5H20.0614V62ZM20.094 62H20.1266V59.5H20.094V62ZM20.1266 62H20.1594V59.5H20.1266V62ZM20.1594 62H20.1921V59.5H20.1594V62ZM20.1921 62H20.225V59.5H20.1921V62ZM20.225 62H20.2579V59.5H20.225V62ZM20.2579 62H20.2908V59.5H20.2579V62ZM20.2908 62H20.3239V59.5H20.2908V62ZM20.3239 62H20.3569V59.5H20.3239V62ZM20.3569 62H20.3901V59.5H20.3569V62ZM20.3901 62H20.4233V59.5H20.3901V62ZM20.4233 62H20.4565V59.5H20.4233V62ZM20.4565 62H20.4899V59.5H20.4565V62ZM20.4899 62H20.5232V59.5H20.4899V62ZM20.5232 62H20.5567V59.5H20.5232V62ZM20.5567 62H20.5902V59.5H20.5567V62ZM20.5902 62H20.6237V59.5H20.5902V62ZM20.6237 62H20.6573V59.5H20.6237V62ZM20.6573 62H20.691V59.5H20.6573V62ZM20.691 62H20.7247V59.5H20.691V62ZM20.7247 62H20.7585V59.5H20.7247V62ZM20.7585 62H20.7923V59.5H20.7585V62ZM20.7923 62H20.8262V59.5H20.7923V62ZM20.8262 62H20.8602V59.5H20.8262V62ZM20.8602 62H20.8942V59.5H20.8602V62ZM20.8942 62H20.9283V59.5H20.8942V62ZM20.9283 62H20.9624V59.5H20.9283V62ZM20.9624 62H20.9965V59.5H20.9624V62ZM20.9965 62H21.0308V59.5H20.9965V62ZM21.0308 62H21.0651V59.5H21.0308V62ZM21.0651 62H21.0994V59.5H21.0651V62ZM21.0994 62H21.1338V59.5H21.0994V62ZM21.1338 62H21.1682V59.5H21.1338V62ZM21.1682 62H21.2028V59.5H21.1682V62ZM21.2028 62H21.2373V59.5H21.2028V62ZM21.2373 62H21.2719V59.5H21.2373V62ZM21.2719 62H21.3066V59.5H21.2719V62ZM21.3066 62H21.3413V59.5H21.3066V62ZM21.3413 62H21.3761V59.5H21.3413V62ZM21.3761 62H21.4109V59.5H21.3761V62ZM21.4109 62H21.4458V59.5H21.4109V62ZM21.4458 62H21.4807V59.5H21.4458V62ZM21.4807 62H21.5157V59.5H21.4807V62ZM21.5157 62H21.5507V59.5H21.5157V62ZM21.5507 62H21.5858V59.5H21.5507V62ZM21.5858 62H21.621V59.5H21.5858V62ZM21.621 62H21.6562V59.5H21.621V62ZM21.6562 62H21.6914V59.5H21.6562V62ZM21.6914 62H21.7267V59.5H21.6914V62ZM21.7267 62H21.762V59.5H21.7267V62ZM21.762 62H21.7974V59.5H21.762V62ZM21.7974 62H21.8329V59.5H21.7974V62ZM21.8329 62H21.8684V59.5H21.8329V62ZM21.8684 62H21.9039V59.5H21.8684V62ZM21.9039 62H21.9395V59.5H21.9039V62ZM21.9395 62H21.9751V59.5H21.9395V62ZM21.9751 62H22.0108V59.5H21.9751V62ZM22.0108 62H22.0466V59.5H22.0108V62ZM22.0466 62H22.0824V59.5H22.0466V62ZM22.0824 62H22.1182V59.5H22.0824V62ZM22.1182 62H22.1541V59.5H22.1182V62ZM22.1541 62H22.19V59.5H22.1541V62ZM22.19 62H22.226V59.5H22.19V62ZM22.226 62H22.262V59.5H22.226V62ZM22.262 62H22.2981V59.5H22.262V62ZM22.2981 62H22.3342V59.5H22.2981V62ZM22.3342 62H22.3704V59.5H22.3342V62ZM22.3704 62H22.4066V59.5H22.3704V62ZM22.4066 62H22.4429V59.5H22.4066V62ZM22.4429 62H22.4792V59.5H22.4429V62ZM22.4792 62H22.5156V59.5H22.4792V62ZM22.5156 62H22.552V59.5H22.5156V62ZM22.552 62H22.5884V59.5H22.552V62ZM22.5884 62H22.6249V59.5H22.5884V62ZM22.6249 62H22.6614V59.5H22.6249V62ZM22.6614 62H22.698V59.5H22.6614V62ZM22.698 62H22.7346V59.5H22.698V62ZM22.7346 62H22.7713V59.5H22.7346V62ZM22.7713 62H22.808V59.5H22.7713V62ZM22.808 62H22.8448V59.5H22.808V62ZM22.8448 62H22.8816V59.5H22.8448V62ZM22.8816 62H22.9185V59.5H22.8816V62ZM22.9185 62H22.9553V59.5H22.9185V62ZM22.9553 62H22.9923V59.5H22.9553V62ZM22.9923 62H23.0293V59.5H22.9923V62ZM23.0293 62H23.0663V59.5H23.0293V62ZM23.0663 62H23.1033V59.5H23.0663V62ZM23.1033 62H23.1405V59.5H23.1033V62ZM23.1405 62H23.1776V59.5H23.1405V62ZM23.1776 62H23.2148V59.5H23.1776V62ZM23.2148 62H23.252V59.5H23.2148V62ZM23.252 62H23.2893V59.5H23.252V62ZM23.2893 62H23.3266V59.5H23.2893V62ZM23.3266 62H23.364V59.5H23.3266V62ZM23.364 62H23.4014V59.5H23.364V62ZM23.4014 62H23.4388V59.5H23.4014V62ZM23.4388 62H23.4763V59.5H23.4388V62ZM23.4763 62H23.5138V59.5H23.4763V62ZM23.5138 62H23.5513V59.5H23.5138V62ZM23.5513 62H23.5889V59.5H23.5513V62ZM23.5889 62H23.6266V59.5H23.5889V62ZM23.6266 62H23.6643V59.5H23.6266V62ZM23.6643 62H23.702V59.5H23.6643V62ZM23.702 62H23.7397V59.5H23.702V62ZM23.7397 62H23.7775V59.5H23.7397V62ZM23.7775 62H23.8153V59.5H23.7775V62ZM23.8153 62H23.8532V59.5H23.8153V62ZM23.8532 62H23.8911V59.5H23.8532V62ZM23.8911 62H23.9291V59.5H23.8911V62ZM23.9291 62H23.967V59.5H23.9291V62ZM23.967 62H24.0051V59.5H23.967V62ZM24.0051 62H24.0431V59.5H24.0051V62ZM24.0431 62H24.0812V59.5H24.0431V62ZM24.0812 62H24.1193V59.5H24.0812V62ZM24.1193 62H24.1575V59.5H24.1193V62ZM24.1575 62H24.1957V59.5H24.1575V62ZM24.1957 62H24.2339V59.5H24.1957V62ZM24.2339 62H24.2722V59.5H24.2339V62ZM24.2722 62H24.3105V59.5H24.2722V62ZM24.3105 62H24.3488V59.5H24.3105V62ZM24.3488 62H24.3872V59.5H24.3488V62ZM24.3872 62H24.4256V59.5H24.3872V62ZM24.4256 62H24.4641V59.5H24.4256V62ZM24.4641 62H24.5026V59.5H24.4641V62ZM24.5026 62H24.5411V59.5H24.5026V62ZM24.5411 62H24.5796V59.5H24.5411V62ZM24.5796 62H24.6182V59.5H24.5796V62ZM24.6182 62H24.6568V59.5H24.6182V62ZM24.6568 62H24.6955V59.5H24.6568V62ZM24.6955 62H24.7341V59.5H24.6955V62ZM24.7341 62H24.7729V59.5H24.7341V62ZM24.7729 62H24.8116V59.5H24.7729V62ZM24.8116 62H24.8504V59.5H24.8116V62ZM24.8504 62H24.8892V59.5H24.8504V62ZM24.8892 62H24.928V59.5H24.8892V62ZM24.928 62H24.9669V59.5H24.928V62ZM24.9669 62H25.0058V59.5H24.9669V62ZM25.0058 62H25.0448V59.5H25.0058V62ZM25.0448 62H25.0837V59.5H25.0448V62ZM25.0837 62H25.1227V59.5H25.0837V62ZM25.1227 62H25.1618V59.5H25.1227V62ZM25.1618 62H25.2008V59.5H25.1618V62ZM25.2008 62H25.2399V59.5H25.2008V62ZM25.2399 62H25.279V59.5H25.2399V62ZM25.279 62H25.3182V59.5H25.279V62ZM25.3182 62H25.3574V59.5H25.3182V62ZM25.3574 62H25.3966V59.5H25.3574V62ZM25.3966 62H25.4358V59.5H25.3966V62ZM25.4358 62H25.4751V59.5H25.4358V62ZM25.4751 62H25.5144V59.5H25.4751V62ZM25.5144 62H25.5537V59.5H25.5144V62ZM25.5537 62H25.593V59.5H25.5537V62ZM25.593 62H25.6324V59.5H25.593V62ZM25.6324 62H25.6718V59.5H25.6324V62ZM25.6718 62H25.7112V59.5H25.6718V62ZM25.7112 62H25.7507V59.5H25.7112V62ZM25.7507 62H25.7902V59.5H25.7507V62ZM25.7902 62H25.8297V59.5H25.7902V62ZM25.8297 62H25.8692V59.5H25.8297V62ZM25.8692 62H25.9088V59.5H25.8692V62ZM25.9088 62H25.9484V59.5H25.9088V62ZM25.9484 62H25.988V59.5H25.9484V62ZM25.988 62H26.0277V59.5H25.988V62ZM26.0277 62H26.0673V59.5H26.0277V62ZM26.0673 62H26.107V59.5H26.0673V62ZM26.107 62H26.1468V59.5H26.107V62ZM26.1468 62H26.1865V59.5H26.1468V62ZM26.1865 62H26.2263V59.5H26.1865V62ZM26.2263 62H26.2661V59.5H26.2263V62ZM26.2661 62H26.3059V59.5H26.2661V62ZM26.3059 62H26.3457V59.5H26.3059V62ZM26.3457 62H26.3856V59.5H26.3457V62ZM26.3856 62H26.4255V59.5H26.3856V62ZM26.4255 62H26.4654V59.5H26.4255V62ZM26.4654 62H26.5053V59.5H26.4654V62ZM26.5053 62H26.5453V59.5H26.5053V62ZM26.5453 62H26.5853V59.5H26.5453V62ZM26.5853 62H26.6253V59.5H26.5853V62ZM26.6253 62H26.6653V59.5H26.6253V62ZM26.6653 62H26.7053V59.5H26.6653V62ZM26.7053 62H26.7454V59.5H26.7053V62ZM26.7454 62C27.0156 62 27.0752 62.0462 27.0335 62.0249C27.0105 62.0131 26.9752 61.99 26.938 61.9526C26.9015 61.916 26.8774 61.8799 26.8638 61.8558L29.04 60.6253C28.8772 60.3374 28.6101 60.0235 28.1732 59.7997C27.7607 59.5885 27.2796 59.5 26.7454 59.5V62ZM26.8638 61.8558C26.8369 61.8082 26.8468 61.7981 26.8573 61.8781C26.8681 61.9613 26.8717 62.0703 26.8717 62.25H29.3717C29.3717 61.9462 29.3877 61.2404 29.04 60.6253L26.8638 61.8558ZM26.8717 62.25C26.8717 69.8815 33.1894 76 40.8978 76V73.5C34.5156 73.5 29.3717 68.4469 29.3717 62.25H26.8717ZM40.8978 76C48.6061 76 54.9239 69.8815 54.9239 62.25H52.4239C52.4239 68.4469 47.2799 73.5 40.8978 73.5V76ZM54.9239 62.25C54.9239 62.0703 54.9274 61.9613 54.9382 61.8781C54.9487 61.7981 54.9587 61.8082 54.9318 61.8558L52.7555 60.6253C52.4078 61.2404 52.4239 61.9462 52.4239 62.25H54.9239ZM54.9318 61.8558C54.9181 61.8799 54.894 61.916 54.8575 61.9526C54.8203 61.99 54.785 62.0131 54.762 62.0249C54.7204 62.0462 54.78 62 55.0501 62V59.5C54.5159 59.5 54.0348 59.5885 53.6223 59.7997C53.1854 60.0235 52.9183 60.3374 52.7555 60.6253L54.9318 61.8558ZM55.0501 62H80.0005V59.5H55.0501V62ZM80.0005 62C80.967 62 81.7505 61.2165 81.7505 60.25H79.2505C79.2505 59.8358 79.5863 59.5 80.0005 59.5V62ZM81.7505 60.25C81.7505 59.2835 80.967 58.5 80.0005 58.5V61C79.5863 61 79.2505 60.6642 79.2505 60.25H81.7505ZM80.0005 58.5H55.0501V61H80.0005V58.5ZM55.0501 58.5C53.6467 58.5 52.5038 59.0388 51.885 60.1332L54.0613 61.3636C54.1143 61.2698 54.1855 61.196 54.304 61.1359C54.4328 61.0706 54.6627 61 55.0501 61V58.5ZM51.885 60.1332C51.4027 60.9862 51.4236 61.9171 51.4238 62.2222L53.9238 62.2201C53.9237 62.0553 53.9249 61.9004 53.9482 61.7377C53.9714 61.5757 54.0111 61.4523 54.0613 61.3636L51.885 60.1332ZM51.4238 62.2221C51.4238 62.2321 51.4239 62.2412 51.4239 62.25H53.9239C53.9239 62.2401 53.9238 62.2299 53.9238 62.2202L51.4238 62.2221ZM51.4239 62.25C51.4239 67.874 46.7485 72.5 40.8978 72.5V75C48.0761 75 53.9239 69.3073 53.9239 62.25H51.4239ZM40.8978 72.5C35.047 72.5 30.3717 67.874 30.3717 62.25H27.8717C27.8717 69.3073 33.7195 75 40.8978 75V72.5ZM30.3717 62.25C30.3717 62.2413 30.3717 62.2322 30.3717 62.2222L27.8717 62.2201C27.8717 62.2298 27.8717 62.24 27.8717 62.25H30.3717ZM30.3717 62.2222C30.372 61.9171 30.3928 60.9862 29.9105 60.1332L27.7343 61.3636C27.7844 61.4523 27.8241 61.5757 27.8473 61.7377C27.8706 61.9004 27.8718 62.0553 27.8717 62.2201L30.3717 62.2222ZM29.9105 60.1332C29.2918 59.0388 28.1488 58.5 26.7454 58.5V61C27.1328 61 27.3627 61.0706 27.4916 61.1359C27.61 61.196 27.6812 61.2698 27.7343 61.3636L29.9105 60.1332ZM26.7454 58.5H26.7053V61H26.7454V58.5ZM26.7053 58.5H26.6653V61H26.7053V58.5ZM26.6653 58.5H26.6253V61H26.6653V58.5ZM26.6253 58.5H26.5853V61H26.6253V58.5ZM26.5853 58.5H26.5453V61H26.5853V58.5ZM26.5453 58.5H26.5053V61H26.5453V58.5ZM26.5053 58.5H26.4654V61H26.5053V58.5ZM26.4654 58.5H26.4255V61H26.4654V58.5ZM26.4255 58.5H26.3856V61H26.4255V58.5ZM26.3856 58.5H26.3457V61H26.3856V58.5ZM26.3457 58.5H26.3059V61H26.3457V58.5ZM26.3059 58.5H26.2661V61H26.3059V58.5ZM26.2661 58.5H26.2263V61H26.2661V58.5ZM26.2263 58.5H26.1865V61H26.2263V58.5ZM26.1865 58.5H26.1468V61H26.1865V58.5ZM26.1468 58.5H26.107V61H26.1468V58.5ZM26.107 58.5H26.0673V61H26.107V58.5ZM26.0673 58.5H26.0277V61H26.0673V58.5ZM26.0277 58.5H25.988V61H26.0277V58.5ZM25.988 58.5H25.9484V61H25.988V58.5ZM25.9484 58.5H25.9088V61H25.9484V58.5ZM25.9088 58.5H25.8692V61H25.9088V58.5ZM25.8692 58.5H25.8297V61H25.8692V58.5ZM25.8297 58.5H25.7902V61H25.8297V58.5ZM25.7902 58.5H25.7507V61H25.7902V58.5ZM25.7507 58.5H25.7112V61H25.7507V58.5ZM25.7112 58.5H25.6718V61H25.7112V58.5ZM25.6718 58.5H25.6324V61H25.6718V58.5ZM25.6324 58.5H25.593V61H25.6324V58.5ZM25.593 58.5H25.5537V61H25.593V58.5ZM25.5537 58.5H25.5144V61H25.5537V58.5ZM25.5144 58.5H25.4751V61H25.5144V58.5ZM25.4751 58.5H25.4358V61H25.4751V58.5ZM25.4358 58.5H25.3966V61H25.4358V58.5ZM25.3966 58.5H25.3574V61H25.3966V58.5ZM25.3574 58.5H25.3182V61H25.3574V58.5ZM25.3182 58.5H25.279V61H25.3182V58.5ZM25.279 58.5H25.2399V61H25.279V58.5ZM25.2399 58.5H25.2008V61H25.2399V58.5ZM25.2008 58.5H25.1618V61H25.2008V58.5ZM25.1618 58.5H25.1227V61H25.1618V58.5ZM25.1227 58.5H25.0837V61H25.1227V58.5ZM25.0837 58.5H25.0448V61H25.0837V58.5ZM25.0448 58.5H25.0058V61H25.0448V58.5ZM25.0058 58.5H24.9669V61H25.0058V58.5ZM24.9669 58.5H24.928V61H24.9669V58.5ZM24.928 58.5H24.8892V61H24.928V58.5ZM24.8892 58.5H24.8504V61H24.8892V58.5ZM24.8504 58.5H24.8116V61H24.8504V58.5ZM24.8116 58.5H24.7729V61H24.8116V58.5ZM24.7729 58.5H24.7341V61H24.7729V58.5ZM24.7341 58.5H24.6955V61H24.7341V58.5ZM24.6955 58.5H24.6568V61H24.6955V58.5ZM24.6568 58.5H24.6182V61H24.6568V58.5ZM24.6182 58.5H24.5796V61H24.6182V58.5ZM24.5796 58.5H24.5411V61H24.5796V58.5ZM24.5411 58.5H24.5026V61H24.5411V58.5ZM24.5026 58.5H24.4641V61H24.5026V58.5ZM24.4641 58.5H24.4256V61H24.4641V58.5ZM24.4256 58.5H24.3872V61H24.4256V58.5ZM24.3872 58.5H24.3488V61H24.3872V58.5ZM24.3488 58.5H24.3105V61H24.3488V58.5ZM24.3105 58.5H24.2722V61H24.3105V58.5ZM24.2722 58.5H24.2339V61H24.2722V58.5ZM24.2339 58.5H24.1957V61H24.2339V58.5ZM24.1957 58.5H24.1575V61H24.1957V58.5ZM24.1575 58.5H24.1193V61H24.1575V58.5ZM24.1193 58.5H24.0812V61H24.1193V58.5ZM24.0812 58.5H24.0431V61H24.0812V58.5ZM24.0431 58.5H24.0051V61H24.0431V58.5ZM24.0051 58.5H23.967V61H24.0051V58.5ZM23.967 58.5H23.9291V61H23.967V58.5ZM23.9291 58.5H23.8911V61H23.9291V58.5ZM23.8911 58.5H23.8532V61H23.8911V58.5ZM23.8532 58.5H23.8153V61H23.8532V58.5ZM23.8153 58.5H23.7775V61H23.8153V58.5ZM23.7775 58.5H23.7397V61H23.7775V58.5ZM23.7397 58.5H23.702V61H23.7397V58.5ZM23.702 58.5H23.6643V61H23.702V58.5ZM23.6643 58.5H23.6266V61H23.6643V58.5ZM23.6266 58.5H23.5889V61H23.6266V58.5ZM23.5889 58.5H23.5513V61H23.5889V58.5ZM23.5513 58.5H23.5138V61H23.5513V58.5ZM23.5138 58.5H23.4763V61H23.5138V58.5ZM23.4763 58.5H23.4388V61H23.4763V58.5ZM23.4388 58.5H23.4014V61H23.4388V58.5ZM23.4014 58.5H23.364V61H23.4014V58.5ZM23.364 58.5H23.3266V61H23.364V58.5ZM23.3266 58.5H23.2893V61H23.3266V58.5ZM23.2893 58.5H23.252V61H23.2893V58.5ZM23.252 58.5H23.2148V61H23.252V58.5ZM23.2148 58.5H23.1776V61H23.2148V58.5ZM23.1776 58.5H23.1405V61H23.1776V58.5ZM23.1405 58.5H23.1033V61H23.1405V58.5ZM23.1033 58.5H23.0663V61H23.1033V58.5ZM23.0663 58.5H23.0293V61H23.0663V58.5ZM23.0293 58.5H22.9923V61H23.0293V58.5ZM22.9923 58.5H22.9553V61H22.9923V58.5ZM22.9553 58.5H22.9185V61H22.9553V58.5ZM22.9185 58.5H22.8816V61H22.9185V58.5ZM22.8816 58.5H22.8448V61H22.8816V58.5ZM22.8448 58.5H22.808V61H22.8448V58.5ZM22.808 58.5H22.7713V61H22.808V58.5ZM22.7713 58.5H22.7346V61H22.7713V58.5ZM22.7346 58.5H22.698V61H22.7346V58.5ZM22.698 58.5H22.6614V61H22.698V58.5ZM22.6614 58.5H22.6249V61H22.6614V58.5ZM22.6249 58.5H22.5884V61H22.6249V58.5ZM22.5884 58.5H22.552V61H22.5884V58.5ZM22.552 58.5H22.5156V61H22.552V58.5ZM22.5156 58.5H22.4792V61H22.5156V58.5ZM22.4792 58.5H22.4429V61H22.4792V58.5ZM22.4429 58.5H22.4066V61H22.4429V58.5ZM22.4066 58.5H22.3704V61H22.4066V58.5ZM22.3704 58.5H22.3342V61H22.3704V58.5ZM22.3342 58.5H22.2981V61H22.3342V58.5ZM22.2981 58.5H22.262V61H22.2981V58.5ZM22.262 58.5H22.226V61H22.262V58.5ZM22.226 58.5H22.19V61H22.226V58.5ZM22.19 58.5H22.1541V61H22.19V58.5ZM22.1541 58.5H22.1182V61H22.1541V58.5ZM22.1182 58.5H22.0824V61H22.1182V58.5ZM22.0824 58.5H22.0466V61H22.0824V58.5ZM22.0466 58.5H22.0108V61H22.0466V58.5ZM22.0108 58.5H21.9751V61H22.0108V58.5ZM21.9751 58.5H21.9395V61H21.9751V58.5ZM21.9395 58.5H21.9039V61H21.9395V58.5ZM21.9039 58.5H21.8684V61H21.9039V58.5ZM21.8684 58.5H21.8329V61H21.8684V58.5ZM21.8329 58.5H21.7974V61H21.8329V58.5ZM21.7974 58.5H21.762V61H21.7974V58.5ZM21.762 58.5H21.7267V61H21.762V58.5ZM21.7267 58.5H21.6914V61H21.7267V58.5ZM21.6914 58.5H21.6562V61H21.6914V58.5ZM21.6562 58.5H21.621V61H21.6562V58.5ZM21.621 58.5H21.5858V61H21.621V58.5ZM21.5858 58.5H21.5507V61H21.5858V58.5ZM21.5507 58.5H21.5157V61H21.5507V58.5ZM21.5157 58.5H21.4807V61H21.5157V58.5ZM21.4807 58.5H21.4458V61H21.4807V58.5ZM21.4458 58.5H21.4109V61H21.4458V58.5ZM21.4109 58.5H21.3761V61H21.4109V58.5ZM21.3761 58.5H21.3413V61H21.3761V58.5ZM21.3413 58.5H21.3066V61H21.3413V58.5ZM21.3066 58.5H21.2719V61H21.3066V58.5ZM21.2719 58.5H21.2373V61H21.2719V58.5ZM21.2373 58.5H21.2028V61H21.2373V58.5ZM21.2028 58.5H21.1682V61H21.2028V58.5ZM21.1682 58.5H21.1338V61H21.1682V58.5ZM21.1338 58.5H21.0994V61H21.1338V58.5ZM21.0994 58.5H21.0651V61H21.0994V58.5ZM21.0651 58.5H21.0308V61H21.0651V58.5ZM21.0308 58.5H20.9965V61H21.0308V58.5ZM20.9965 58.5H20.9624V61H20.9965V58.5ZM20.9624 58.5H20.9283V61H20.9624V58.5ZM20.9283 58.5H20.8942V61H20.9283V58.5ZM20.8942 58.5H20.8602V61H20.8942V58.5ZM20.8602 58.5H20.8262V61H20.8602V58.5ZM20.8262 58.5H20.7923V61H20.8262V58.5ZM20.7923 58.5H20.7585V61H20.7923V58.5ZM20.7585 58.5H20.7247V61H20.7585V58.5ZM20.7247 58.5H20.691V61H20.7247V58.5ZM20.691 58.5H20.6573V61H20.691V58.5ZM20.6573 58.5H20.6237V61H20.6573V58.5ZM20.6237 58.5H20.5902V61H20.6237V58.5ZM20.5902 58.5H20.5567V61H20.5902V58.5ZM20.5567 58.5H20.5232V61H20.5567V58.5ZM20.5232 58.5H20.4899V61H20.5232V58.5ZM20.4899 58.5H20.4565V61H20.4899V58.5ZM20.4565 58.5H20.4233V61H20.4565V58.5ZM20.4233 58.5H20.3901V61H20.4233V58.5ZM20.3901 58.5H20.3569V61H20.3901V58.5ZM20.3569 58.5H20.3239V61H20.3569V58.5ZM20.3239 58.5H20.2908V61H20.3239V58.5ZM20.2908 58.5H20.2579V61H20.2908V58.5ZM20.2579 58.5H20.225V61H20.2579V58.5ZM20.225 58.5H20.1921V61H20.225V58.5ZM20.1921 58.5H20.1594V61H20.1921V58.5ZM20.1594 58.5H20.1266V61H20.1594V58.5ZM20.1266 58.5H20.094V61H20.1266V58.5ZM20.094 58.5H20.0614V61H20.094V58.5ZM20.0614 58.5H20.0289V61H20.0614V58.5ZM20.0289 58.5H19.9964V61H20.0289V58.5ZM19.9964 58.5H19.964V61H19.9964V58.5ZM19.964 58.5H19.9316V61H19.964V58.5ZM19.9316 58.5H19.8993V61H19.9316V58.5ZM19.8993 58.5H19.8671V61H19.8993V58.5ZM19.8671 58.5H19.835V61H19.8671V58.5ZM19.835 58.5H19.8029V61H19.835V58.5ZM19.8029 58.5H19.7708V61H19.8029V58.5ZM19.7708 58.5H19.7389V61H19.7708V58.5ZM19.7389 58.5H19.7069V61H19.7389V58.5ZM19.7069 58.5H19.6751V61H19.7069V58.5ZM19.6751 58.5H19.6433V61H19.6751V58.5ZM19.6433 58.5H19.6116V61H19.6433V58.5ZM19.6116 58.5H19.58V61H19.6116V58.5ZM19.58 58.5H19.5484V61H19.58V58.5ZM19.5484 58.5H19.5169V61H19.5484V58.5ZM19.5169 58.5H19.4854V61H19.5169V58.5ZM19.4854 58.5H19.454V61H19.4854V58.5ZM19.454 58.5H19.4227V61H19.454V58.5ZM19.4227 58.5H19.3914V61H19.4227V58.5ZM19.3914 58.5H19.3603V61H19.3914V58.5ZM19.3603 58.5H19.3291V61H19.3603V58.5ZM19.3291 58.5H19.2981V61H19.3291V58.5ZM19.2981 58.5H19.2671V61H19.2981V58.5ZM19.2671 58.5H19.2362V61H19.2671V58.5ZM19.2362 58.5H19.2053V61H19.2362V58.5ZM19.2053 58.5H19.1745V61H19.2053V58.5ZM19.1745 58.5H19.1438V61H19.1745V58.5ZM19.1438 58.5H19.1132V61H19.1438V58.5ZM19.1132 58.5H19.0826V61H19.1132V58.5ZM19.0826 58.5H19.0521V61H19.0826V58.5ZM19.0521 58.5H19.0216V61H19.0521V58.5ZM19.0216 58.5H18.9912V61H19.0216V58.5ZM18.9912 58.5H18.9609V61H18.9912V58.5ZM18.9609 58.5H18.9307V61H18.9609V58.5ZM18.9307 58.5H18.9005V61H18.9307V58.5ZM18.9005 58.5H18.8704V61H18.9005V58.5ZM18.8704 58.5H18.8404V61H18.8704V58.5ZM18.8404 58.5H18.8104V61H18.8404V58.5ZM18.8104 58.5H18.7806V61H18.8104V58.5ZM18.7806 58.5H18.7507V61H18.7806V58.5ZM18.7507 58.5H18.721V61H18.7507V58.5ZM18.721 58.5H18.6913V61H18.721V58.5ZM18.6913 58.5H18.6617V61H18.6913V58.5ZM18.6617 58.5H18.6322V61H18.6617V58.5ZM18.6322 58.5H18.6027V61H18.6322V58.5ZM18.6027 58.5H18.5733V61H18.6027V58.5ZM18.5733 58.5H18.544V61H18.5733V58.5ZM18.544 58.5H18.5148V61H18.544V58.5ZM18.5148 58.5H18.4856V61H18.5148V58.5ZM18.4856 58.5H18.4565V61H18.4856V58.5ZM18.4565 58.5H18.4275V61H18.4565V58.5ZM18.4275 58.5H18.3985V61H18.4275V58.5ZM18.3985 58.5H18.3697V61H18.3985V58.5ZM18.3697 58.5H18.3409V61H18.3697V58.5ZM18.3409 58.5H18.3121V61H18.3409V58.5ZM18.3121 58.5H18.2835V61H18.3121V58.5ZM18.2835 58.5H18.2549V61H18.2835V58.5ZM18.2549 58.5H18.2264V61H18.2549V58.5ZM18.2264 58.5H18.198V61H18.2264V58.5ZM18.198 58.5H18.1696V61H18.198V58.5ZM18.1696 58.5H18.1413V61H18.1696V58.5ZM18.1413 58.5H18.1131V61H18.1413V58.5ZM18.1131 58.5H18.085V61H18.1131V58.5ZM18.085 58.5H18.0569V61H18.085V58.5ZM18.0569 58.5H18.029V61H18.0569V58.5ZM18.029 58.5H18.0011V61H18.029V58.5ZM18.0011 58.5H17.9732V61H18.0011V58.5ZM17.9732 58.5H17.9455V61H17.9732V58.5ZM17.9455 58.5H17.9178V61H17.9455V58.5ZM17.9178 58.5H17.8902V61H17.9178V58.5ZM17.8902 58.5H17.8627V61H17.8902V58.5ZM17.8627 58.5H17.8353V61H17.8627V58.5ZM17.8353 58.5H17.8079V61H17.8353V58.5ZM17.8079 58.5H17.7806V61H17.8079V58.5ZM17.7806 58.5H17.7534V61H17.7806V58.5ZM17.7534 58.5H17.7263V61H17.7534V58.5ZM17.7263 58.5H17.6993V61H17.7263V58.5ZM17.6993 58.5H17.6723V61H17.6993V58.5ZM17.6723 58.5H17.6454V61H17.6723V58.5ZM17.6454 58.5H17.6186V61H17.6454V58.5ZM17.6186 58.5H17.5919V61H17.6186V58.5ZM17.5919 58.5H17.5652V61H17.5919V58.5ZM17.5652 58.5H17.5387V61H17.5652V58.5ZM17.5387 58.5H17.5122V61H17.5387V58.5ZM17.5122 58.5H17.4858V61H17.5122V58.5ZM17.4858 58.5H17.4595V61H17.4858V58.5ZM17.4595 58.5H17.4332V61H17.4595V58.5ZM17.4332 58.5H17.4071V61H17.4332V58.5ZM17.4071 58.5H17.381V61H17.4071V58.5ZM17.381 58.5H17.355V61H17.381V58.5ZM17.355 58.5H17.3291V61H17.355V58.5ZM17.3291 58.5H17.3032V61H17.3291V58.5ZM17.3032 58.5H17.2775V61H17.3032V58.5ZM17.2775 58.5H17.2518V61H17.2775V58.5ZM17.2518 58.5H17.2262V61H17.2518V58.5ZM17.2262 58.5H17.2007V61H17.2262V58.5ZM17.2007 58.5H17.1753V61H17.2007V58.5ZM17.1753 58.5H17.15V61H17.1753V58.5ZM17.15 58.5H17.1247V61H17.15V58.5ZM17.1247 58.5H17.0996V61H17.1247V58.5ZM17.0996 58.5H17.0745V61H17.0996V58.5ZM17.0745 58.5H17.0495V61H17.0745V58.5ZM17.0495 58.5H17.0246V61H17.0495V58.5ZM17.0246 58.5H16.9997V61H17.0246V58.5ZM16.9997 58.5H16.975V61H16.9997V58.5ZM16.975 58.5H16.9503V61H16.975V58.5ZM16.9503 58.5H16.9258V61H16.9503V58.5ZM16.9258 58.5H16.9013V61H16.9258V58.5ZM16.9013 58.5H16.8769V61H16.9013V58.5ZM16.8769 58.5H16.8526V61H16.8769V58.5ZM16.8526 58.5H16.8283V61H16.8526V58.5ZM16.8283 58.5H16.8042V61H16.8283V58.5ZM16.8042 58.5H16.7802V61H16.8042V58.5ZM16.7802 58.5H16.7562V61H16.7802V58.5ZM16.7562 58.5H16.7323V61H16.7562V58.5ZM16.7323 58.5H16.7085V61H16.7323V58.5ZM16.7085 58.5H16.6848V61H16.7085V58.5ZM16.6848 58.5H16.6612V61H16.6848V58.5ZM16.6612 58.5H16.6377V61H16.6612V58.5ZM16.6377 58.5H16.6142V61H16.6377V58.5ZM16.6142 58.5H16.5909V61H16.6142V58.5ZM16.5909 58.5H16.5676V61H16.5909V58.5ZM16.5676 58.5H16.5444V61H16.5676V58.5ZM16.5444 58.5H16.5214V61H16.5444V58.5ZM16.5214 58.5H16.4984V61H16.5214V58.5ZM16.4984 58.5H16.4755V61H16.4984V58.5ZM16.4755 58.5H16.4527V61H16.4755V58.5ZM16.4527 58.5H16.4299V61H16.4527V58.5ZM16.4299 58.5H16.4073V61H16.4299V58.5ZM16.4073 58.5H16.3848V61H16.4073V58.5ZM16.3848 58.5H16.3623V61H16.3848V58.5ZM16.3623 58.5H16.3399V61H16.3623V58.5ZM16.3399 58.5H16.3177V61H16.3399V58.5ZM16.3177 58.5H16.2955V61H16.3177V58.5ZM16.2955 58.5H16.2734V61H16.2955V58.5ZM16.2734 58.5H16.2514V61H16.2734V58.5ZM16.2514 58.5H16.2295V61H16.2514V58.5ZM16.2295 58.5H16.2077V61H16.2295V58.5ZM16.2077 58.5H16.186V61H16.2077V58.5ZM16.186 58.5H16.1644V61H16.186V58.5ZM16.1644 58.5H16.1429V61H16.1644V58.5ZM16.1429 58.5H16.1214V61H16.1429V58.5ZM16.1214 58.5H16.1001V61H16.1214V58.5ZM16.1001 58.5H16.0788V61H16.1001V58.5ZM16.0788 58.5H16.0577V61H16.0788V58.5ZM16.0577 58.5H16.0366V61H16.0577V58.5ZM16.0366 58.5H16.0156V61H16.0366V58.5ZM16.0156 58.5H15.9948V61H16.0156V58.5ZM15.9948 58.5H15.974V61H15.9948V58.5ZM15.974 58.5H15.9533V61H15.974V58.5ZM15.9533 58.5H15.9327V61H15.9533V58.5ZM15.9327 58.5H15.9122V61H15.9327V58.5ZM15.9122 58.5H15.8919V61H15.9122V58.5ZM15.8919 58.5H15.8716V61H15.8919V58.5ZM15.8716 58.5H15.8514V61H15.8716V58.5ZM15.8514 58.5H15.8312V61H15.8514V58.5ZM15.8312 58.5H15.8112V61H15.8312V58.5ZM15.8112 58.5H15.7913V61H15.8112V58.5ZM15.7913 58.5H15.7715V61H15.7913V58.5ZM15.7715 58.5H15.7518V61H15.7715V58.5ZM15.7518 58.5H15.7322V61H15.7518V58.5ZM15.7322 58.5H15.7127V61H15.7322V58.5ZM15.7127 58.5H15.6932V61H15.7127V58.5ZM15.6932 58.5H15.6739V61H15.6932V58.5ZM15.6739 58.5H15.6547V61H15.6739V58.5ZM15.6547 58.5H15.6356V61H15.6547V58.5ZM15.6356 58.5H15.6165V61H15.6356V58.5ZM15.6165 58.5H15.5976V61H15.6165V58.5ZM15.5976 58.5H15.5788V61H15.5976V58.5ZM15.5788 58.5H15.56V61H15.5788V58.5ZM15.56 58.5H15.5414V61H15.56V58.5ZM15.5414 58.5H15.5229V61H15.5414V58.5ZM15.5229 58.5H15.5044V61H15.5229V58.5ZM15.5044 58.5H15.4861V61H15.5044V58.5ZM15.4861 58.5H15.4679V61H15.4861V58.5ZM15.4679 58.5H15.4498V61H15.4679V58.5ZM15.4498 58.5H15.4317V61H15.4498V58.5ZM15.4317 58.5H15.4138V61H15.4317V58.5ZM15.4138 58.5H15.396V61H15.4138V58.5ZM15.396 58.5H15.3783V61H15.396V58.5ZM15.3783 58.5H15.3606V61H15.3783V58.5ZM15.3606 58.5H15.3431V61H15.3606V58.5ZM15.3431 58.5H15.3257V61H15.3431V58.5ZM15.3257 58.5H15.3084V61H15.3257V58.5ZM15.3084 58.5H15.2912V61H15.3084V58.5ZM15.2912 58.5H15.2741V61H15.2912V58.5ZM15.2741 58.5H15.2571V61H15.2741V58.5ZM15.2571 58.5H15.2402V61H15.2571V58.5ZM15.2402 58.5H15.2234V61H15.2402V58.5ZM15.2234 58.5H15.2067V61H15.2234V58.5ZM15.2067 58.5H15.1901V61H15.2067V58.5ZM15.1901 58.5H15.1736V61H15.1901V58.5ZM15.1736 58.5H15.1572V61H15.1736V58.5ZM15.1572 58.5H15.141V61H15.1572V58.5ZM15.141 58.5H15.1248V61H15.141V58.5ZM15.1248 58.5H15.1087V61H15.1248V58.5ZM15.1087 58.5H15.0928V61H15.1087V58.5ZM15.0928 58.5H15.0769V61H15.0928V58.5ZM15.0769 58.5H15.0612V61H15.0769V58.5ZM15.0612 58.5H15.0455V61H15.0612V58.5ZM15.0455 58.5H15.03V61H15.0455V58.5ZM15.03 58.5H15.0146V61H15.03V58.5ZM15.0146 58.5H14.9993V61H15.0146V58.5ZM14.9993 58.5H14.984V61H14.9993V58.5ZM14.984 58.5H14.9689V61H14.984V58.5ZM14.9689 58.5H14.9539V61H14.9689V58.5ZM14.9539 58.5H14.939V61H14.9539V58.5ZM14.939 58.5H14.9243V61H14.939V58.5ZM14.9243 58.5H14.9096V61H14.9243V58.5ZM14.9096 58.5H14.895V61H14.9096V58.5ZM14.895 58.5H14.8806V61H14.895V58.5ZM14.8806 58.5H14.8662V61H14.8806V58.5ZM14.8662 58.5H14.852V61H14.8662V58.5ZM14.852 58.5H14.8379V61H14.852V58.5ZM14.8379 58.5H14.8238V61H14.8379V58.5ZM14.8238 58.5H14.8099V61H14.8238V58.5ZM14.8099 58.5H14.7961V61H14.8099V58.5ZM14.7961 58.5H14.7824V61H14.7961V58.5ZM14.7824 58.5H14.7689V61H14.7824V58.5ZM14.7689 58.5H14.7554V61H14.7689V58.5ZM14.7554 58.5H14.742V61H14.7554V58.5ZM14.742 58.5H14.7288V61H14.742V58.5ZM14.7288 58.5H14.7157V61H14.7288V58.5ZM14.7157 58.5H14.7026V61H14.7157V58.5ZM14.7026 58.5H14.6897V61H14.7026V58.5ZM14.6897 58.5H14.6769V61H14.6897V58.5ZM14.6769 58.5H14.6643V61H14.6769V58.5ZM14.6643 58.5H14.6517V61H14.6643V58.5ZM14.6517 58.5H14.6392V61H14.6517V58.5ZM14.6392 58.5H14.6269V61H14.6392V58.5ZM14.6269 58.5H14.6146V61H14.6269V58.5ZM14.6146 58.5H14.6025V61H14.6146V58.5ZM14.6025 58.5H14.5905V61H14.6025V58.5ZM14.5905 58.5H14.5786V61H14.5905V58.5ZM14.5786 58.5H14.5668V61H14.5786V58.5ZM14.5668 58.5H14.5552V61H14.5668V58.5ZM14.5552 58.5H14.5436V61H14.5552V58.5ZM14.5436 58.5H14.5322V61H14.5436V58.5ZM14.5322 58.5H14.5209V61H14.5322V58.5ZM14.5209 58.5H14.5097V61H14.5209V58.5ZM14.5097 58.5H14.4986V61H14.5097V58.5ZM14.4986 58.5H14.4876V61H14.4986V58.5ZM14.4876 58.5H14.4767V61H14.4876V58.5ZM14.4767 58.5H14.466V61H14.4767V58.5ZM14.466 58.5H14.4554V61H14.466V58.5ZM14.4554 58.5H14.4448V61H14.4554V58.5ZM14.4448 58.5H14.4345V61H14.4448V58.5ZM14.4345 58.5H14.4242V61H14.4345V58.5ZM14.4242 58.5H14.414V61H14.4242V58.5ZM14.414 58.5H14.404V61H14.414V58.5ZM14.404 58.5H14.394V61H14.404V58.5ZM14.394 58.5H14.3842V61H14.394V58.5ZM14.3842 58.5H14.3746V61H14.3842V58.5ZM14.3746 58.5H14.365V61H14.3746V58.5ZM14.365 58.5H14.3555V61H14.365V58.5ZM14.3555 58.5H14.3462V61H14.3555V58.5ZM14.3462 58.5H14.337V61H14.3462V58.5ZM14.337 58.5H14.3279V61H14.337V58.5ZM14.3279 58.5H14.3189V61H14.3279V58.5ZM14.3189 58.5H14.3101V61H14.3189V58.5ZM14.3101 58.5H14.3013V61H14.3101V58.5ZM14.3013 58.5H14.2927V61H14.3013V58.5ZM14.2927 58.5H14.2842V61H14.2927V58.5ZM14.2842 58.5H14.2758V61H14.2842V58.5ZM14.2758 58.5H14.2676V61H14.2758V58.5ZM14.2676 58.5H14.2594V61H14.2676V58.5ZM14.2594 58.5H14.2514V61H14.2594V58.5ZM14.2514 58.5H14.2435V61H14.2514V58.5ZM14.2435 58.5H14.2358V61H14.2435V58.5ZM14.2358 58.5H14.2281V61H14.2358V58.5ZM14.2281 58.5H14.2206V61H14.2281V58.5ZM14.2206 58.5H14.2132V61H14.2206V58.5ZM14.2132 58.5H14.2059V61H14.2132V58.5ZM14.2059 58.5H14.1987V61H14.2059V58.5ZM14.1987 58.5H14.1917V61H14.1987V58.5ZM14.1917 58.5H14.1848V61H14.1917V58.5ZM14.1848 58.5H14.178V61H14.1848V58.5ZM14.178 58.5H14.1713V61H14.178V58.5ZM14.1713 58.5H14.1648V61H14.1713V58.5ZM14.1648 58.5H14.1584V61H14.1648V58.5ZM14.1584 58.5H14.1521V61H14.1584V58.5ZM14.1521 58.5H14.1459V61H14.1521V58.5ZM14.1459 58.5H14.1399V61H14.1459V58.5ZM14.1399 58.5H14.134V61H14.1399V58.5ZM14.134 58.5H14.1282V61H14.134V58.5ZM14.1282 58.5H14.1225V61H14.1282V58.5ZM14.1225 58.5H14.1169V61H14.1225V58.5ZM14.1169 58.5H14.1115V61H14.1169V58.5ZM14.1115 58.5H14.1062V61H14.1115V58.5ZM14.1062 58.5H14.1011V61H14.1062V58.5ZM14.1011 58.5H14.096V61H14.1011V58.5ZM14.096 58.5H14.0911V61H14.096V58.5ZM14.0911 58.5H14.0863V61H14.0911V58.5ZM14.0863 58.5H14.0817V61H14.0863V58.5ZM14.0817 58.5H14.0772V61H14.0817V58.5ZM14.0772 58.5H14.0727V61H14.0772V58.5ZM14.0727 58.5H14.0685V61H14.0727V58.5ZM14.0685 58.5H14.0643V61H14.0685V58.5ZM14.0643 58.5H14.0603V61H14.0643V58.5ZM14.0603 58.5H14.0564V61H14.0603V58.5ZM14.0564 58.5H14.0527V61H14.0564V58.5ZM14.0527 58.5H14.049V61H14.0527V58.5ZM14.049 58.5H14.0455V61H14.049V58.5ZM14.0455 58.5H14.0421V61H14.0455V58.5ZM14.0421 58.5H14.0389V61H14.0421V58.5ZM14.0389 58.5H14.0358V61H14.0389V58.5ZM14.0358 58.5H14.0328V61H14.0358V58.5ZM14.0328 58.5H14.0299V61H14.0328V58.5ZM14.0299 58.5H14.0272V61H14.0299V58.5ZM14.0272 58.5H14.0246V61H14.0272V58.5ZM14.0246 58.5H14.0222V61H14.0246V58.5ZM14.0222 58.5H14.0198V61H14.0222V58.5ZM14.0198 58.5H14.0176V61H14.0198V58.5ZM14.0176 58.5H14.0156V61H14.0176V58.5ZM14.0156 58.5H14.0136V61H14.0156V58.5ZM14.0136 58.5H14.0118V61H14.0136V58.5ZM14.0118 58.5H14.0102V61H14.0118V58.5ZM14.0102 58.5H14.0086V61H14.0102V58.5ZM14.0086 58.5H14.0072V61H14.0086V58.5ZM14.0072 58.5H14.0059V61H14.0072V58.5ZM14.0059 58.5H14.0048V61H14.0059V58.5ZM14.0048 58.5H14.0038V61H14.0048V58.5ZM14.0038 58.5H14.0029V61H14.0038V58.5ZM14.0029 58.5H14.0022V61H14.0029V58.5ZM14.0022 58.5H14.0016V61H14.0022V58.5ZM14.0016 58.5H14.0011V61H14.0016V58.5ZM14.0011 58.5H14.0008V61H14.0011V58.5ZM14.0008 58.5H14.0006V61H14.0008V58.5ZM12.7506 59.7498L12.7505 60.2498L15.2505 60.2502L15.2506 59.7502L12.7506 59.7498Z" fill="#62BB46"/>
<path d="M14.9332 6.72102L14 7.55273L14 7.55273L14.9332 6.72102ZM26.0328 19.1741L26.9659 18.3424L26.9659 18.3424L26.0328 19.1741ZM25.9313 20.939L26.7631 21.8721L26.7631 21.8721L25.9313 20.939ZM24.1665 20.8376L23.2333 21.6693L23.2333 21.6693L24.1665 20.8376ZM13.0669 8.38445L14 7.55273L14 7.55273L13.0669 8.38445ZM66.9313 6.6196L67.7631 5.68646L67.7631 5.68645L66.9313 6.6196ZM65.1665 6.72102L64.2333 5.8893L64.2333 5.8893L65.1665 6.72102ZM67.0328 8.38445L67.9659 9.21617L67.9659 9.21617L67.0328 8.38445ZM55.9332 20.8376L56.8663 21.6693L56.8663 21.6693L55.9332 20.8376ZM54.1683 20.939L53.3366 21.8721L53.3366 21.8721L54.1683 20.939ZM54.0669 19.1741L53.1337 18.3424L53.1337 18.3424L54.0669 19.1741ZM42.5996 3.25C42.5996 1.86929 41.4803 0.75 40.0996 0.75V3.25H42.5996ZM42.5996 20.0059V3.25H40.0996V20.0059H42.5996ZM40.0996 22.5059C41.4803 22.5059 42.5996 21.3866 42.5996 20.0059H40.0996V22.5059ZM37.5996 20.0059C37.5996 21.3866 38.7189 22.5059 40.0996 22.5059V20.0059H37.5996ZM37.5996 3.25V20.0059H40.0996V3.25H37.5996ZM40.0996 0.75C38.7189 0.75 37.5996 1.86929 37.5996 3.25H40.0996V0.75ZM15.8663 5.8893C14.9476 4.85858 13.3673 4.76777 12.3366 5.68646L14 7.55273L14 7.55273L15.8663 5.8893ZM26.9659 18.3424L15.8663 5.8893L14 7.55273L25.0996 20.0059L26.9659 18.3424ZM26.7631 21.8721C27.7938 20.9534 27.8846 19.3731 26.9659 18.3424L25.0996 20.0059L25.0996 20.0059L26.7631 21.8721ZM23.2333 21.6693C24.152 22.7 25.7323 22.7908 26.7631 21.8721L25.0996 20.0059L25.0996 20.0059L23.2333 21.6693ZM12.1337 9.21617L23.2333 21.6693L25.0996 20.0059L14 7.55273L12.1337 9.21617ZM12.3366 5.68646C11.3059 6.60515 11.215 8.18545 12.1337 9.21617L14 7.55273L14 7.55273L12.3366 5.68646ZM67.7631 5.68645C66.7323 4.76777 65.152 4.85858 64.2333 5.8893L66.0996 7.55274L66.0996 7.55274L67.7631 5.68645ZM67.9659 9.21617C68.8846 8.18545 68.7938 6.60515 67.7631 5.68646L66.0996 7.55273L66.0996 7.55274L67.9659 9.21617ZM56.8663 21.6693L67.9659 9.21617L66.0996 7.55273L55 20.0059L56.8663 21.6693ZM53.3366 21.8721C54.3673 22.7908 55.9476 22.7 56.8663 21.6693L55 20.0059L55 20.0059L53.3366 21.8721ZM53.1337 18.3424C52.215 19.3731 52.3059 20.9534 53.3366 21.8721L55 20.0059L55 20.0059L53.1337 18.3424ZM64.2333 5.8893L53.1337 18.3424L55 20.0059L66.0996 7.55273L64.2333 5.8893Z" fill="#95E27C"/>
</svg>
