<svg width="209" height="294" viewBox="0 0 209 294" fill="none" xmlns="http://www.w3.org/2000/svg">
<path d="M209 17.4328V122.552C209 124.75 207.217 126.534 205.034 126.534H14.3508C12.168 126.534 10.3852 124.75 10.3852 122.552V17.4328H209Z" fill="white"/>
<path d="M79.836 33.8753L95.6104 28.2045L111.236 33.8007C113.229 34.7435 114.978 35.3065 114.978 37.1651V46.4242C114.978 52.8546 113.297 59.2241 109.833 64.8473C106.918 69.582 102.403 74.4523 95.4545 77.5523C89.0688 75.4766 84.3033 69.9415 81.3883 65.2068C77.9243 59.5836 76.2432 53.2142 76.2432 46.7837V38.4607C76.2499 35.8085 77.6532 34.5129 79.836 33.8753Z" fill="#4152F3"/>
<path d="M95.4603 72.18C100.958 69.7312 104.53 65.7902 106.835 62.0459C109.574 57.5961 110.909 52.5562 110.909 47.4688V40.9773C110.909 39.5053 110.021 38.1283 108.259 37.3076L95.6094 32.5729V28.2045L111.235 33.8007C112.875 34.5197 114.977 35.3065 114.977 37.1651V46.4242C114.977 52.8546 113.296 59.2241 109.832 64.8473C106.917 69.582 102.402 74.4523 95.4535 77.5523V72.18H95.4603Z" fill="#322FE6"/>
<path d="M95.4603 77.5532C94.3553 77.1802 93.3385 76.7528 92.3623 76.2237C89.7457 74.7993 87.5086 72.8321 85.8003 71.0617C83.8955 69.0742 82.4719 66.9307 81.2381 64.9297C77.7741 59.3064 76.093 52.937 76.2421 46.3302L76.2353 38.6855C76.2421 34.8802 78.1944 34.602 79.8349 33.883L95.6094 28.2123V32.5807L82.8176 37.3899C81.0551 38.2107 80.1671 39.5877 80.1671 41.0596V47.5512C80.1671 52.6386 81.4957 57.6785 84.2412 62.1282C86.546 65.8726 89.9626 69.7322 95.4603 72.1877V77.5532Z" fill="#86A8FF"/>
<path d="M91.4269 47.055L91.4066 45.8069C91.4066 43.5481 93.2436 41.7098 95.501 41.7098C97.7584 41.7098 99.5955 43.5481 99.5955 45.8001L99.6158 47.0753C100.721 47.2381 101.568 48.1878 101.568 49.3409V56.7075C101.568 57.9759 100.545 59.0002 99.2769 59.0002H91.6303C90.3626 59.0002 89.339 57.9759 89.339 56.7075V49.3342C89.3458 48.1403 90.2609 47.1567 91.4269 47.055ZM94.4164 54.8692H96.4162L96.1043 53.4244C96.4501 53.2074 96.6805 52.8275 96.6805 52.3866C96.6805 51.7151 96.1315 51.1656 95.4603 51.1656C94.7892 51.1656 94.2401 51.7151 94.2401 52.3866C94.2401 52.8071 94.4571 53.1802 94.7825 53.3973C94.6401 53.9671 94.4164 54.8692 94.4164 54.8692ZM92.3149 47.0414H98.7413L98.721 45.8001C98.721 44.0297 97.2771 42.5849 95.5078 42.5849C93.7385 42.5849 92.2946 44.0297 92.2946 45.7933L92.3149 47.0414Z" fill="#F5F7FC"/>
<path d="M108.354 46.9668C108.388 46.9736 108.496 46.4852 108.591 45.6848C108.686 44.8844 108.754 43.772 108.72 42.5442C108.699 41.9269 108.659 41.3436 108.605 40.8145C108.55 40.2854 108.455 39.7902 108.252 39.4171C108.049 39.0441 107.771 38.8202 107.561 38.7253C107.344 38.6235 107.215 38.6303 107.208 38.6439C107.181 38.6778 107.744 38.7863 108.076 39.5053C108.238 39.8513 108.313 40.3125 108.347 40.8348C108.388 41.3639 108.421 41.9405 108.435 42.551C108.469 43.7652 108.435 44.8708 108.388 45.6713C108.354 46.4649 108.313 46.9601 108.354 46.9668Z" fill="white"/>
<path d="M108.116 50.996C108.191 50.996 108.259 50.6162 108.272 50.1481C108.279 49.6801 108.225 49.2935 108.15 49.2935C108.076 49.2935 108.008 49.6733 107.994 50.1414C107.988 50.6094 108.042 50.9893 108.116 50.996Z" fill="white"/>
<path d="M180.874 29.5883V76.4941C180.874 77.9932 179.668 79.2006 178.17 79.2006H131.293C129.809 79.2006 128.589 77.9932 128.589 76.4941V29.5883C128.589 28.1028 129.802 26.8818 131.293 26.8818H178.17C179.668 26.8818 180.874 28.096 180.874 29.5883Z" fill="#4152F3"/>
<path d="M154.735 58.5933C160.017 58.5933 164.3 54.3082 164.3 49.0222C164.3 43.7362 160.017 39.4511 154.735 39.4511C149.452 39.4511 145.17 43.7362 145.17 49.0222C145.17 54.3082 149.452 58.5933 154.735 58.5933Z" fill="white"/>
<path d="M171.858 75.7344C171.858 76.9214 171.736 78.0746 171.513 79.1938H137.95C137.727 78.0678 137.605 76.9147 137.605 75.7344C137.605 66.2651 145.272 58.5933 154.735 58.5933C164.185 58.5933 171.858 66.2651 171.858 75.7344Z" fill="white"/>
<path d="M183.037 88.3104H126.433C126.209 88.3104 126.026 88.1272 126.026 87.9034V87.2047C126.026 86.9809 126.209 86.7977 126.433 86.7977H183.037C183.261 86.7977 183.444 86.9809 183.444 87.2047V87.9034C183.444 88.1272 183.261 88.3104 183.037 88.3104Z" fill="#4152F3"/>
<path d="M165.113 96.9183H144.35C144.126 96.9183 143.943 96.7351 143.943 96.5113V95.8126C143.943 95.5888 144.126 95.4056 144.35 95.4056H165.113C165.337 95.4056 165.52 95.5888 165.52 95.8126V96.5113C165.527 96.7283 165.344 96.9183 165.113 96.9183Z" fill="#C0D2FF"/>
<path d="M140.75 116.44C142.633 116.44 144.16 114.913 144.16 113.028C144.16 111.144 142.633 109.616 140.75 109.616C138.867 109.616 137.34 111.144 137.34 113.028C137.34 114.913 138.867 116.44 140.75 116.44Z" fill="#C0D2FF"/>
<path d="M151.325 113.028C151.325 114.914 152.851 116.44 154.735 116.44C156.62 116.44 158.145 114.914 158.145 113.028C158.145 111.143 156.62 109.616 154.735 109.616C152.851 109.623 151.325 111.149 151.325 113.028Z" fill="#C0D2FF"/>
<path d="M165.31 113.028C165.31 114.914 166.835 116.44 168.72 116.44C170.605 116.44 172.13 114.914 172.13 113.028C172.13 111.143 170.605 109.616 168.72 109.616C166.835 109.623 165.31 111.149 165.31 113.028Z" fill="#C0D2FF"/>
<path d="M164.429 151.123H75.6389C74.5204 151.123 73.612 150.214 73.612 149.095V119.255C73.612 118.136 74.5204 117.227 75.6389 117.227H164.429C165.547 117.227 166.456 118.136 166.456 119.255V149.095C166.456 150.214 165.554 151.123 164.429 151.123Z" fill="#C0D2FF"/>
<path d="M155.067 124.207H108.259V125.706H155.067V124.207Z" fill="white"/>
<path d="M155.067 132.672H108.259V134.172H155.067V132.672Z" fill="white"/>
<path d="M155.067 141.145H108.259V142.644H155.067V141.145Z" fill="white"/>
<path d="M93.184 144.782C99.4765 143.687 103.691 137.695 102.597 131.398C101.502 125.102 95.5144 120.885 89.2219 121.98C82.9293 123.075 78.7152 129.067 79.8093 135.363C80.9034 141.66 86.8914 145.876 93.184 144.782Z" fill="#FCA838"/>
<path d="M94.1149 142.763C99.2926 141.155 102.188 135.652 100.582 130.471C98.9753 125.29 93.4758 122.393 88.298 124.001C83.1203 125.608 80.2251 131.111 81.8314 136.292C83.4377 141.473 88.9372 144.37 94.1149 142.763Z" fill="#FDA218"/>
<path d="M96.2264 141.837C94.4232 141.993 92.5522 141.647 90.8304 140.738C86.0309 138.208 84.1938 132.272 86.7156 127.47C87.5901 125.801 88.8781 124.492 90.3898 123.597C87.1698 123.875 84.1464 125.733 82.533 128.806C80.0045 133.609 81.8483 139.544 86.6478 142.074C89.7729 143.729 93.386 143.519 96.2264 141.837Z" fill="#FC8000"/>
<path d="M94.1792 125.801C98.4161 128.033 100.036 133.276 97.8127 137.509C96.5112 139.985 94.1792 141.572 91.6168 142.013C94.6131 141.898 97.467 140.229 98.9652 137.387C101.195 133.147 99.5685 127.911 95.3384 125.679C93.5759 124.75 91.6439 124.492 89.8272 124.804C91.2914 124.75 92.7896 125.068 94.1792 125.801Z" fill="#FCA838"/>
<path d="M95.0672 134.979C95.1553 135.861 94.8571 136.634 94.1656 137.285C93.5962 137.828 92.8098 138.255 91.793 138.574L91.976 140.324C92.0303 140.826 91.7862 141.104 91.2507 141.158C91.0202 141.185 90.8236 141.111 90.6745 140.948C90.5592 140.812 90.4915 140.656 90.4711 140.48L90.3152 138.933C90.1322 138.96 89.9559 138.988 89.7865 139.001C88.851 139.096 88.1053 139.049 87.5562 138.852C87.0613 138.676 86.797 138.411 86.7631 138.065C86.6953 137.4 87.0274 137.027 87.7663 136.953C87.9562 136.932 88.2883 136.966 88.7628 137.061C89.2374 137.149 89.5356 137.19 89.6712 137.176C89.8 137.163 89.9492 137.136 90.1322 137.095L89.8136 134.009C88.9933 134.043 88.2815 133.941 87.6714 133.703C86.8783 133.398 86.4512 132.91 86.3835 132.232C86.3021 131.458 86.5665 130.719 87.1698 130C87.7053 129.362 88.3968 128.853 89.2441 128.494L89.1221 127.341C89.0679 126.791 89.2916 126.493 89.8068 126.445C90.2949 126.398 90.5728 126.642 90.627 127.192L90.7219 128.114C91.2507 128.094 91.8269 128.148 92.4506 128.29C93.2437 128.46 93.664 128.711 93.6979 129.037C93.725 129.301 93.6504 129.539 93.4809 129.742C93.3115 129.946 93.0878 130.068 92.8234 130.095C92.5997 130.115 92.2811 130.108 91.8744 130.061C91.4405 130.013 91.1219 130 90.9185 130.013L91.1422 132.164C91.21 132.157 91.2575 132.157 91.2981 132.157C92.3353 132.13 93.1827 132.333 93.8267 132.774C94.552 133.242 94.9655 133.988 95.0672 134.979ZM89.4407 130.454C88.7086 130.821 88.3629 131.221 88.4036 131.648C88.4442 132.014 88.851 132.211 89.6238 132.232L89.4407 130.454ZM91.5896 136.586C92.5726 136.125 93.0403 135.63 92.9861 135.108C92.9047 134.314 92.3489 133.914 91.3117 133.914L91.5896 136.586Z" fill="white"/>
<path d="M167.527 264.348C178.488 261.139 174.523 253.888 184.223 246.04C193.917 238.192 206.316 222.163 196.025 211.107C185.735 200.057 182.115 196.509 186.752 183.77C191.388 171.031 175.79 174.572 172.414 174.491C169.038 174.409 167.689 162.091 159.094 164.954C150.491 167.823 154.457 174.911 156.145 183.35C157.833 191.788 150.62 196.224 151.928 206.216C153.237 216.208 159.514 225.372 158.335 228.573C157.155 231.782 148.553 244.69 151.081 254.98C153.616 265.277 167.527 264.348 167.527 264.348Z" fill="#322FE6"/>
<path d="M142.146 238.619C132.365 231.192 139.11 226.972 134.981 224.361C130.846 221.743 109.852 202.254 123.342 196.604C136.832 190.954 128.487 199.724 140.038 199.304C151.589 198.883 148.383 211.873 149.99 214.912C151.596 217.951 164.327 213.481 163.48 226.22C162.639 238.958 156.647 250.347 156.647 250.347C156.647 250.347 148.505 256.364 146.465 251.711C144.424 247.051 142.146 238.619 142.146 238.619Z" fill="#4152F3"/>
<path d="M135.612 253.379C127.768 253.82 117.397 263.317 129.097 266.987C140.797 270.656 162.361 267.875 165.018 267.875C167.676 267.875 171.784 261.038 166.598 258.955C161.412 256.866 159.453 258.257 159.453 258.257C159.453 258.257 166.537 255.665 164.008 252.437C161.48 249.208 156.043 252.437 156.043 252.437C156.043 252.437 160.788 248.197 157.69 246.298C154.592 244.398 149.847 248.326 149.847 248.326C149.847 248.326 155.731 236.428 146.18 234.787C136.628 233.138 131.951 239.976 131.571 245.104C131.185 250.218 135.612 253.379 135.612 253.379Z" fill="#9FC3FC"/>
<path d="M154.626 261.228C154.443 261.228 154.267 261.126 154.179 260.949C154.05 260.699 154.152 260.393 154.403 260.271C154.504 260.217 164.957 254.79 171.045 242.608C176.495 231.707 174.658 224.442 169.215 202.865C168.516 200.104 167.764 197.113 166.957 193.85C166.889 193.579 167.059 193.307 167.33 193.24C167.601 193.172 167.872 193.341 167.94 193.613C168.747 196.869 169.499 199.86 170.198 202.621C175.709 224.469 177.566 231.829 171.953 243.062C165.71 255.557 154.972 261.119 154.864 261.173C154.782 261.214 154.701 261.228 154.626 261.228Z" fill="#9FC3FC"/>
<path d="M173.912 237.113C173.838 237.113 173.763 237.1 173.689 237.066C173.438 236.944 173.329 236.639 173.451 236.388C178.129 226.721 187.504 221.356 187.599 221.302C187.843 221.166 188.148 221.254 188.29 221.492C188.426 221.736 188.345 222.041 188.101 222.184C188.006 222.238 178.908 227.454 174.367 236.828C174.278 237.012 174.095 237.113 173.912 237.113Z" fill="#9FC3FC"/>
<path d="M172.719 215.577C172.584 215.577 172.455 215.522 172.353 215.421C166.727 209.594 161.277 207.898 161.222 207.878C160.958 207.796 160.802 207.511 160.883 207.247C160.965 206.982 161.243 206.826 161.514 206.908C161.744 206.976 167.269 208.705 173.079 214.715C173.275 214.919 173.268 215.238 173.065 215.434C172.977 215.529 172.848 215.577 172.719 215.577Z" fill="#9FC3FC"/>
<path d="M149.739 243.171C149.705 243.171 149.671 243.171 149.637 243.164C149.366 243.11 149.19 242.838 149.244 242.567C151.203 233.03 146.261 226.111 140.533 218.1C139.028 215.997 137.476 213.813 135.991 211.514C135.842 211.276 135.91 210.964 136.14 210.815C136.378 210.666 136.689 210.733 136.839 210.964C138.31 213.25 139.855 215.414 141.353 217.51C147.217 225.718 152.274 232.799 150.234 242.77C150.179 243.008 149.969 243.171 149.739 243.171Z" fill="#9FC3FC"/>
<path d="M149.047 232.209C148.817 232.209 148.614 232.053 148.559 231.822C148.492 231.524 146.878 224.469 150.186 218.629C150.322 218.385 150.634 218.297 150.878 218.439C151.122 218.575 151.21 218.887 151.067 219.131C147.963 224.619 149.529 231.524 149.542 231.599C149.603 231.87 149.441 232.141 149.163 232.209C149.122 232.202 149.081 232.209 149.047 232.209Z" fill="#9FC3FC"/>
<path d="M140.33 217.449C140.262 217.449 140.187 217.435 140.12 217.401C140.059 217.374 134.276 214.763 130.711 214.953C130.453 214.993 130.195 214.756 130.175 214.478C130.161 214.2 130.372 213.962 130.65 213.942C134.452 213.738 140.289 216.37 140.533 216.479C140.784 216.594 140.899 216.893 140.784 217.15C140.703 217.34 140.52 217.449 140.33 217.449Z" fill="#9FC3FC"/>
<path d="M209 3.96817V17.4328H68.0127L76.2693 0H205.034C207.217 0 209 1.78398 209 3.96817Z" fill="#322FE6"/>
<path d="M76.2692 0L68.0125 17.4328H10.3852V3.96817C10.3852 1.78398 12.168 0 14.3508 0H76.2692Z" fill="#F5F7FC"/>
<path d="M24.0583 8.71642C24.0583 10.6021 25.5835 12.1284 27.468 12.1284C29.3526 12.1284 30.8778 10.6021 30.8778 8.71642C30.8778 6.83069 29.3526 5.30447 27.468 5.30447C25.5835 5.30447 24.0583 6.83748 24.0583 8.71642Z" fill="#E8505B"/>
<path d="M38.0431 8.71642C38.0431 10.6021 39.5683 12.1284 41.4529 12.1284C43.3374 12.1284 44.8627 10.6021 44.8627 8.71642C44.8627 6.83069 43.3374 5.30447 41.4529 5.30447C39.5683 5.31126 38.0431 6.83748 38.0431 8.71642Z" fill="#64E551"/>
<path d="M52.0212 8.71642C52.0212 10.6021 53.5465 12.1284 55.431 12.1284C57.3155 12.1284 58.8408 10.6021 58.8408 8.71642C58.8408 6.83069 57.3155 5.30447 55.431 5.30447C53.5465 5.31126 52.0212 6.83748 52.0212 8.71642Z" fill="#FDA218"/>
<path d="M27.0615 292.478L2.75239 279.407C1.83724 278.918 1.42373 277.833 1.77623 276.863C2.19652 275.71 3.40994 273.22 5.26058 271.321C5.54529 270.602 6.84684 267.373 8.8195 262.476C12.697 265.331 16.5745 268.248 20.5809 270.928L19.0285 273.783L16.8593 277.765C16.8593 277.765 18.4116 280.858 20.9334 284.012C22.8993 286.468 25.4481 288.957 28.3088 290.049C28.6749 290.185 28.9596 290.497 29.0138 290.884C29.0816 291.406 28.9596 292.111 27.9631 292.539C27.6784 292.661 27.3394 292.627 27.0615 292.478Z" fill="#FDB2D0"/>
<path d="M24.1669 292.512C24.1669 292.512 18.6963 289.575 13.0224 286.38C6.96203 282.974 0.671216 279.278 0.569533 278.565C0.359387 277.188 4.15557 272.528 4.15557 272.528C6.10789 275.981 9.07026 278.233 12.236 280.397C14.2222 281.76 16.2898 283.083 18.2218 284.643C19.6182 285.776 21.6587 286.034 23.2992 285.294C24.96 286.624 26.3564 288.069 28.0173 289.398C28.363 289.676 28.7087 289.954 28.9595 290.321C29.2104 290.687 29.3527 291.148 29.2307 291.576C29.0816 292.105 28.5731 292.451 28.0647 292.661C26.8242 293.163 25.3667 293.109 24.1669 292.512Z" fill="#05009F"/>
<path d="M20.9401 284.006C16.5609 282.133 12.941 278.993 12.3648 276.89C11.7411 274.624 13.3342 271.436 16.7914 272.922C17.6184 273.275 18.3709 273.546 19.0352 273.783L16.866 277.765C16.866 277.758 18.4183 280.851 20.9401 284.006Z" fill="#FCCDE0"/>
<path d="M24.1668 292.512C24.1668 292.512 18.6963 289.574 13.0224 286.38C12.9071 284.514 12.6902 282.133 12.2292 280.39C14.2154 281.753 16.283 283.076 18.215 284.636C19.6114 285.769 21.6519 286.027 23.2924 285.288C24.9532 286.617 26.3496 288.062 28.0105 289.391C28.3562 289.669 28.7019 289.948 28.9527 290.314C29.2036 290.68 29.3459 291.141 29.2239 291.569C29.0748 292.098 28.5663 292.444 28.0579 292.654C26.8242 293.163 25.3667 293.109 24.1668 292.512Z" fill="#4152F3"/>
<path d="M57.6477 204.364C57.1325 213.487 56.2106 221.363 55.0039 224.171C54.8819 224.456 54.7192 224.809 54.5091 225.216V225.236C53.7498 226.816 52.5229 229.17 50.9434 231.985C42.707 246.813 25.8005 274.679 25.8005 274.679L13.9781 271.477L13.551 271.355L12.6291 271.09L6.72466 269.49L0 267.685C0 267.685 29.5492 224.171 31.1897 215.889C32.254 210.476 33.2166 199.711 33.5691 187.365C33.7521 180.847 33.7724 173.894 33.5284 167.063C33.5284 167.063 52.916 158.72 56.1699 165.035C58.2578 169.037 58.5493 188.6 57.6477 204.364Z" fill="#FDA218"/>
<path d="M54.509 225.222V225.243C53.7498 226.823 52.5228 229.177 50.9433 231.992C42.707 246.813 25.8004 274.679 25.8004 274.679L13.978 271.477C23.0143 262.042 49.0385 234.156 54.0413 219.904C54.0413 219.911 54.3057 222 54.509 225.222Z" fill="#FCA838"/>
<path d="M57.6476 204.364C57.1256 213.501 56.2105 221.356 55.0106 224.178C54.3734 225.663 52.9091 228.451 50.9365 231.992C49.9535 224.266 49.5671 210.544 57.6476 204.364Z" fill="#FE5900"/>
<path d="M42.5647 221.139C39.0871 227.122 19.9096 260.325 13.551 271.355L12.6155 271.104C18.8453 260.305 38.2669 226.694 41.7648 220.678C44.578 215.828 43.7374 204.323 42.7545 191.008C42.3071 184.876 41.8461 178.54 41.697 172.3L42.6325 172.28C42.7816 178.5 43.2426 184.822 43.69 190.933C44.6797 204.405 45.527 216.045 42.5647 221.139Z" fill="#FE5900"/>
<path d="M38.6668 217.612C36.945 224.707 19.8757 251.69 6.71788 269.489L0 267.685C0 267.685 29.5492 224.171 31.1897 215.889C32.254 210.476 33.2166 199.711 33.5691 187.365C36.0908 196.529 39.9819 212.199 38.6668 217.612Z" fill="#F9930D"/>
<path d="M94.2605 290.782L66.6704 291.521C65.6333 291.548 64.7384 290.816 64.5622 289.798C64.352 288.591 64.1758 285.823 64.8333 283.253C64.7249 282.486 64.2504 274.774 63.5318 269.53C68.3177 270.08 73.3476 270.907 78.1607 271.246L78.0047 278.545L78.0996 283.076C78.0996 283.076 80.9807 284.989 84.7362 286.475C87.6579 287.628 91.1083 288.523 94.1317 288.048C94.5181 287.987 94.9181 288.109 95.1553 288.421C95.4739 288.835 95.718 289.514 95.0672 290.382C94.8842 290.633 94.5791 290.775 94.2605 290.782Z" fill="#FDB2D0"/>
<path d="M91.7658 292.254C91.7658 292.254 85.5563 292.423 79.0486 292.471C72.1002 292.525 64.8062 292.444 64.3588 291.881C63.4911 290.789 64.474 284.86 64.474 284.86C67.8838 286.888 71.5715 287.363 75.388 287.668C77.7877 287.865 80.2349 287.987 82.6957 288.381C84.4717 288.666 86.3698 287.879 87.4205 286.42C89.522 286.753 91.454 287.309 93.5487 287.635C93.9825 287.702 94.4299 287.77 94.8231 287.96C95.223 288.15 95.5755 288.482 95.6772 288.91C95.8128 289.446 95.5417 289.995 95.2027 290.429C94.3892 291.494 93.1012 292.173 91.7658 292.254Z" fill="#05009F"/>
<path d="M84.7362 286.475C80.0046 287.024 75.3068 286.102 73.7612 284.562C72.0936 282.9 71.897 279.346 75.6322 278.911C76.527 278.81 77.3134 278.667 78.0048 278.545L78.0997 283.076C78.0997 283.076 80.9875 284.996 84.7362 286.475Z" fill="#FCCDE0"/>
<path d="M91.7658 292.254C91.7658 292.254 85.5564 292.423 79.0486 292.471C78.025 290.911 76.6557 288.95 75.388 287.668C77.7877 287.865 80.2349 287.987 82.6957 288.381C84.4717 288.666 86.3698 287.879 87.4206 286.42C89.522 286.753 91.454 287.309 93.5487 287.635C93.9825 287.702 94.4299 287.77 94.8231 287.96C95.2231 288.15 95.5756 288.482 95.6772 288.91C95.8128 289.446 95.5417 289.995 95.2027 290.429C94.3893 291.494 93.1013 292.172 91.7658 292.254Z" fill="#4152F3"/>
<path d="M85.4547 219.911C84.187 241.936 80.2892 276.239 80.2892 276.239H59.4305C59.4305 276.239 61.5998 223.086 57.8714 206.582C54.1226 190.052 29.5288 187.555 29.0611 164.811C29.0611 164.811 38.0363 162.681 47.4048 160.999C47.7098 160.938 48.0216 160.897 48.347 160.836C50.6044 160.45 52.8753 160.077 55.031 159.792C62.3658 158.747 68.3312 158.503 68.1482 160.45C67.8431 163.875 75.7948 176.831 81.1433 189.36C83.5837 195.078 85.4682 200.721 85.7529 205.314C85.9495 208.529 85.8004 213.738 85.4547 219.911Z" fill="#FCA838"/>
<path d="M73.734 252.844C73.734 261.004 75.2321 270.521 75.5575 276.239H59.4305C59.4305 276.239 59.5525 273.471 59.6745 269.021C59.6745 269.001 59.6745 269.001 59.6745 269.001C60.1016 253.888 60.7388 219.314 57.8714 206.582C54.1226 190.052 29.5288 187.555 29.0611 164.811C29.0611 164.811 33.3657 163.787 39.1209 162.62C41.6834 162.084 44.5305 161.515 47.398 160.999C47.703 160.938 48.0149 160.897 48.3402 160.836C50.5976 160.45 52.8685 160.077 55.0242 159.792C55.4513 160.036 55.6818 160.178 55.6818 160.178C53.6346 172.748 57.729 180.046 66.0535 188.763C74.3712 197.479 78.086 210.951 77.8352 217.612C77.564 224.259 73.734 241.95 73.734 252.844Z" fill="#FDA218"/>
<path d="M63.4233 243.449C62.7047 249.601 61.0642 260.305 59.6746 269.001C60.1016 253.888 60.7388 219.314 57.8714 206.582C54.1226 190.051 29.5288 187.555 29.0611 164.811C29.0611 164.811 33.3657 163.787 39.121 162.62C47.52 187.413 63.0979 187.942 63.4233 199.697C63.7758 211.995 64.7791 231.822 63.4233 243.449Z" fill="#F9930D"/>
<path d="M69.0022 180.467C68.8531 180.467 68.7039 180.392 68.6158 180.263C68.5684 180.189 63.8367 173.175 61.0099 171.025C60.8065 170.869 60.7659 170.577 60.9218 170.367C61.0777 170.163 61.3692 170.123 61.5793 170.279C64.5281 172.524 69.1988 179.449 69.3954 179.741C69.5377 179.958 69.4835 180.243 69.2666 180.392C69.1852 180.44 69.0971 180.467 69.0022 180.467Z" fill="#FE5900"/>
<path d="M85.4479 219.918C80.2417 212.904 77.7403 200.409 81.123 189.353C83.5634 195.085 85.4479 200.721 85.7462 205.327C85.9563 208.529 85.8072 213.732 85.4479 219.918Z" fill="#FE5900"/>
<path d="M70.5953 276.232H69.6598C70.663 263.188 74.1203 214.654 70.6698 204.785C69.1107 200.335 65.8771 195.546 62.1284 190.004C56.5155 181.701 50.184 172.347 47.4114 160.999C47.7165 160.945 48.0283 160.884 48.3334 160.83C51.072 171.995 57.3357 181.261 62.9012 189.482C66.6838 195.085 69.958 199.914 71.5443 204.479C75.0964 214.641 71.6324 262.951 70.5953 276.232Z" fill="#FE5900"/>
<path d="M75.6592 111.231C75.6592 111.231 58.6916 125.197 46.11 133.073C41.236 136.105 37.0127 138.241 34.6943 138.282C33.1555 138.303 31.9489 138.16 30.9456 137.936C29.2238 137.529 28.1595 136.851 27.1765 136.356C26.9122 136.213 26.6613 136.091 26.4173 135.989C25.1496 135.474 23.7125 135.393 20.9061 136.647C14.0594 139.68 10.7852 132.442 13.4289 124.343C16.0727 116.223 20.9874 110.315 19.6587 102.277C18.3436 94.2593 20.357 88.2494 22.9397 83.7385C25.5021 79.2074 22.1602 75.4766 24.4175 71.6577C26.6749 67.8455 24.7226 66.9027 34.2334 54.2656C36.7551 50.9418 39.026 48.8322 41.08 47.557C46.7946 43.9687 50.7128 46.8583 52.7601 47.7198C61.0168 45.6916 67.9448 51.2267 66.7788 59.6311C66.4941 61.6389 66.5755 63.4636 66.8398 65.1865C67.7211 70.7419 70.6496 75.0696 70.6089 79.5194C70.5276 85.3665 73.2527 91.7427 74.9542 94.7137C76.493 97.3388 75.1169 98.7362 75.4694 101.354C75.4897 101.7 75.571 102.053 75.6727 102.419C76.5811 105.777 75.6592 111.231 75.6592 111.231Z" fill="#05009F"/>
<path d="M71.8087 109.345C71.8155 109.162 71.8223 108.979 71.8223 108.789C71.8968 99.9911 64.8264 91.9802 62.6165 85.4615C60.3592 78.814 66.6839 62.7785 64.379 57.9082C62.0742 53.0379 49.3909 60.73 47.4725 70.2129C45.5541 79.6958 49.0113 95.5888 53.7497 102.128C58.4882 108.66 71.8087 109.345 71.8087 109.345Z" fill="#040078"/>
<path d="M63.4233 163.312C62.8675 163.414 62.3184 163.597 61.7828 163.868C57.9528 165.835 55.9801 163.665 52.4822 162.824L52.4619 162.803C50.6383 162.376 48.3606 162.288 45.2084 163.36C35.9688 166.5 26.6207 170.923 25.1023 166.351C23.5838 161.799 29.8949 151.896 28.9527 146.151C28.5663 143.729 27.868 135.983 27.6647 127.327C27.3596 115.416 27.9901 101.877 31.6371 98.3292C37.9483 92.1972 51.4518 91.6003 55.7157 92.9976C70.1412 97.7323 71.7207 108.477 72.5409 117.749C72.7036 119.594 72.8053 122.199 72.907 125.231C72.968 127.816 73.029 130.726 73.09 133.765V134.131C73.2934 145.14 73.4561 157.546 74.2763 161.915C75.4559 168.318 69.0024 162.227 63.4233 163.312Z" fill="#4152F3"/>
<path d="M55.9461 97.5084C55.2478 100.934 53.6277 101.341 47.9741 99.7401C47.9334 99.7198 47.8927 99.7198 47.8521 99.6994C42.8289 98.2614 44.8016 84.9121 45.371 81.534C45.4523 81.0389 45.5134 80.754 45.5134 80.754L47.5809 81.3305H47.6013L54.1361 83.1145L55.2411 83.4198C55.2207 83.5826 55.1801 83.7657 55.1597 83.9353C55.058 84.756 55.0174 85.5361 54.997 86.2958C54.9225 91.1322 56.5426 94.6188 55.9461 97.5084Z" fill="#FDB2D0"/>
<path d="M55.1665 83.9353C55.0648 84.756 55.0241 85.5361 55.0038 86.2958C51.8448 90.2708 48.591 93.7166 48.2385 96.552C48.0961 97.7594 48.0148 98.8719 47.9741 99.7537C47.9334 99.7333 47.8927 99.7333 47.8521 99.713C42.8289 98.275 44.8016 84.9256 45.371 81.5476C45.9675 81.4051 46.6793 81.3441 47.5809 81.3441H47.6013C50.7195 81.3237 52.8074 82.2259 54.1361 83.1281C54.5496 83.3791 54.9021 83.6707 55.1665 83.9353Z" fill="#FE93BC"/>
<path d="M62.6031 64.3928C62.4811 71.1828 61.0236 87.4218 51.2688 85.9023C49.73 85.6581 48.4013 85.1019 47.276 84.2812C41.2292 80.0145 40.5107 68.863 40.0633 62.7513C40.0633 62.7513 44.5102 56.6804 49.0589 51.8846C52.7262 48.0318 58.529 52.0678 60.6372 53.7704C61.1524 54.1977 61.4371 54.469 61.4371 54.469C61.4371 54.469 62.5217 57.1145 62.5828 62.7717C62.6234 63.2872 62.6234 63.8163 62.6031 64.3928Z" fill="#FDB2D0"/>
<path d="M73.0968 133.765C71.7206 134.382 70.1073 134.789 68.2227 134.809C59.6339 134.931 44.1441 126.337 43.1205 118.672L72.9137 125.231C72.9747 127.816 73.0357 130.733 73.0968 133.765Z" fill="#05009F"/>
<path d="M52.4619 162.803C50.6383 162.376 48.3606 162.288 45.2085 163.36C35.9688 166.5 26.6207 170.923 25.1023 166.351C23.5838 161.8 29.8949 151.896 28.9527 146.151C28.5663 143.729 27.868 135.983 27.6647 127.327C29.7322 125.971 31.21 125.007 31.6778 124.6C33.542 122.979 45.344 123.739 45.344 123.739C45.161 132.374 50.7943 140.059 46.693 144.801C42.5918 149.556 37.8601 154.196 37.9821 158.971C38.1042 163.767 45.5406 160.694 50.2791 161.718C51.3162 161.942 51.9873 162.329 52.4619 162.803Z" fill="#322FE6"/>
<path d="M71.8088 129.702C63.0979 132.367 53.7566 130.461 47.8928 126.113C45.9473 124.655 44.6525 123.101 43.8933 121.501C41.3919 116.128 44.9779 110.43 49.4249 107.371C50.984 106.306 52.6448 105.567 54.1769 105.302C55.4242 105.079 56.841 105.14 58.3188 105.363H58.3391C62.0268 105.899 66.2094 107.371 69.9175 107.683L70.4123 113.32L71.5579 126.792L71.8088 129.702Z" fill="#4152F3"/>
<path d="M104.449 66.2583C102.707 67.6353 100.517 69.1276 98.6532 71.0336C97.8533 71.8544 97.1144 72.7362 96.5043 73.6994C96.0095 74.4999 95.8671 75.8701 95.8468 77.7829C95.8061 83.7318 96.7077 95.0258 90.1932 111.699C90.1728 111.719 90.1728 111.74 90.1728 111.74C89.0069 114.711 87.5901 117.295 85.9699 119.513C82.0788 124.865 77.0557 128.128 71.8088 129.701L71.2326 122.973L70.4124 113.313L69.9175 107.676C73.3409 107.941 76.3507 107.229 78.2556 103.905C81.3467 98.4716 84.587 86.0448 89.5695 75.4631C91.6168 71.0743 93.9758 67.018 96.7416 63.8977C97.6432 62.8938 98.5651 61.9713 99.5481 61.1912C110.923 52.0882 102.049 61.6661 101.887 62.0527V62.073C101.887 62.1341 101.988 62.2155 102.131 62.3172C102.151 62.3376 102.151 62.3579 102.171 62.3579C103.202 63.043 106.564 64.6371 104.449 66.2583Z" fill="#FDB2D0"/>
<path d="M104.449 66.2583C102.707 67.6353 100.517 69.1276 98.6531 71.0337C99.209 69.8263 100.233 68.4289 101.399 67.2622C103.486 65.173 102.775 63.1991 102.178 62.358C103.202 63.0431 106.564 64.6371 104.449 66.2583Z" fill="#FCCDE0"/>
<path d="M96.7483 63.9045C97.6499 62.9006 98.5718 61.9781 99.5548 61.198C110.93 52.095 102.056 61.6729 101.893 62.0595C101.338 61.5847 103.758 59.1292 102.612 59.4548C101.622 59.7193 99.3311 63.796 96.7483 63.9045Z" fill="#FCCDE0"/>
<path d="M90.1863 111.699C91.4539 107.147 92.7283 102.223 93.3249 98.7769C94.5722 91.641 94.1248 85.0613 95.8466 77.7762C95.8059 83.7318 96.7075 95.0258 90.1863 111.699Z" fill="#FCCDE0"/>
<path d="M89.5763 75.4631C87.1766 84.5051 85.353 95.1886 82.6889 102.759C79.8215 110.96 72.3783 112.927 70.4124 113.32L69.9175 107.683C73.3409 107.948 76.3507 107.236 78.2556 103.912C81.3535 98.4717 84.5938 86.0449 89.5763 75.4631Z" fill="#FE93BC"/>
<path d="M85.9699 119.513C82.0789 124.865 77.0557 128.128 71.8088 129.701L71.558 126.791C77.5234 125.849 79.0419 125.448 85.9699 119.513Z" fill="#FE93BC"/>
<path d="M71.8089 129.701C63.098 132.367 53.7567 130.461 47.8929 126.113C45.9474 124.655 44.6526 123.101 43.8934 121.501C54.7735 125.747 58.4002 126.629 71.558 126.792L71.8089 129.701Z" fill="#322FE6"/>
<path d="M70.4124 113.32C64.4063 113.137 62.5421 107.968 58.3391 105.363C62.0269 105.899 66.2094 107.371 69.9175 107.683L70.4124 113.32Z" fill="#86A8FF"/>
<path d="M49.6553 88.4868C48.6317 94.3949 42.951 97.8815 43.9 110.959C44.3339 116.888 45.5812 124.004 45.9676 129.925C46.0489 131.011 46.0896 132.076 46.11 133.066C46.1506 138.642 44.9847 142.481 40.8021 141.986C36.5178 141.47 33.6504 139.483 30.9456 137.923C29.6779 137.163 28.4238 136.505 27.0952 136.139C26.8715 136.078 26.641 136.017 26.4173 135.976C24.8175 135.65 23.0549 135.772 20.906 136.634C12.7307 139.917 23.7125 112.086 23.7125 112.086L33.8131 85.2037L35.4129 82.721L41.3986 73.4756C41.785 80.2248 50.6586 82.5583 49.6553 88.4868Z" fill="#05009F"/>
<path d="M63.4234 163.312C63.6674 163.048 63.9792 162.837 64.3656 162.675C69.0973 160.748 67.8296 161.711 68.9956 153.51C70.1209 145.472 73.0968 140.263 73.0968 134.131C73.3002 145.14 73.4629 157.546 74.2831 161.915C75.4559 168.318 69.0024 162.227 63.4234 163.312Z" fill="#86A8FF"/>
<path d="M62.603 64.3929C62.481 71.1828 61.0235 87.4218 51.2687 85.9024C49.7299 85.6582 48.4012 85.1019 47.2759 84.2812C49.94 84.756 54.6717 85.0409 57.607 82.0427C61.8506 77.6743 62.481 67.2554 62.5895 62.7649C62.6234 63.2872 62.6234 63.8163 62.603 64.3929Z" fill="#FCCDE0"/>
<path d="M75.4558 101.368C74.8186 100.425 74.3712 98.9871 74.4322 97.5966C74.5745 94.0896 68.3854 87.7745 69.2463 82.0562C70.0666 76.5212 66.9076 73.1567 66.8263 65.8783V65.2C67.7075 70.7554 70.636 75.0831 70.5953 79.5329C70.514 85.38 73.2391 91.7562 74.9406 94.7273C76.4794 97.3456 75.1033 98.7429 75.4558 101.368Z" fill="#322FE6"/>
<path d="M49.6554 88.4868C48.6318 94.3949 42.9511 97.8815 43.9001 110.959C44.3339 116.888 45.5813 124.004 45.9677 129.925C43.7103 126.954 41.358 123.468 40.9648 117.376C40.2259 105.831 43.751 97.3863 46.9303 92.0344C50.1096 86.7028 38.6329 83.2773 41.3987 73.4756C41.7851 80.2248 50.6587 82.5583 49.6554 88.4868Z" fill="#322FE6"/>
<path d="M39.3446 71.366C37.6025 72.8854 36.3348 77.3759 35.4129 82.7278C34.2876 89.3686 33.7114 97.3252 33.4877 102.636C33.0606 112.214 26.8918 111 26.2139 124.6C25.9496 129.932 26.0512 133.52 27.0952 136.145C27.1155 136.227 27.1359 136.288 27.1765 136.349C26.9122 136.206 26.6613 136.084 26.4173 135.983C24.8175 135.657 23.055 135.779 20.9061 136.641C14.0594 139.673 10.7852 132.435 13.4289 124.336C16.0727 116.216 20.9874 110.308 19.6587 102.27C18.3436 94.2525 20.357 88.2425 22.9397 83.7317C25.5021 79.2005 22.1602 75.4698 24.4175 71.6509C26.6749 67.8387 24.7226 66.8958 34.2334 54.2587C36.7551 50.935 39.026 48.8254 41.08 47.5502C40.836 49.0696 43.7848 51.2809 39.6633 57.128C33.8334 65.3764 43.2425 67.9608 39.3446 71.366Z" fill="#040078"/>
<path d="M43.7306 73.7876C43.7306 73.7876 42.9714 73.7672 41.8868 73.5841C39.7989 73.2178 36.5382 72.2274 35.3926 69.6702C34.4707 67.6217 35.1079 65.9598 36.5992 65.0373C36.5992 65.0373 36.6196 65.0169 36.6399 64.9966C37.9686 64.1961 39.9412 63.9519 42.0495 64.5217L43.7306 73.7876Z" fill="#FDB2D0"/>
<path d="M62.5828 62.7717C56.4953 62.1137 53.072 56.9653 52.6246 53.1735C52.6246 53.1735 57.2139 53.2549 60.6372 53.7704C61.1524 54.1977 61.4371 54.4691 61.4371 54.4691C61.4371 54.4691 62.5218 57.1145 62.5828 62.7717Z" fill="#FE93BC"/>
<path d="M64.9418 60.7842C64.9418 60.7842 64.386 60.7639 63.5047 60.6621C60.5356 60.3162 53.8312 58.8578 52.6246 53.1803C52.2789 60.479 45.7169 65.4036 38.8296 65.8716C38.8296 65.8716 38.6059 58.0371 44.795 51.9457C49.8995 46.9398 57.8715 47.6995 61.8032 51.1657C62.6438 51.8847 63.3014 52.7462 63.7081 53.7094C65.9858 59.1427 64.9418 60.7842 64.9418 60.7842Z" fill="#05009F"/>
<path d="M52.6246 53.1735C52.2789 60.4722 45.7169 65.3968 38.8295 65.8648C44.2866 64.2097 52.4212 54.8557 52.6246 53.1735Z" fill="#322FE6"/>
<path d="M64.9418 60.7842C64.9418 60.7842 64.386 60.7639 63.5047 60.6621C63.525 57.8946 63.2607 53.9332 61.8032 51.1657C62.6438 51.8847 63.3013 52.7462 63.7081 53.7094C65.9858 59.1427 64.9418 60.7842 64.9418 60.7842Z" fill="#322FE6"/>
<path d="M41.8868 73.5773C39.7989 73.211 36.5382 72.2207 35.3926 69.6634C34.4707 67.6149 35.1079 65.953 36.5992 65.0305C34.4503 68.3746 36.4569 70.7284 39.6497 71.8815C41.0259 72.3699 41.7241 72.9872 41.8868 73.5773Z" fill="#FCCDE0"/>
</svg>
