<svg width="264" height="257" viewBox="0 0 264 257" fill="none" xmlns="http://www.w3.org/2000/svg">
<g clip-path="url(#clip0_1_4)">
<path d="M217.42 228.233L140.25 227.876C130.971 227.833 123.48 220.248 123.517 210.937L124.334 16.7975C124.377 7.47996 131.942 -0.0431331 141.227 3.22389e-05L218.397 0.357688C227.676 0.400853 235.167 7.98561 235.13 17.297L234.313 211.436C234.27 220.754 226.711 228.277 217.42 228.233Z" fill="#040078"/>
<path d="M217.881 7.15924L202.918 7.09141C200.914 7.08525 161.229 6.90025 159.22 6.88792L153.96 6.86325L140.864 6.80159C134.363 6.77075 129.066 12.0369 129.035 18.5672L128.236 208.057C128.212 214.581 133.453 219.89 139.955 219.921L216.972 220.279C223.473 220.309 228.77 215.043 228.801 208.513L229.6 19.0235C229.631 12.4994 224.383 7.19007 217.881 7.15924Z" fill="white"/>
<path d="M211.416 69.9094H150.696C149.707 69.9094 148.902 69.1016 148.902 68.1088V49.7573C148.902 48.7645 149.707 47.9567 150.696 47.9567H211.416C212.405 47.9567 213.21 48.7645 213.21 49.7573V68.1088C213.204 69.1016 212.405 69.9094 211.416 69.9094Z" fill="#FC8000"/>
<path d="M211.416 68.3925H150.696C149.707 68.3925 148.902 67.5846 148.902 66.5918V48.2404C148.902 47.2476 149.707 46.4398 150.696 46.4398H211.416C212.405 46.4398 213.21 47.2476 213.21 48.2404V66.5918C213.204 67.5846 212.405 68.3925 211.416 68.3925Z" fill="#FDA218"/>
<path d="M161.622 57.9526C161.561 57.9526 161.401 57.9403 161.155 57.9156C161.131 58.4398 161.125 59.3031 161.125 60.4994C161.125 60.6967 161.057 60.8694 160.916 61.0112C160.78 61.153 160.602 61.227 160.393 61.227C160.184 61.227 160.006 61.153 159.865 61.0112C159.723 60.8694 159.656 60.6967 159.656 60.4994V58.9331C159.656 58.3534 159.693 57.4963 159.766 56.3555C159.84 55.2024 159.877 54.3391 159.877 53.7656C159.877 52.7913 160.154 52.3288 160.694 52.3658C160.823 52.3349 160.996 52.3041 161.217 52.2918C161.438 52.2733 161.714 52.2671 162.034 52.2671C162.765 52.2671 163.454 52.5076 164.093 52.9824C164.805 53.5127 165.162 54.1602 165.162 54.9249C165.162 55.8807 164.781 56.6453 164.025 57.2126C163.349 57.7059 162.55 57.9526 161.622 57.9526ZM161.899 53.7162C161.776 53.7162 161.671 53.7162 161.579 53.7162C161.487 53.7162 161.413 53.7224 161.346 53.7286C161.346 53.9074 161.346 54.1664 161.34 54.5179C161.333 54.931 161.297 55.5785 161.235 56.4603C161.426 56.4912 161.555 56.5035 161.616 56.5035C162.2 56.5035 162.679 56.3678 163.066 56.0903C163.478 55.7943 163.681 55.4059 163.681 54.9187C163.681 54.598 163.49 54.3206 163.103 54.0739C162.741 53.8334 162.335 53.7162 161.899 53.7162Z" fill="white"/>
<path d="M170.809 61.3935C170.637 61.3935 170.367 61.227 169.992 60.894C169.648 61.0605 169.347 61.1838 169.089 61.2701C168.824 61.3565 168.603 61.3935 168.425 61.3935C167.528 61.3935 166.852 61.153 166.403 60.672C165.955 60.191 165.727 59.4695 165.727 58.5076C165.727 57.6072 166.059 56.8364 166.723 56.1951C167.386 55.5538 168.179 55.2332 169.107 55.2332C169.464 55.2332 169.869 55.3318 170.336 55.5353C170.901 55.7758 171.178 56.0533 171.178 56.374C171.178 56.5096 171.135 56.6268 171.049 56.7254C171.012 56.8734 170.981 57.0584 170.963 57.2866C170.944 57.5086 170.932 57.7737 170.932 58.0759C170.932 58.785 170.981 59.2907 171.086 59.6052C171.098 59.636 171.184 59.8334 171.344 60.1848C171.491 60.5055 171.565 60.6843 171.565 60.7275C171.565 60.9248 171.491 61.0851 171.338 61.2146C171.184 61.3256 171.012 61.3935 170.809 61.3935ZM169.427 57.6072C169.427 57.4901 169.433 57.3483 169.451 57.1941C169.47 57.0399 169.494 56.8673 169.525 56.6761C169.451 56.6391 169.384 56.6144 169.328 56.5959C169.273 56.5774 169.224 56.5713 169.181 56.5713C168.671 56.5713 168.228 56.7686 167.847 57.1694C167.466 57.5703 167.276 58.0266 167.276 58.5507C167.276 59.0502 167.368 59.4264 167.546 59.6792C167.724 59.932 167.995 60.0553 168.351 60.0553C168.585 60.0553 168.8 60.0183 169.009 59.9382C169.218 59.8642 169.408 59.747 169.593 59.599C169.482 58.7111 169.427 58.0451 169.427 57.6072Z" fill="white"/>
<path d="M177.913 56.3431C177.507 57.1941 176.862 58.5261 175.984 60.3452C175.504 61.3195 175.142 62.1335 174.89 62.7748C174.81 63.0091 174.687 63.3483 174.521 63.8107C174.386 64.1622 174.146 64.3349 173.802 64.3349C173.587 64.3349 173.403 64.2671 173.243 64.1252C173.083 63.9896 173.003 63.8107 173.003 63.6011C173.003 63.2558 173.396 62.2198 174.189 60.5055C173.777 59.6915 173.126 58.4952 172.235 56.9166C172.143 56.7748 172.057 56.633 171.958 56.485C171.86 56.3123 171.805 56.1582 171.805 56.0102C171.805 55.8067 171.885 55.6278 172.044 55.4798C172.204 55.3257 172.389 55.2517 172.598 55.2517C172.843 55.2517 173.034 55.3442 173.175 55.5292C173.704 56.2383 174.324 57.299 175.025 58.7234C175.424 57.8354 175.664 57.2989 175.75 57.1201C176.014 56.5651 176.272 56.0718 176.53 55.6525C176.69 55.3812 176.911 55.2455 177.188 55.2455C177.397 55.2455 177.581 55.3195 177.747 55.4613C177.913 55.6032 177.993 55.7758 177.993 55.9855C178.005 56.0903 177.975 56.2075 177.913 56.3431Z" fill="white"/>
<path d="M180.131 56.115C180.697 55.4613 181.225 55.1345 181.729 55.1345C182.301 55.1345 182.725 55.3565 182.995 55.7943C183.222 55.5908 183.474 55.4428 183.751 55.338C184.027 55.2393 184.322 55.1838 184.648 55.1838C185.379 55.1838 185.877 55.5477 186.135 56.2753C186.184 56.4233 186.264 56.9351 186.375 57.7984C186.479 58.4027 186.614 59.414 186.78 60.8323C186.793 61.0482 186.725 61.2208 186.559 61.3627C186.399 61.4983 186.209 61.5723 185.994 61.5723C185.564 61.5723 185.312 61.3565 185.238 60.931C185.17 60.5425 185.103 59.9999 185.029 59.2969C184.955 58.5261 184.894 57.9773 184.845 57.6566C184.746 56.9845 184.617 56.6515 184.457 56.6515C184.371 56.6515 184.175 56.7378 183.868 56.9105C183.56 57.0831 183.339 57.2311 183.198 57.3544C183.198 57.7799 183.247 58.3966 183.351 59.1982C183.456 60.0184 183.505 60.6288 183.505 61.042C183.505 61.2578 183.431 61.4305 183.284 61.5723C183.136 61.7141 182.952 61.7881 182.731 61.7881C182.509 61.7881 182.325 61.7141 182.178 61.5723C182.03 61.4305 181.963 61.2517 181.963 61.042C181.963 60.6165 181.913 59.9875 181.827 59.1612C181.735 58.3349 181.692 57.7059 181.692 57.2804C181.692 57.04 181.674 56.8488 181.631 56.707C181.201 56.9598 180.764 57.3729 180.328 57.9588C180.31 57.9834 180.279 58.0266 180.23 58.0759C180.217 58.8344 180.205 59.4264 180.205 59.858C180.205 59.9629 180.199 60.1047 180.193 60.2835C180.187 60.4624 180.18 60.5918 180.18 60.6782C180.18 60.8817 180.101 61.042 179.935 61.153C179.787 61.264 179.603 61.3133 179.382 61.3133C179.062 61.3133 178.853 61.1777 178.736 60.9002C178.656 60.7152 178.62 60.413 178.62 60.006V57.9156C178.62 57.7306 178.613 57.4531 178.595 57.0955C178.583 56.7316 178.57 56.4603 178.57 56.2753C178.57 55.9423 178.632 55.6402 178.749 55.3688C178.896 55.0297 179.099 54.8632 179.363 54.8632C179.572 54.8632 179.756 54.9434 179.922 55.1098C180.088 55.2702 180.168 55.449 180.168 55.6463C180.18 55.5538 180.162 55.7142 180.131 56.115Z" fill="white"/>
<path d="M190.4 61.3443C189.509 61.3443 188.777 61.1285 188.212 60.703C187.585 60.2282 187.272 59.5683 187.272 58.7112C187.272 57.7616 187.518 56.9661 188.015 56.3063C188.568 55.5786 189.312 55.2148 190.246 55.2148C190.897 55.2148 191.432 55.3196 191.862 55.5293C192.428 55.8068 192.704 56.2384 192.704 56.8181C192.704 57.2312 192.477 57.5951 192.016 57.9096C191.807 58.0576 191.389 58.2672 190.756 58.5509L188.87 59.3895C189.048 59.5868 189.263 59.7287 189.521 59.8273C189.773 59.926 190.068 59.9753 190.394 59.9753C190.891 59.9753 191.315 59.8705 191.666 59.667C191.973 59.482 192.225 59.3895 192.409 59.3895C192.796 59.3895 192.993 59.5807 192.993 59.9568C192.993 60.3823 192.68 60.7338 192.059 60.999C191.543 61.2333 190.984 61.3443 190.4 61.3443ZM190.252 56.5776C189.908 56.5776 189.607 56.6948 189.361 56.9229C189.115 57.1572 188.919 57.5026 188.765 57.9651C189.189 57.7801 189.607 57.6012 190.025 57.4224C190.529 57.1943 190.928 56.9846 191.229 56.7873C190.977 56.6454 190.652 56.5776 190.252 56.5776Z" fill="white"/>
<path d="M198.395 61.4861C197.934 61.4861 197.682 61.2579 197.627 60.8078C197.571 60.4254 197.522 60.037 197.467 59.6485C197.412 59.2353 197.381 58.8468 197.381 58.4892C197.381 58.3905 197.387 58.224 197.399 57.9897C197.412 57.7554 197.418 57.5889 197.418 57.4902C197.418 57.4655 197.424 57.3977 197.43 57.2929C197.436 57.188 197.442 57.1017 197.442 57.0339C197.442 56.7256 197.369 56.5652 197.215 56.5652C196.895 56.5652 196.582 56.7687 196.275 57.1819C195.967 57.595 195.728 58.1192 195.556 58.7482C195.55 58.8777 195.531 59.0441 195.507 59.2538C195.482 59.4265 195.476 59.593 195.476 59.7595C195.476 59.8643 195.464 60.0308 195.439 60.2466C195.414 60.4624 195.402 60.6228 195.402 60.7338C195.402 60.9496 195.328 61.1346 195.181 61.2764C195.033 61.4182 194.849 61.4922 194.628 61.4922C194.4 61.4922 194.216 61.4182 194.075 61.2764C193.927 61.1346 193.854 60.9558 193.854 60.7338C193.854 60.6289 193.841 60.4686 193.823 60.2528C193.798 60.0369 193.792 59.8766 193.792 59.7718C193.792 59.408 193.817 58.8962 193.872 58.2487C193.921 57.595 193.952 57.0894 193.952 56.7256C193.952 56.6084 193.946 56.4419 193.933 56.2137C193.921 55.9856 193.915 55.8191 193.915 55.7081C193.915 55.4923 193.989 55.3196 194.142 55.1778C194.296 55.0359 194.48 54.9681 194.702 54.9681C195.193 54.9681 195.451 55.2641 195.482 55.8499L195.488 55.9116C196.035 55.3628 196.607 55.0853 197.209 55.0853C197.915 55.0853 198.401 55.3813 198.671 55.9732C198.85 56.3679 198.942 56.966 198.942 57.7554V58.1562C198.936 58.3288 198.936 58.4522 198.936 58.52C198.936 58.8098 198.979 59.186 199.058 59.6485C199.138 60.1109 199.181 60.4809 199.181 60.7708C199.181 60.9804 199.108 61.1531 198.96 61.2949C198.8 61.4121 198.616 61.4861 198.395 61.4861Z" fill="white"/>
<path d="M203.931 56.5652C203.851 56.5652 203.759 56.5652 203.655 56.559C203.55 56.5529 203.458 56.5529 203.378 56.5529C203.225 56.5529 203.046 56.5652 202.85 56.596C202.917 58.1068 202.948 59.0934 202.948 59.5621C202.948 59.6114 202.948 59.7039 202.954 59.8334C202.96 59.9691 202.96 60.0739 202.96 60.1541C202.96 61.0174 202.69 61.4429 202.149 61.4429C201.946 61.4429 201.768 61.3812 201.621 61.2517C201.455 61.116 201.375 60.9495 201.375 60.7461C201.375 60.6104 201.381 60.4069 201.393 60.1417C201.406 59.8704 201.412 59.6731 201.412 59.5374C201.412 59.0873 201.381 58.113 201.313 56.6269C201.08 56.6145 200.73 56.5837 200.263 56.5344C199.796 56.485 199.562 56.2445 199.562 55.8067C199.562 55.597 199.636 55.4182 199.777 55.2764C199.919 55.1284 200.103 55.0544 200.324 55.0544C200.465 55.0544 200.779 55.0791 201.277 55.1222C201.27 55.0051 201.264 54.8016 201.252 54.5241C201.234 54.2836 201.227 54.0986 201.227 53.9691C201.227 53.7594 201.301 53.5868 201.455 53.4449C201.608 53.3093 201.793 53.2353 202.008 53.2353C202.561 53.2353 202.837 53.7039 202.837 54.6351L202.825 55.0976C203.059 55.0667 203.243 55.0482 203.391 55.0482C203.821 55.0482 204.116 55.0791 204.269 55.1346C204.57 55.2394 204.718 55.4676 204.718 55.819C204.718 56.0349 204.644 56.2075 204.497 56.3494C204.343 56.4974 204.159 56.5652 203.931 56.5652Z" fill="white"/>
<path d="M216.898 94.902H140.877C139.777 94.902 138.879 94.0017 138.879 92.8979V87.4961C138.879 86.3923 139.777 85.492 140.877 85.492H216.904C218.004 85.492 218.901 86.3923 218.901 87.4961V92.8979C218.895 94.0017 218.004 94.902 216.898 94.902Z" fill="#F5F7FC"/>
<path d="M216.898 180.77H140.877C139.777 180.77 138.879 179.876 138.879 178.766V173.364C138.879 172.261 139.777 171.36 140.877 171.36H216.904C218.004 171.36 218.901 172.261 218.901 173.364V178.766C218.895 179.87 218.004 180.77 216.898 180.77Z" fill="#F5F7FC"/>
<path d="M216.898 157.874H140.877C139.777 157.874 138.879 156.974 138.879 155.87V106.711C138.879 105.607 139.777 104.707 140.877 104.707H216.904C218.004 104.707 218.901 105.607 218.901 106.711V155.87C218.895 156.98 218.004 157.874 216.898 157.874Z" fill="#F5F7FC"/>
<path d="M173.182 115.726L213.955 101.031L254.328 115.523C259.484 117.965 264 119.426 264 124.248V148.236C264 164.898 259.65 181.405 250.702 195.983C243.168 208.248 231.511 220.877 213.555 228.906C197.049 223.528 184.735 209.185 177.201 196.92C168.253 182.343 163.903 165.835 163.903 149.173V127.603C163.903 120.733 167.528 117.379 173.182 115.726Z" fill="#4152F3"/>
<path d="M213.555 214.988C227.756 208.636 236.986 198.431 242.941 188.731C250.02 177.2 253.461 164.139 253.461 150.955V134.127C253.461 130.316 251.169 126.746 246.622 124.612L213.942 112.353L213.948 101.038L254.321 115.529C258.562 117.385 263.994 119.432 263.994 124.254V148.242C263.994 164.904 259.643 181.411 250.696 195.989C243.162 208.254 231.505 220.883 213.549 228.912V214.988H213.555Z" fill="#322FE6"/>
<path d="M213.555 228.906C210.697 227.944 208.067 226.84 205.548 225.458C198.782 221.759 193.006 216.677 188.6 212.077C183.671 206.934 179.996 201.372 176.807 196.18C167.86 181.603 163.509 165.095 163.902 147.977L163.878 128.17C163.902 118.31 168.941 117.582 173.182 115.72L213.954 101.025L213.948 112.341L180.887 124.803C176.334 126.937 174.048 130.507 174.048 134.318V151.146C174.048 164.33 177.489 177.391 184.568 188.922C190.529 198.628 199.36 208.63 213.561 214.982V228.906H213.555Z" fill="#86A8FF"/>
<path d="M203.133 149.876L203.09 146.639C203.09 140.78 207.84 136.014 213.678 136.014C219.516 136.014 224.266 140.78 224.266 146.62L224.309 149.919C227.166 150.345 229.36 152.805 229.36 155.79V174.887C229.36 178.168 226.705 180.832 223.436 180.832H203.68C200.41 180.832 197.756 178.168 197.756 174.887V155.79C197.75 152.688 200.115 150.147 203.133 149.876ZM210.851 170.133H216.019L215.214 166.39C216.111 165.835 216.707 164.842 216.707 163.707C216.707 161.962 215.294 160.544 213.555 160.544C211.816 160.544 210.402 161.962 210.402 163.707C210.402 164.799 210.955 165.767 211.797 166.334C211.429 167.783 210.851 170.133 210.851 170.133ZM205.413 149.845H222.023L221.98 146.632C221.98 142.038 218.256 138.301 213.678 138.301C209.1 138.301 205.376 142.038 205.376 146.62L205.413 149.845Z" fill="#F5F7FC"/>
<path d="M246.855 149.642C246.947 149.654 247.23 148.39 247.464 146.318C247.709 144.246 247.888 141.36 247.795 138.172C247.752 136.581 247.648 135.064 247.5 133.689C247.371 132.32 247.119 131.031 246.591 130.069C246.075 129.101 245.35 128.528 244.803 128.269C244.25 128.01 243.906 128.022 243.899 128.059C243.832 128.152 245.276 128.435 246.136 130.291C246.56 131.192 246.751 132.388 246.843 133.745C246.947 135.107 247.033 136.612 247.076 138.184C247.169 141.342 247.07 144.197 246.954 146.269C246.855 148.347 246.751 149.623 246.855 149.642Z" fill="white"/>
<path d="M246.259 160.082C246.456 160.088 246.634 159.101 246.658 157.88C246.683 156.659 246.542 155.666 246.345 155.666C246.148 155.66 245.97 156.647 245.946 157.868C245.921 159.089 246.062 160.082 246.259 160.082Z" fill="white"/>
<path d="M184.799 223.566C199.301 219.051 207.41 203.594 202.911 189.042C198.412 174.489 183.008 166.351 168.506 170.866C154.004 175.381 145.894 190.838 150.394 205.391C154.893 219.943 170.296 228.081 184.799 223.566Z" fill="#FCA838"/>
<path d="M183.566 219.579C195.874 215.747 202.756 202.629 198.938 190.278C195.119 177.928 182.047 171.022 169.739 174.853C157.431 178.685 150.549 191.803 154.367 204.154C158.185 216.504 171.258 223.41 183.566 219.579Z" fill="#FDA218"/>
<path d="M188.581 217.368C184.292 217.738 179.843 216.918 175.75 214.753C164.345 208.729 159.969 194.571 165.973 183.126C168.056 179.154 171.123 176.028 174.711 173.894C167.049 174.548 159.877 178.988 156.024 186.32C150.02 197.765 154.396 211.923 165.801 217.948C173.243 221.882 181.834 221.376 188.581 217.368Z" fill="#FC8000"/>
<path d="M183.72 179.136C193.786 184.452 197.651 196.951 192.348 207.052C189.251 212.953 183.708 216.733 177.624 217.787C184.746 217.516 191.531 213.539 195.089 206.762C200.386 196.661 196.527 184.162 186.461 178.846C182.276 176.639 177.686 176.016 173.359 176.768C176.85 176.632 180.414 177.385 183.72 179.136Z" fill="#FCA838"/>
<path d="M185.828 201.027C186.043 203.13 185.33 204.967 183.684 206.528C182.338 207.816 180.457 208.84 178.048 209.605L178.479 213.779C178.602 214.969 178.024 215.629 176.746 215.765C176.193 215.82 175.738 215.654 175.382 215.265C175.105 214.945 174.939 214.575 174.896 214.149L174.521 210.462C174.091 210.53 173.673 210.585 173.261 210.628C171.031 210.856 169.267 210.739 167.964 210.264C166.791 209.845 166.158 209.222 166.072 208.384C165.906 206.793 166.705 205.905 168.456 205.726C168.911 205.677 169.697 205.763 170.822 205.979C171.94 206.195 172.665 206.287 172.985 206.25C173.286 206.219 173.649 206.151 174.073 206.053L173.317 198.69C171.363 198.77 169.667 198.53 168.235 197.968C166.354 197.241 165.334 196.069 165.168 194.454C164.978 192.616 165.605 190.84 167.043 189.132C168.321 187.603 169.962 186.406 171.971 185.537L171.688 182.78C171.553 181.479 172.1 180.764 173.317 180.641C174.484 180.517 175.13 181.109 175.265 182.417L175.492 184.618C176.752 184.569 178.122 184.704 179.603 185.037C181.496 185.451 182.479 186.042 182.559 186.826C182.627 187.461 182.455 188.022 182.043 188.515C181.631 189.009 181.115 189.286 180.482 189.354C179.947 189.409 179.198 189.379 178.221 189.268C177.188 189.163 176.432 189.12 175.953 189.144L176.481 194.269C176.635 194.25 176.758 194.244 176.85 194.25C179.321 194.188 181.324 194.676 182.866 195.718C184.599 196.883 185.589 198.653 185.828 201.027ZM172.45 190.23C170.699 191.105 169.882 192.061 169.986 193.085C170.078 193.966 171.043 194.429 172.887 194.472L172.45 190.23ZM177.563 204.85C179.904 203.753 181.01 202.575 180.881 201.317C180.685 199.424 179.364 198.474 176.906 198.474L177.563 204.85Z" fill="white"/>
<path d="M231.904 202.421V211.22C231.904 212.059 231.48 212.867 230.675 213.625C230.448 213.841 230.183 214.057 229.895 214.273C229.335 214.68 228.659 215.074 227.885 215.45C227.633 215.568 227.375 215.691 227.105 215.802C226.165 216.209 225.095 216.585 223.928 216.924C223.67 216.998 223.412 217.078 223.153 217.152C221.863 217.498 220.468 217.812 218.969 218.083C218.717 218.127 218.452 218.176 218.188 218.219C216.959 218.416 215.675 218.601 214.341 218.749C214.083 218.774 213.825 218.805 213.567 218.823C212.676 218.916 211.767 218.984 210.832 219.045C210.574 219.07 210.316 219.082 210.052 219.101C208.891 219.163 207.698 219.2 206.482 219.224C206.224 219.224 205.966 219.23 205.701 219.23H205.142C204.011 219.23 202.893 219.206 201.799 219.169C201.535 219.163 201.277 219.144 201.019 219.138C199.9 219.082 198.8 219.008 197.731 218.916C197.467 218.891 197.203 218.867 196.944 218.848C196.201 218.78 195.482 218.694 194.769 218.608C194.505 218.571 194.247 218.54 193.989 218.503C193.085 218.379 192.207 218.244 191.365 218.09C191.101 218.046 190.842 217.997 190.59 217.942C189.853 217.806 189.153 217.652 188.47 217.479C188.206 217.417 187.948 217.356 187.696 217.288C186.848 217.072 186.049 216.844 185.293 216.591C185.023 216.505 184.765 216.412 184.513 216.32C183.72 216.036 182.995 215.734 182.344 215.413C182.067 215.284 181.809 215.142 181.557 215.006C180.906 214.649 180.347 214.266 179.892 213.878C179.585 213.619 179.32 213.348 179.105 213.082C178.632 212.484 178.38 211.861 178.38 211.22C178.38 208.606 178.38 202.421 178.38 202.421H231.904V202.421Z" fill="#FDA218"/>
<path d="M205.15 209.518C219.927 209.518 231.906 206.34 231.906 202.421C231.906 198.501 219.927 195.323 205.15 195.323C190.373 195.323 178.394 198.501 178.394 202.421C178.394 206.34 190.373 209.518 205.15 209.518Z" fill="#FCA838"/>
<path d="M227.111 201.477C227.111 204.172 217.279 206.361 205.148 206.361C193.018 206.361 183.186 204.172 183.186 201.477C183.186 198.782 193.018 196.593 205.148 196.593C217.279 196.593 227.111 198.782 227.111 201.477Z" fill="#FDA218"/>
<path d="M183.849 202.68C186.258 200.564 194.874 198.998 205.142 198.998C215.411 198.998 224.032 200.564 226.435 202.68C226.871 202.297 227.105 201.896 227.105 201.477C227.105 198.782 217.273 196.593 205.142 196.593C193.012 196.593 183.179 198.782 183.179 201.477C183.179 201.89 183.413 202.297 183.849 202.68Z" fill="#FC8000"/>
<path d="M179.892 206.361V213.872C179.585 213.613 179.32 213.341 179.105 213.076V206.361H179.892Z" fill="#FC8000"/>
<path d="M182.35 208.568V215.413C182.073 215.284 181.815 215.142 181.563 215.006V208.568H182.35Z" fill="#FC8000"/>
<path d="M185.3 209.919V216.591C185.029 216.505 184.771 216.412 184.519 216.32V209.919H185.3Z" fill="#FC8000"/>
<path d="M188.477 210.825V217.479C188.212 217.417 187.954 217.356 187.702 217.288V210.825H188.477Z" fill="#FC8000"/>
<path d="M191.377 211.695V218.089C191.113 218.046 190.855 217.997 190.603 217.941V211.695H191.377Z" fill="#FC8000"/>
<path d="M194.775 212.268V218.607C194.511 218.57 194.253 218.54 193.995 218.503V212.268H194.775V212.268Z" fill="#FC8000"/>
<path d="M197.731 212.268V218.916C197.467 218.891 197.203 218.866 196.944 218.848V212.268H197.731V212.268Z" fill="#FC8000"/>
<path d="M201.799 212.268V219.169C201.535 219.162 201.277 219.144 201.019 219.138V212.268H201.799Z" fill="#FC8000"/>
<path d="M206.482 211.695V219.224C206.224 219.224 205.965 219.23 205.701 219.23V211.695H206.482Z" fill="#FC8000"/>
<path d="M210.832 210.825V219.045C210.574 219.07 210.316 219.082 210.052 219.101V210.825H210.832V210.825Z" fill="#FC8000"/>
<path d="M214.341 210.825V218.749C214.083 218.774 213.825 218.805 213.567 218.823V210.825H214.341Z" fill="#FC8000"/>
<path d="M218.975 209.919V218.077C218.723 218.12 218.459 218.17 218.194 218.213V209.913H218.975V209.919Z" fill="#FC8000"/>
<path d="M223.934 209.049V216.918C223.676 216.992 223.418 217.072 223.16 217.146V209.049H223.934Z" fill="#FC8000"/>
<path d="M227.891 206.934V215.438C227.639 215.555 227.381 215.678 227.111 215.789V206.928H227.891V206.934Z" fill="#FC8000"/>
<path d="M230.675 205.491V213.619C230.448 213.835 230.183 214.05 229.895 214.266V205.491H230.675Z" fill="#FC8000"/>
<path d="M230.675 209.734C230.448 209.95 230.183 210.166 229.895 210.381C229.335 210.788 228.659 211.183 227.885 211.559C227.633 211.676 227.375 211.8 227.105 211.911C226.165 212.318 225.095 212.694 223.928 213.033C223.67 213.107 223.412 213.187 223.153 213.261C221.863 213.607 220.468 213.921 218.969 214.192C218.717 214.242 218.452 214.285 218.188 214.328C216.959 214.525 215.675 214.71 214.341 214.858C214.083 214.883 213.825 214.914 213.567 214.938C212.676 215.031 211.767 215.099 210.832 215.16C210.574 215.185 210.316 215.197 210.052 215.216C208.891 215.278 207.698 215.315 206.482 215.339C206.224 215.339 205.966 215.345 205.701 215.345H205.142C204.011 215.345 202.893 215.321 201.799 215.284C201.535 215.278 201.277 215.259 201.019 215.253C199.9 215.197 198.8 215.123 197.731 215.031C197.467 215.006 197.203 214.988 196.944 214.963C196.201 214.895 195.482 214.809 194.769 214.723C194.505 214.686 194.247 214.655 193.989 214.612C193.085 214.488 192.207 214.353 191.365 214.198C191.101 214.155 190.842 214.106 190.59 214.05C189.853 213.915 189.153 213.761 188.47 213.588C188.206 213.526 187.948 213.465 187.696 213.397C186.848 213.181 186.049 212.953 185.293 212.7C185.023 212.614 184.765 212.521 184.513 212.429C183.72 212.145 182.995 211.843 182.344 211.522C182.067 211.393 181.809 211.257 181.557 211.115C180.906 210.751 180.347 210.375 179.892 209.987C179.585 209.728 179.32 209.456 179.105 209.185C178.632 208.587 178.38 207.964 178.38 207.323C178.38 208.778 178.38 210.24 178.38 211.208C178.38 211.843 178.632 212.466 179.105 213.07C179.32 213.341 179.585 213.607 179.892 213.866C180.353 214.26 180.906 214.636 181.557 214.994C181.809 215.13 182.067 215.271 182.344 215.401C182.995 215.722 183.72 216.024 184.513 216.307C184.765 216.4 185.023 216.492 185.293 216.579C186.049 216.832 186.848 217.06 187.696 217.276C187.948 217.343 188.206 217.405 188.47 217.467C189.153 217.633 189.859 217.787 190.59 217.929C190.842 217.985 191.107 218.028 191.365 218.077C192.207 218.231 193.085 218.367 193.989 218.49C194.247 218.527 194.505 218.558 194.769 218.595C195.476 218.682 196.201 218.762 196.944 218.836C197.203 218.86 197.467 218.885 197.731 218.904C198.8 218.996 199.9 219.07 201.019 219.126C201.277 219.132 201.535 219.15 201.799 219.156C202.899 219.193 204.011 219.218 205.142 219.218H205.701C205.966 219.218 206.224 219.212 206.482 219.212C207.692 219.187 208.884 219.15 210.052 219.089C210.316 219.076 210.574 219.058 210.832 219.033C211.767 218.971 212.676 218.904 213.567 218.811C213.825 218.786 214.083 218.756 214.341 218.737C215.681 218.589 216.965 218.404 218.188 218.207C218.452 218.157 218.717 218.114 218.969 218.071C220.468 217.8 221.863 217.485 223.153 217.14C223.418 217.06 223.676 216.986 223.928 216.912C225.101 216.573 226.165 216.196 227.105 215.789C227.375 215.672 227.633 215.555 227.885 215.438C228.653 215.062 229.329 214.667 229.895 214.26C230.183 214.044 230.448 213.829 230.675 213.613C231.474 212.854 231.904 212.046 231.904 211.208V207.323C231.904 208.168 231.48 208.975 230.675 209.734Z" fill="#E4D1D0"/>
<path d="M19.3326 97.2268C14.2014 97.455 10.9384 103.967 13.7098 111.293C16.4813 118.624 9.17474 121.486 8.8429 126.542C8.50492 131.599 11.1965 173.506 24.7956 175.152C38.3947 176.793 41.793 168.709 38.1428 158.349C34.4926 147.989 47.9627 141.163 40.2813 133.202C32.5999 125.241 26.8051 121.954 28.8206 111.595C30.8301 101.229 24.0766 97.0171 19.3326 97.2268Z" fill="#4152F3"/>
<path d="M19.1237 174.918C25.8403 171.958 28.8207 158.996 25.4225 151.671C22.0242 144.339 19.5047 150.03 17.2372 140.929C14.9696 131.833 9.67869 124.125 2.24926 131.703C-5.18018 139.282 8.167 148.889 8.29604 153.311C8.41895 157.732 7.6631 179.968 19.1237 174.918Z" fill="#9FC3FC"/>
<path d="M28.3168 189.175C28.2554 189.175 28.1939 189.163 28.1324 189.138C27.8744 189.033 27.7453 188.743 27.8498 188.484C30.4553 181.905 28.9313 171.619 27.3152 160.729C26.2582 153.619 25.1705 146.269 25.2504 139.757C25.2565 139.479 25.4778 139.258 25.7543 139.258H25.7604C26.037 139.264 26.2643 139.492 26.2582 139.769C26.1783 146.201 27.2598 153.508 28.3107 160.575C29.9453 171.601 31.4938 182.016 28.7838 188.848C28.7039 189.058 28.5134 189.175 28.3168 189.175Z" fill="#9FC3FC"/>
<path d="M21.0102 191.851C20.9672 191.851 20.918 191.845 20.875 191.833C20.6046 191.759 20.451 191.481 20.5247 191.21C21.342 188.281 19.2404 165.138 14.1215 152.33C14.017 152.071 14.1461 151.775 14.398 151.671C14.6561 151.566 14.9511 151.689 15.0556 151.948C20.113 164.602 22.485 187.929 21.4956 191.475C21.4342 191.703 21.2314 191.851 21.0102 191.851Z" fill="#4152F3"/>
<path d="M13.6544 183.761H35.5679L30.5105 233.302L18.761 233.456L13.6544 183.761Z" fill="#9FC3FC"/>
<path d="M78.5099 241.288C78.4055 236.348 78.3071 227.648 78.3071 227.648L89.5588 228.554C89.5588 228.554 87.0762 241.047 86.9779 242.262C86.8795 243.477 85.7857 244.766 85.7857 244.766L78.5099 241.288Z" fill="#FDB2D0"/>
<path d="M103.091 255.156C103.017 255.317 102.851 255.409 102.691 255.489C100.651 256.513 98.3527 256.877 96.0667 256.969C94.8377 257.018 93.6087 256.994 92.3858 256.944C91.5378 256.914 90.6897 256.877 89.8417 256.833C89.3747 256.809 88.9077 256.784 88.4406 256.759C87.9736 256.735 87.5004 256.71 87.0334 256.685C84.1022 256.537 81.171 256.383 78.2398 256.229C77.5454 256.192 76.7404 256.1 76.3409 255.514C76.2549 255.391 76.1934 255.255 76.1504 255.113C76.1443 255.113 76.1443 255.113 76.1504 255.107C76.0767 254.866 76.0521 254.614 76.0337 254.367C75.8186 251.388 76.2242 248.373 77.2074 245.58C77.5884 244.519 78.0493 243.471 78.3135 242.379C78.4057 242.015 78.4671 241.652 78.504 241.275C78.504 241.275 78.504 241.275 78.5101 241.275C78.59 241.294 80.4151 241.769 82.3385 242.108C84.0715 242.416 85.8781 242.607 86.5725 242.262C86.5971 242.256 86.6217 242.244 86.6401 242.225C87.1686 241.898 87.2731 243.095 87.4574 244.235C87.4759 244.34 87.4881 244.445 87.5127 244.544C87.5434 244.729 87.5803 244.908 87.6233 245.074C87.7217 245.481 87.8568 245.808 88.0535 245.968C88.4714 246.307 88.9322 246.566 89.4116 246.794C89.5406 246.856 89.6697 246.912 89.7987 246.967C90.1428 247.115 90.4931 247.251 90.8434 247.38C91.2735 247.547 91.7098 247.713 92.1461 247.88C92.2752 247.929 92.4042 247.978 92.5394 248.028C93.0986 248.244 93.6578 248.453 94.217 248.669L94.6103 248.823C95.3416 249.101 96.0667 249.378 96.7918 249.656C98.0639 250.143 99.3482 250.636 100.491 251.395C100.682 251.524 100.872 251.666 101.057 251.808C101.72 252.338 102.298 252.986 102.703 253.726C102.845 253.985 102.968 254.262 103.06 254.546C103.127 254.755 103.177 254.977 103.091 255.156Z" fill="#FDA218"/>
<path d="M87.408 244.649C86.646 245.888 85.841 247.097 84.9807 248.268C84.8209 248.484 85.1343 248.762 85.2941 248.546C86.1728 247.343 87.0024 246.11 87.7829 244.834C87.9242 244.605 87.5494 244.42 87.408 244.649Z" fill="#FC8000"/>
<path d="M89.7925 246.215C88.8277 247.689 88.0964 249.279 87.5925 250.969C87.5126 251.228 87.9244 251.314 88.0043 251.055C88.4959 249.397 89.221 247.843 90.1673 246.4C90.3148 246.178 89.94 245.993 89.7925 246.215Z" fill="#FC8000"/>
<path d="M92.3795 247.374C91.8449 248.57 91.4823 249.816 91.3041 251.117C91.2673 251.382 91.679 251.475 91.7158 251.203C91.8941 249.939 92.2382 248.731 92.7605 247.565C92.865 247.319 92.4901 247.127 92.3795 247.374Z" fill="#FC8000"/>
<path d="M94.346 248.33C93.9835 249.372 93.7991 250.433 93.7745 251.53C93.7684 251.802 94.1863 251.777 94.1924 251.512C94.217 250.445 94.4075 249.421 94.7516 248.416C94.8438 248.163 94.4321 248.077 94.346 248.33Z" fill="#FC8000"/>
<path d="M102.802 254.527C102.722 254.688 102.556 254.774 102.396 254.854C100.362 255.878 98.0638 256.26 95.7901 256.377C94.5672 256.439 93.3443 256.426 92.1214 256.396C91.1259 256.371 90.1304 256.334 89.1349 256.297C88.8215 256.285 88.5143 256.266 88.2009 256.26C87.74 256.241 87.2729 256.223 86.7998 256.198C83.887 256.081 80.9681 255.964 78.0553 255.841C77.3609 255.816 76.5682 255.73 76.1687 255.156C76.1626 255.144 76.1564 255.132 76.1442 255.119C76.138 255.119 76.138 255.119 76.1442 255.113C75.9475 254.799 75.9045 254.416 75.8799 254.04C75.6956 251.123 76.1319 248.17 77.1397 245.425C77.5268 244.371 78.0061 243.335 78.2765 242.25C78.2888 242.293 78.3011 242.336 78.3134 242.379C78.4977 243.088 78.4301 243.853 78.2273 244.556C77.9815 245.413 77.5821 246.215 77.3117 247.06C76.8078 248.614 76.7464 250.322 77.1397 251.925C77.281 252.492 77.4838 253.066 77.8955 253.473C78.4977 254.077 79.4011 254.2 80.2429 254.244C82.3691 254.367 84.5138 254.225 86.6461 254.182C88.4221 254.145 90.1919 254.182 91.9371 254.496C93.4672 254.774 94.9912 255.261 96.5275 255.168C97.7688 255.094 98.9671 254.632 99.938 253.855C100.399 253.491 100.817 253.035 100.995 252.468C101.056 252.258 101.081 252.036 101.056 251.82C101.72 252.35 102.298 252.998 102.703 253.738C102.728 253.806 102.752 253.874 102.777 253.941C102.845 254.139 102.888 254.348 102.802 254.527Z" fill="white"/>
<path d="M120.395 238.982C119.356 234.153 117.611 225.625 117.611 225.625L128.832 224.373C128.832 224.373 128.758 237.113 128.894 238.322C129.029 239.53 128.199 241.01 128.199 241.01L120.395 238.982Z" fill="#FDB2D0"/>
<path d="M147.151 247.911C147.108 248.083 146.967 248.207 146.825 248.311C145.019 249.705 142.825 250.5 140.6 251.031C139.402 251.314 138.191 251.524 136.981 251.709C136.145 251.839 135.303 251.968 134.461 252.085C134 252.147 133.533 252.215 133.072 252.283C132.605 252.35 132.145 252.412 131.678 252.48C128.771 252.893 125.864 253.3 122.958 253.713C122.263 253.812 121.464 253.874 120.954 253.374C120.844 253.269 120.764 253.146 120.696 253.016C120.69 253.016 120.69 253.016 120.696 253.01C120.579 252.788 120.512 252.542 120.444 252.307C119.67 249.421 119.498 246.387 119.934 243.458C120.106 242.342 120.358 241.226 120.414 240.104C120.432 239.728 120.426 239.358 120.389 238.988C120.389 238.988 120.389 238.988 120.395 238.988C120.475 238.994 122.355 239.111 124.316 239.074C126.073 239.043 127.886 238.889 128.507 238.414C128.531 238.402 128.55 238.383 128.568 238.365C129.029 237.946 129.355 239.099 129.754 240.184C129.791 240.283 129.828 240.381 129.865 240.474C129.932 240.646 130 240.819 130.074 240.973C130.252 241.349 130.442 241.652 130.664 241.769C131.137 242.022 131.641 242.188 132.157 242.318C132.292 242.355 132.433 242.385 132.569 242.416C132.937 242.496 133.306 242.558 133.675 242.626C134.129 242.706 134.59 242.786 135.051 242.866C135.193 242.891 135.328 242.916 135.463 242.94C136.053 243.045 136.643 243.144 137.233 243.249L137.651 243.323C138.419 243.458 139.187 243.588 139.949 243.724C141.289 243.958 142.647 244.198 143.906 244.729C144.121 244.821 144.33 244.92 144.539 245.031C145.289 245.425 145.983 245.95 146.518 246.597C146.708 246.825 146.874 247.072 147.022 247.331C147.114 247.51 147.206 247.713 147.151 247.911Z" fill="#FDA218"/>
<path d="M129.766 240.579C129.256 241.942 128.691 243.28 128.064 244.599C127.947 244.84 128.31 245.056 128.427 244.815C129.066 243.465 129.643 242.096 130.166 240.696C130.264 240.443 129.865 240.332 129.766 240.579Z" fill="#FC8000"/>
<path d="M132.403 241.664C131.733 243.298 131.315 245 131.143 246.751C131.118 247.023 131.536 247.029 131.561 246.757C131.733 245.037 132.151 243.372 132.802 241.775C132.913 241.528 132.507 241.417 132.403 241.664Z" fill="#FC8000"/>
<path d="M135.162 242.311C134.86 243.588 134.744 244.883 134.811 246.19C134.824 246.461 135.241 246.468 135.229 246.196C135.162 244.92 135.272 243.668 135.561 242.422C135.629 242.163 135.223 242.046 135.162 242.311Z" fill="#FC8000"/>
<path d="M137.276 242.873C137.116 243.964 137.141 245.043 137.325 246.128C137.368 246.394 137.78 246.295 137.731 246.03C137.552 244.982 137.546 243.939 137.694 242.885C137.731 242.614 137.313 242.607 137.276 242.873Z" fill="#FC8000"/>
<path d="M146.751 247.349C146.702 247.522 146.555 247.639 146.42 247.75C144.613 249.144 142.431 249.958 140.225 250.5C139.039 250.796 137.835 251.012 136.63 251.216C135.647 251.382 134.664 251.536 133.681 251.684C133.367 251.734 133.066 251.777 132.753 251.826C132.292 251.894 131.831 251.962 131.37 252.036C128.488 252.474 125.6 252.918 122.718 253.356C122.036 253.46 121.243 253.534 120.739 253.047C120.727 253.035 120.721 253.023 120.708 253.016C120.702 253.016 120.702 253.016 120.708 253.01C120.456 252.739 120.34 252.369 120.248 252.005C119.516 249.175 119.381 246.196 119.848 243.31C120.032 242.2 120.303 241.09 120.364 239.98C120.383 240.017 120.407 240.054 120.42 240.104C120.739 240.764 120.813 241.528 120.745 242.262C120.665 243.15 120.426 244.013 120.315 244.895C120.118 246.517 120.377 248.207 121.065 249.705C121.311 250.235 121.618 250.759 122.103 251.08C122.804 251.561 123.72 251.506 124.549 251.388C126.663 251.099 128.74 250.55 130.823 250.106C132.556 249.736 134.301 249.428 136.077 249.403C137.632 249.384 139.217 249.576 140.711 249.187C141.915 248.879 143.003 248.194 143.814 247.251C144.195 246.801 144.521 246.276 144.588 245.684C144.613 245.469 144.588 245.247 144.527 245.037C145.277 245.432 145.971 245.956 146.506 246.603C146.542 246.665 146.579 246.727 146.616 246.788C146.721 246.955 146.801 247.152 146.751 247.349Z" fill="white"/>
<path d="M132.618 234.135H112.148C112.148 234.135 107.22 146.762 103.09 150.338C102.328 150.998 101.511 154.303 100.731 159.249C98.2297 174.69 95.7839 206.12 94.5795 222.93C94.5795 222.949 94.5795 222.949 94.5795 222.949C94.1002 229.744 93.8175 234.135 93.8175 234.135L83.5736 234.098L73.2744 234.061C73.2744 234.061 84.8149 131.605 86.7629 124.723C87.3283 122.75 90.364 122.022 94.3644 121.985C104.27 121.899 120.229 126.061 120.229 126.061C120.549 126.789 120.868 127.646 121.169 128.639C127.284 148.322 129.852 217.627 132.618 234.135Z" fill="#4152F3"/>
<path d="M120.616 213.977C121.059 218.423 121.133 226.482 121.077 234.129H112.148C112.148 234.129 107.22 146.756 103.091 150.332C103.091 150.332 104.793 142.149 107.896 141.65C110.993 141.157 119.627 203.857 120.616 213.977Z" fill="#322FE6"/>
<path d="M121.169 128.633C118.121 129.897 104.172 129.984 99.2437 131.495C94.3337 133.005 93.1477 138.734 93.074 141.651C93.0002 144.549 82.0681 230.799 82.0681 231.872C82.0865 231.977 82.6519 232.816 83.5736 234.098L73.2744 234.061C73.2744 234.061 84.8149 131.606 86.7629 124.724C87.3283 122.75 90.364 122.023 94.3644 121.986C108.191 123.762 121.169 128.633 121.169 128.633Z" fill="#322FE6"/>
<path d="M100.731 159.249C98.2298 174.69 95.7841 206.12 94.5796 222.93C93.8729 218.54 93.2523 212.83 93.7807 208.753C94.598 202.433 97.1667 173.746 100.731 159.249Z" fill="#86A8FF"/>
<path d="M132.618 234.135H128.329C126.719 231.273 126.731 226.044 127.05 221.506C127.493 215.117 125.864 182.817 123.947 171.983C122.03 161.167 120.543 132.265 121.163 128.632C127.284 148.322 129.853 217.627 132.618 234.135Z" fill="#86A8FF"/>
<path d="M86.3572 143.155C86.2159 143.155 86.0745 143.087 85.9885 142.957C85.8533 142.754 85.9086 142.476 86.1114 142.341C86.9471 141.78 90.1303 137.765 92.2319 133.257C92.3364 133.035 92.6006 132.943 92.8219 133.042C93.0431 133.146 93.1414 133.412 93.0369 133.634C90.9107 138.197 87.6169 142.402 86.603 143.081C86.5293 143.136 86.4432 143.155 86.3572 143.155Z" fill="#05009F"/>
<path d="M121.98 141.65C122.122 141.65 122.263 141.582 122.349 141.453C122.484 141.249 122.429 140.972 122.226 140.836C121.39 140.275 118.207 136.261 116.106 131.753C116.001 131.531 115.737 131.438 115.516 131.537C115.295 131.642 115.196 131.907 115.301 132.129C117.427 136.692 120.721 140.898 121.735 141.576C121.808 141.625 121.894 141.65 121.98 141.65Z" fill="#05009F"/>
<path d="M103.084 150.339C103.047 148.236 101.671 128.818 102.064 128.078C102.457 127.338 108.215 128.078 108.215 128.078C108.215 128.078 107.957 146.941 107.404 148.125C106.851 149.309 103.084 150.339 103.084 150.339Z" fill="#05009F"/>
<path d="M121.685 128.743C121.046 129.884 108.725 127.979 101.603 128.478C100.165 128.583 98.6966 128.78 97.2402 129.046C97.2402 129.046 97.2402 129.046 97.2218 129.064C91.4638 130.075 85.8963 131.925 83.5551 131.414C80.63 130.772 84.0712 129.638 85.079 125.543C85.5768 123.607 84.7411 114.036 83.8746 104.213C83.7517 102.863 83.6288 101.512 83.5182 100.156C83.1433 95.907 82.8115 91.8125 82.5964 88.4703C82.3506 84.3942 82.3137 81.459 82.6702 80.7868C82.916 80.3243 83.2171 79.9359 83.6104 79.5967C83.9852 79.2576 84.4277 78.9739 84.9561 78.7457C87.0148 77.7468 90.2717 77.2534 95.1324 76.0757C96.8162 75.6872 98.8195 75.348 100.89 75.1322C103.975 74.793 107.257 74.7067 109.985 74.9534C110.464 74.9904 110.925 75.0397 111.368 75.1322C111.614 75.1692 111.884 75.2062 112.204 75.2555C113.832 75.5577 115.092 76.0387 115.749 76.7478C116.136 77.1733 116.315 77.6728 116.229 78.2401C116.106 79.0787 116.265 81.422 116.585 84.6964C116.782 86.5463 117.009 88.6984 117.273 91.0293C117.519 93.0581 117.771 95.2287 118.054 97.4671C118.091 97.7878 118.14 98.1269 118.177 98.4661C119.24 107.007 120.481 116.306 121.157 122.318C121.335 123.866 121.477 125.179 121.581 126.234C121.667 127.085 121.704 127.745 121.722 128.17C121.735 128.491 121.716 128.669 121.685 128.743Z" fill="#FDA218"/>
<path d="M126.804 88.8403C123.203 90.0674 119.977 90.7766 117.267 91.0294C116.167 91.1527 115.159 91.1897 114.238 91.1342C113.494 91.1157 112.818 91.0479 112.198 90.9369C107.662 90.1538 110.637 77.8825 111.257 75.5146C111.331 75.2679 111.362 75.1261 111.362 75.1261C111.608 75.1631 111.878 75.2001 112.198 75.2494C114.84 75.5701 119.928 75.8352 125.526 75.5331C125.649 75.9955 125.772 76.495 125.864 77.0253C126.184 78.6286 126.399 80.5094 126.54 82.3778C126.718 84.7889 126.786 87.1692 126.804 88.8403Z" fill="#FDA218"/>
<path d="M165.002 59.5127C163.46 60.4191 161.721 61.3996 161.334 62.0224C160.854 62.7686 161.758 63.231 162.63 63.675C163.515 64.1375 164.388 64.5815 163.675 65.3646C163.288 65.8086 162.507 66.1478 161.567 66.4314C160.43 66.7706 159.036 67.0542 157.684 67.3749C156.227 67.6956 154.832 68.0655 153.91 68.602C151.373 70.0635 148.417 78.0676 137.497 84.0614C133.705 86.1456 130.104 87.7057 126.811 88.8465C126.792 87.1754 126.725 84.789 126.546 82.3903C126.405 80.5218 126.19 78.6349 125.87 77.0378C125.784 76.5013 125.655 76.008 125.532 75.5455C129.004 75.3481 132.673 74.9227 136.114 74.158C139.463 73.4304 142.603 72.3636 145.086 70.8343C148.828 68.5589 151.803 66.0491 154.408 63.8107C158.556 60.2711 161.745 57.3914 165.488 57.1756C169.12 56.9474 167.295 58.1622 165.002 59.5127Z" fill="#FDB2D0"/>
<path d="M95.8023 231.07H71.4493V234.523H95.8023V231.07Z" fill="#322FE6"/>
<path d="M134.019 231.07H109.666V234.523H134.019V231.07Z" fill="#4152F3"/>
<path d="M134.019 231.07V234.523H129.054C128.292 233.191 127.493 231.693 127.296 231.07H134.019Z" fill="#86A8FF"/>
<path d="M121.667 234.523H109.666V231.07H121.169C121.114 232.125 121.452 233.654 121.667 234.523Z" fill="#322FE6"/>
<path d="M85.0975 231.07L89.7924 234.523H95.8023V231.07H85.0975Z" fill="#4152F3"/>
<path d="M121.151 122.318C115.94 121.165 106.298 119.469 106.298 119.469C106.298 119.469 105.714 118.846 105.856 113.475C105.997 108.709 115.448 104.528 118.177 98.4601C119.234 107.007 120.475 116.306 121.151 122.318Z" fill="#FCA838"/>
<path d="M121.716 128.17C121.274 128.577 120.598 128.879 119.959 128.99C118.22 129.274 108.437 125.648 102.39 126.764C100.509 127.103 98.758 127.991 97.234 129.039C97.234 129.039 97.234 129.039 97.2155 129.058C91.4576 130.069 85.8901 131.919 83.5488 131.407C80.6238 130.766 84.065 129.631 85.0728 125.537C85.5706 123.601 84.7348 114.03 83.8684 104.207C85.0912 96.2894 86.4555 89.6727 87.6107 88.8403C90.3392 86.83 92.4162 87.6501 92.4162 87.6501L88.7783 89.3459C89.0118 94.5196 89.3314 100.47 88.342 103.689C87.3342 106.908 87.7767 115.751 90.7202 118.754C93.6637 121.745 117.648 124.692 120.696 125.796C121.071 125.938 121.354 126.08 121.581 126.221C121.667 127.085 121.698 127.745 121.716 128.17Z" fill="#FC8000"/>
<path d="M123.652 126.499C123.209 126.857 122.834 127.103 122.515 127.264C120.69 128.152 119.786 126.215 109.733 124.914C107.994 124.68 106.224 124.612 104.448 124.649C94.186 124.791 84.151 128.596 81.017 128.633C77.3299 128.651 74.282 121.979 74.03 105.404C73.9747 102.826 74.1038 100.495 74.3496 98.3429C75.6093 98.5032 76.7953 98.7006 77.9322 98.8917C81.6868 99.57 84.7717 100.439 87.0638 101.241C85.6627 105.367 84.9929 110.331 86.3202 116.306C86.6213 117.693 92.2564 118.883 98.7825 119.327H98.8009C101.191 119.488 103.711 119.562 106.12 119.469H106.298C108.32 119.395 110.249 119.235 111.988 118.97C121.526 117.514 126.577 124.15 123.652 126.499Z" fill="#FDB2D0"/>
<path d="M92.1337 90.943C90.6651 93.6131 88.4835 96.9738 87.064 101.241C86.3205 100.976 85.4847 100.705 84.563 100.439C84.225 100.353 83.8747 100.242 83.5183 100.156C81.8898 99.7118 80.0094 99.2678 77.9324 98.8916C76.7955 98.6943 75.6095 98.5031 74.3498 98.3428C75.4989 87.8845 79.6653 82.3347 83.6043 79.5967C84.0652 79.2761 84.5077 78.9924 84.9501 78.7458C88.7232 77.0007 90.4623 78.3203 91.6298 80.6697C92.355 82.1435 92.8527 84.0304 93.5102 85.8125C93.9957 87.1198 93.2829 88.8094 92.1337 90.943Z" fill="#FDA218"/>
<path d="M97.2219 78.9C95.237 79.2392 93.375 79.825 91.636 80.6637C88.0534 82.3163 85.0054 84.9863 82.5965 88.4704C80.5748 91.3871 78.9955 94.8897 77.9324 98.8917C76.7955 98.6944 75.6095 98.5033 74.3498 98.3429C75.4989 87.8846 79.6653 82.3348 83.6043 79.5969C83.9792 79.2577 84.4216 78.974 84.9501 78.7459C87.0087 77.7469 90.2656 77.2536 95.1264 76.0758C96.8102 75.6873 98.8135 75.3482 100.884 75.1323C102.501 76.5013 101.597 78.1539 97.2219 78.9Z" fill="#FC8000"/>
<path d="M118.613 50.67C118.558 50.7748 118.509 50.8858 118.435 50.9721C118.416 50.9906 118.398 50.9906 118.398 50.9906C117.919 51.7923 117.23 52.4644 116.376 52.896C111.522 55.3133 93.6516 60.635 93.6516 60.635C93.8113 61.1715 93.6147 61.8066 93.1907 62.1827C92.7482 62.5404 92.0907 62.6082 91.5929 62.3616C90.6343 61.8621 90.5114 60.5486 90.6896 59.4818C90.8863 58.415 91.2365 57.2742 90.7941 56.2999C90.4561 55.5353 89.731 55.0728 89.1472 54.4685C88.1517 53.4387 87.6232 51.9402 87.8506 50.522C88.0964 49.0975 89.1595 47.821 90.5421 47.4264C91.9616 47.0379 93.6946 47.4819 94.7454 46.4459C95.5074 45.6998 95.5627 44.4911 96.1465 43.597C97.0498 42.2096 98.9978 41.9937 100.632 42.2281C102.242 42.4439 103.877 42.9557 105.456 42.5857C105.475 42.5857 105.512 42.5672 105.53 42.5672C106.876 42.2466 107.957 41.3031 109.217 40.7358C111.927 39.4901 115.405 40.1685 117.458 42.3391C119.522 44.4973 119.996 48.0184 118.613 50.67Z" fill="#05009F"/>
<path d="M112.007 48.3206V66.0923C112.007 69.0646 109.506 71.7285 106.353 72.0183V78.4931C106.353 80.269 105.628 81.8723 104.473 83.0316C104.295 83.2104 104.117 83.3708 103.926 83.5311C102.826 84.4006 101.444 84.9186 99.938 84.9186C96.3923 84.9186 93.5225 82.0388 93.5225 78.4993V53.6607L95.2247 52.0081L96.4291 50.8488L98.1682 48.1109L109.776 48.2897L112.007 48.3206Z" fill="#FDB2D0"/>
<path d="M112.609 51.9341C111.817 53.4017 104.436 52.7728 100.909 51.5148C97.3817 50.2568 98.9856 53.5744 96.3739 54.0122C95.7655 54.1171 95.2186 53.8087 94.8622 53.2784L96.1404 52.0451L97.9839 49.1469L110.25 49.3319C112.118 50.5837 112.609 51.9341 112.609 51.9341Z" fill="#FE93BC"/>
<path d="M114.637 51.7737C114.637 51.7737 111.141 53.5558 106.495 51.3483C103.447 49.8991 99.9196 49.227 99.1515 49.8498C98.3895 50.4726 98.285 53.599 95.3169 54.5672C95.3169 54.5672 95.6364 60.5178 93.2706 60.3513C90.9047 60.1848 92.2013 50.9413 92.2013 50.9413L97.9286 47.9937L104.221 46.6741L110.188 47.4017L114.815 48.5795L114.637 51.7737Z" fill="#05009F"/>
<path d="M103.92 83.5187C102.826 84.3943 101.437 84.9185 99.9319 84.9185C96.3862 84.9185 93.5164 82.0388 93.5164 78.4807V59.7038L94.3829 60.6411C94.3706 60.9248 93.3996 67.7202 98.6353 71.8456C103.312 75.5331 104.59 80.9411 103.92 83.5187Z" fill="#FE93BC"/>
<path d="M95.7839 56.7562L94.5241 61.0789C94.5241 61.0789 92.6806 60.7027 91.5806 59.5866C91.0337 59.0378 90.6773 58.2855 90.8002 57.3297C91.046 55.4797 92.4471 55.1221 93.7806 55.5167C94.5426 55.7202 95.2861 56.2012 95.7839 56.7562Z" fill="#FDB2D0"/>
<path d="M104.455 124.649C94.1922 124.791 84.1572 128.596 81.0232 128.633C77.3362 128.651 74.2882 121.979 74.0362 105.404C73.9809 102.826 74.11 100.495 74.3558 98.3429C75.6155 98.5032 76.8015 98.7006 77.9384 98.8917C76.0949 106.365 78.9646 123.262 82.4059 124.254C85.8471 125.253 94.7944 124.489 102.064 124.254C103.852 124.205 104.559 124.347 104.455 124.649Z" fill="#FE93BC"/>
<path d="M98.7828 119.334C94.1371 119.636 85.3988 119.155 85.9149 118.483C86.4311 117.804 81.9636 110.478 87.0641 101.247C85.663 105.373 84.9932 110.337 86.3205 116.312C86.6216 117.693 92.2567 118.883 98.7828 119.334Z" fill="#FE93BC"/>
<path d="M123.652 126.499C123.21 126.857 122.835 127.103 122.515 127.264C122.921 124.828 121.52 124.631 118.847 122.534C116.345 120.598 111.86 119.704 106.298 119.475C108.32 119.401 110.25 119.241 111.989 118.976C121.526 117.514 126.577 124.15 123.652 126.499Z" fill="#FCCDE0"/>
<path d="M165.002 59.5126C165.359 58.7295 165.144 58.1807 163.497 58.6062C159.847 59.5496 158.642 64.3718 154.402 63.7983C158.55 60.2588 161.739 57.379 165.482 57.1632C169.12 56.9474 167.295 58.1622 165.002 59.5126Z" fill="#FCCDE0"/>
<path d="M163.675 65.3646C163.288 65.8086 162.508 66.1478 161.567 66.4314C162.083 65.6483 162.612 64.6 162.63 63.675C163.515 64.1375 164.382 64.5815 163.675 65.3646Z" fill="#FCCDE0"/>
<path d="M157.684 67.3748C156.227 67.6954 154.832 68.0654 153.911 68.6019C151.373 70.0633 148.417 78.0674 137.497 84.0612C133.705 86.1455 130.104 87.7056 126.811 88.8464C126.792 87.1753 126.725 84.7889 126.546 82.3901C137.411 79.9544 149.818 72.5546 151.735 69.422C153.167 67.0726 155.219 67.0726 157.684 67.3748Z" fill="#FE93BC"/>
<path d="M117.267 91.0294C117.513 93.0582 117.765 95.2288 118.048 97.4672C116.788 95.0129 116.456 92.645 116.198 91.0541C116.007 89.8825 115.958 88.5382 115.94 87.4837C115.903 86.0407 116.991 84.7211 118.945 83.901C121.71 82.7602 123.351 82.8958 126.546 82.384C126.724 84.7828 126.792 87.1692 126.811 88.8403C123.21 90.0674 119.983 90.7828 117.267 91.0294Z" fill="#FC8000"/>
<path d="M125.864 77.0315C122.478 77.4385 118.969 77.3522 115.743 76.7479C114.164 76.4827 112.64 76.0572 111.257 75.5207C110.815 75.3419 110.391 75.1631 109.979 74.9534C110.458 74.9904 110.919 75.0398 111.362 75.1323C111.607 75.1693 111.878 75.2063 112.197 75.2556C114.84 75.5762 119.928 75.8414 125.526 75.5392C125.655 76.0017 125.778 76.5012 125.864 77.0315Z" fill="#FCA838"/>
<path d="M136.114 74.1518C133.171 75.6256 129.588 76.6246 125.87 77.0316C125.784 76.4951 125.655 76.0018 125.532 75.5393C129.004 75.342 132.673 74.9165 136.114 74.1518Z" fill="#FCCDE0"/>
<path d="M112.007 55.7203V66.0923C112.007 69.0645 109.506 71.7284 106.354 72.0183V73.9422C103.816 73.3934 102.882 72.2649 104.406 72.0368C107.687 71.5003 110.114 69.6195 110.821 65.9011C111.454 62.6391 110.938 59.4202 112.007 55.7203Z" fill="#FCCDE0"/>
<path d="M106.341 72.0244V74.7315L100.688 71.0932C100.688 71.0932 103.256 72.0244 106.341 72.0244Z" fill="#FE93BC"/>
<path d="M91.5867 59.5804C91.0398 59.0315 90.6834 58.2792 90.8063 57.3234C91.0521 55.4735 92.4532 55.1158 93.7867 55.5105C91.7281 56.1826 91.0705 58.0326 91.5867 59.5804Z" fill="#FCCDE0"/>
<path d="M118.613 50.6699C118.558 50.7747 118.509 50.8857 118.435 50.972C118.416 50.9905 118.398 50.9905 118.398 50.9905C116.714 52.5568 114.41 53.3029 114.938 52.2176C115.663 50.7932 117.206 43.8744 113.838 42.08C110.698 40.4089 107.669 42.7583 105.456 42.5795C105.475 42.5795 105.512 42.561 105.53 42.561C106.876 42.2403 107.957 41.2968 109.217 40.7295C111.927 39.4839 115.405 40.1622 117.458 42.3328C119.523 44.4972 119.996 48.0183 118.613 50.6699Z" fill="#4152F3"/>
</g>
<defs>
<clipPath id="clip0_1_4">
<rect width="264" height="257" fill="white"/>
</clipPath>
</defs>
</svg>
