<svg width="260" height="242" viewBox="0 0 260 242" fill="none" xmlns="http://www.w3.org/2000/svg">
<path d="M124.282 75.555C124.015 90.2915 123.358 109.361 122.409 121.54C121.869 128.43 121.236 133.123 120.548 133.557C117.75 135.339 96.9084 137.121 96.3997 133.557C95.8911 129.994 98.1366 100.993 91.425 100.993C84.701 100.993 55.9753 106.083 55.721 90.3101C55.4667 74.537 58.4379 48.7637 58.4379 48.7637C58.9155 46.1503 59.3621 43.3011 59.9638 40.6629C60.3484 38.9559 60.795 37.3233 61.347 35.9204C62.3519 33.3133 63.7165 31.4635 65.7201 31.1593C70.4715 30.4455 90.631 28.577 89.7874 36.5536C89.2478 41.6189 84.5894 53.413 82.2447 61.9359C81.581 64.3257 81.1033 66.4549 80.9421 68.1123C80.7684 69.8442 80.9607 71.0546 81.6554 71.4891C85.3896 73.8604 92.5043 74.0342 95.5562 71.4891C97.4667 69.8938 96.7781 63.5622 97.3488 58.6459C97.5597 56.8644 97.9257 55.2691 98.639 54.1455C99.0856 53.4255 99.6873 52.904 100.469 52.6619C105.89 50.9611 123.351 48.416 124.195 54.698C124.456 56.6657 124.48 65.0024 124.282 75.555Z" fill="#4152F3"/>
<path d="M122.415 121.539C121.876 128.429 121.243 133.122 120.555 133.556C117.757 135.338 96.9152 137.119 96.4066 133.556C95.898 129.993 98.1434 100.992 91.4319 100.992C84.7079 100.992 55.9822 106.082 55.7278 90.3088C55.4735 74.5357 58.4447 48.7623 58.4447 48.7623C58.9224 46.149 59.369 43.2998 59.9706 40.6616C66.6822 46.9684 77.0659 60.9538 74.4917 71.8913C71.7872 83.4185 61.3229 92.8352 65.851 97.1556C70.3854 101.482 93.6525 95.9638 97.8829 99.8745C102.126 103.773 96.8656 127.684 103.819 129.72C108.887 131.21 117.404 122.575 122.415 121.539Z" fill="#322FE6"/>
<path d="M89.7938 36.5461C89.2542 41.6114 84.5958 53.4055 82.2511 61.9284C80.2909 57.968 82.8031 44.0881 82.8031 40.6616C82.8031 37.1482 67.2524 34.3859 61.3596 35.9191C62.3645 33.312 63.7291 31.4622 65.7327 31.158C70.4717 30.4441 90.6374 28.5695 89.7938 36.5461Z" fill="#86A8FF"/>
<path d="M124.282 75.5535C122.849 71.4504 120.256 64.7339 119.785 60.9102C119.177 55.9752 104.736 56.7263 98.6328 54.144C99.0794 53.424 99.6811 52.9025 100.463 52.6604C105.884 50.9596 123.345 48.4145 124.189 54.6965C124.456 56.6643 124.48 65.0009 124.282 75.5535Z" fill="#86A8FC"/>
<path d="M91.6918 77.7946C80.3528 78.5705 79.2549 73.5301 80.9421 68.1048C80.7684 69.8366 80.9607 71.0471 81.6554 71.4816C85.3896 73.8529 92.5043 74.0267 95.5562 71.4816C97.4667 69.8863 96.7781 63.5547 97.3488 58.6384C99.067 65.6094 103.124 77 91.6918 77.7946Z" fill="#322FE6"/>
<path d="M80.1299 128.981C77.8906 142.7 42.0067 142.129 19.5459 139.491C16.4569 139.124 13.6159 138.715 11.1596 138.311C1.07982 136.623 2.36382 130.403 7.48123 123.606C12.6855 116.684 21.872 109.167 27.0887 105.238C37.4289 97.4351 48.6128 78.434 45.3935 67.242C45.2322 66.6647 45.0399 66.0936 44.8352 65.5411C41.1941 55.5596 32.3488 51.3881 26.7537 56.4721C17.7223 63.4616 12.6421 74.5357 3.61681 65.3735C2.56231 64.3059 1.73733 63.0333 1.14805 61.6367C-3.2064 51.4068 4.78916 34.0011 25.7674 32.3002C26.4622 32.2319 27.1693 32.1885 27.8951 32.1699C53.4511 31.4063 68.4498 49.3459 68.4498 70.0788C68.4498 79.1975 61.8312 88.8936 55.7214 96.926C55.7214 96.9385 55.7214 96.9385 55.7214 96.9385C54.6048 98.4158 53.5069 99.8311 52.4648 101.172C46.2619 109.192 42.2362 114.748 49.6363 114.909C62.2841 115.182 76.4081 113.984 79.6833 122.147C80.3966 123.928 80.5889 126.169 80.1299 128.981Z" fill="#4152F3"/>
<path d="M55.7085 96.9262C56.4405 91.7988 62.3767 80.5447 62.1223 71.5377C61.775 59.4766 61.775 57.9806 46.187 48.3094C32.156 39.6065 21.5614 37.5022 25.7608 32.3004C26.4555 32.2321 27.1627 32.1886 27.8884 32.17C53.4444 31.4065 68.4431 49.346 68.4431 70.0789C68.4369 79.1977 61.8184 88.8937 55.7085 96.9262Z" fill="#86A8FF"/>
<path d="M79.6772 122.141C77.1651 121.166 73.6666 120.676 69.9138 120.39C63.1403 119.881 44.8354 121.582 40.1832 120.39C35.5372 119.211 41.4424 110.216 52.4588 101.166C46.2559 109.186 42.2302 114.742 49.6303 114.903C62.278 115.182 76.4021 113.978 79.6772 122.141Z" fill="#322FE6"/>
<path d="M19.5458 139.491C16.4567 139.124 13.6158 138.715 11.1595 138.311C1.0797 136.623 2.36371 130.403 7.48112 123.606C8.61625 131.024 11.9844 136.182 19.5458 139.491Z" fill="#322FE6"/>
<path d="M44.8292 65.5414C41.1881 55.5598 32.3428 51.3884 26.7477 56.4723C17.7163 63.4619 12.6361 74.536 3.61082 65.3738C2.55633 64.3061 1.73134 63.0336 1.14206 61.6369C6.37112 62.8101 13.4549 50.5442 27.0393 50.6745C38.5519 50.8049 43.7809 58.8249 44.8292 65.5414Z" fill="#322FE6"/>
<path d="M196.155 5.47109C195.802 7.9727 187.217 33.4543 177.007 62.2755C176.703 63.1384 176.386 64.0136 176.07 64.8889C162.058 104.343 145.372 148.87 142.574 149.037C137.674 149.31 124.269 149.546 123.047 145.871C122.557 144.394 129.852 121.253 138.822 93.9398C147.921 66.1924 158.764 34.1371 164.917 16.1417C167.764 7.78648 169.613 2.46669 169.818 2.00733C170.866 -0.432197 173.173 -0.0162971 176.498 0.101645C180.884 0.256831 197.011 -0.525308 196.155 5.47109Z" fill="#FDA218"/>
<path d="M196.155 5.4713C195.801 7.9729 187.216 33.4545 177.006 62.2757C178.34 50.3884 179.785 28.7368 182.446 20.3319C185.362 11.1015 175.877 14.0128 164.917 16.1481C167.764 7.79288 169.612 2.47309 169.817 2.01374C170.865 -0.425788 173.173 -0.00988838 176.498 0.108053C180.883 0.257032 197.011 -0.525107 196.155 5.4713Z" fill="#FCA838"/>
<path d="M176.076 64.8891C162.064 104.344 145.378 148.87 142.58 149.037C137.68 149.31 124.276 149.546 123.054 145.872C122.564 144.394 129.858 121.253 138.828 93.94C141.607 93.3317 144.919 90.2466 147.493 84.6412C153.014 72.5615 164.247 66.3851 176.076 64.8891Z" fill="#FC8000"/>
<path d="M222.747 121.507C221.711 123.413 220.743 125.151 219.881 126.678C217.431 130.992 215.719 133.649 215.173 133.854C211.96 135.077 191.559 135.698 188.854 133.854C186.15 132.01 225.755 62.1702 224.223 58.185C222.685 54.1937 195.547 58.3402 193.401 54.8082C192.681 53.6164 192.619 50.8416 192.967 47.6448C193.637 41.369 195.876 33.498 197.693 33.1938C199.288 32.9269 202.097 32.6972 205.664 32.542C222.604 31.7661 256.683 32.5855 259.344 38.4143C261.838 43.852 236.12 96.9444 222.747 121.507Z" fill="#4152F3"/>
<path d="M222.747 121.507C215.862 119.657 227.834 106.591 230.749 98.4278C234.564 87.7448 250.834 53.3989 245.493 45.0002C240.45 37.0733 211.632 39.7984 205.664 32.5357C222.605 31.7597 256.683 32.5791 259.345 38.4079C261.838 43.8519 236.121 96.9442 222.747 121.507Z" fill="#9FC3FC"/>
<path d="M202.78 126.411C201.49 130.44 215.967 124.729 219.881 126.678C217.431 130.992 215.719 133.649 215.173 133.854C211.96 135.077 191.559 135.697 188.854 133.854C186.15 132.01 225.755 62.1701 224.223 58.1849C222.685 54.1936 195.547 58.3401 193.401 54.8081C192.681 53.6163 192.619 50.8415 192.967 47.6447C198.977 57.7318 214.851 49.3331 224.701 53.1507C234.564 56.9683 236.089 58.7498 231.257 68.1603C226.432 77.5708 204.281 121.7 202.78 126.411Z" fill="#322FE6"/>
<path d="M75.3658 178.504V181.421C75.3658 182.408 74.9068 183.284 74.1935 183.855C73.6662 184.283 72.9839 184.544 72.252 184.544H25.5998C24.8058 184.544 24.0863 184.24 23.5342 183.762C22.8953 183.184 22.4859 182.359 22.4859 181.421V178.504C22.4859 177.467 22.9822 176.549 23.7699 175.978C24.2786 175.599 24.9175 175.388 25.5998 175.388H72.252C72.9219 175.388 73.5422 175.593 74.0508 175.959C74.8448 176.53 75.3658 177.455 75.3658 178.504Z" fill="#FDA218"/>
<path d="M27.8271 176.703H26.9525V184.55H27.8271V176.703Z" fill="#FC8000"/>
<path d="M31.4928 176.703H30.6182V184.55H31.4928V176.703Z" fill="#FC8000"/>
<path d="M35.165 176.703H34.2904V184.55H35.165V176.703Z" fill="#FC8000"/>
<path d="M38.8371 176.703H37.9625V184.55H38.8371V176.703Z" fill="#FC8000"/>
<path d="M42.5093 176.703H41.6346V184.55H42.5093V176.703Z" fill="#FC8000"/>
<path d="M46.1814 176.703H45.3068V184.55H46.1814V176.703Z" fill="#FC8000"/>
<path d="M49.8471 176.703H48.9725V184.55H49.8471V176.703Z" fill="#FC8000"/>
<path d="M57.1914 176.703H56.3168V184.55H57.1914V176.703Z" fill="#FC8000"/>
<path d="M53.5193 176.703H52.6447V184.55H53.5193V176.703Z" fill="#FC8000"/>
<path d="M60.8631 176.703H59.9761V184.55H60.8631V176.703Z" fill="#FC8000"/>
<path d="M64.5353 176.703H63.6483V184.55H64.5353V176.703Z" fill="#FC8000"/>
<path d="M68.2074 176.703H67.3204V184.55H68.2074V176.703Z" fill="#FC8000"/>
<path d="M71.8795 176.703H70.9925V184.55H71.8795V176.703Z" fill="#FC8000"/>
<path d="M70.1859 187.666V190.584C70.1859 191.571 69.7269 192.446 69.0136 193.017C68.4863 193.445 67.804 193.706 67.072 193.706H20.4199C19.6259 193.706 18.9064 193.402 18.3543 192.924C17.7154 192.347 17.306 191.521 17.306 190.584V187.666C17.306 186.63 17.8022 185.711 18.59 185.14C19.0986 184.761 19.7375 184.55 20.4199 184.55H67.072C67.742 184.55 68.3623 184.755 68.8709 185.121C69.6649 185.692 70.1859 186.617 70.1859 187.666Z" fill="#F4900B"/>
<path d="M22.647 185.86H21.7723V193.706H22.647V185.86Z" fill="#E56E03"/>
<path d="M26.318 185.86H25.4434V193.706H26.318V185.86Z" fill="#E56E03"/>
<path d="M29.9902 185.86H29.1156V193.706H29.9902V185.86Z" fill="#E56E03"/>
<path d="M33.657 185.86H32.7823V193.706H33.657V185.86Z" fill="#E56E03"/>
<path d="M37.3291 185.86H36.4545V193.706H37.3291V185.86Z" fill="#E56E03"/>
<path d="M41.0013 185.86H40.1266V193.706H41.0013V185.86Z" fill="#E56E03"/>
<path d="M44.6734 185.86H43.7988V193.706H44.6734V185.86Z" fill="#E56E03"/>
<path d="M52.0112 185.86H51.1366V193.706H52.0112V185.86Z" fill="#E56E03"/>
<path d="M48.3455 185.86H47.4709V193.706H48.3455V185.86Z" fill="#E56E03"/>
<path d="M55.6894 185.86H54.8024V193.706H55.6894V185.86Z" fill="#E56E03"/>
<path d="M59.3551 185.86H58.4681V193.706H59.3551V185.86Z" fill="#E56E03"/>
<path d="M63.0272 185.86H62.1402V193.706H63.0272V185.86Z" fill="#E56E03"/>
<path d="M66.6994 185.86H65.8124V193.706H66.6994V185.86Z" fill="#E56E03"/>
<path d="M72.177 196.822V199.74C72.177 200.727 71.718 201.602 71.0047 202.173C70.4774 202.602 69.7951 202.862 69.0632 202.862H22.411C21.617 202.862 20.8975 202.558 20.3454 202.08C19.7065 201.503 19.2971 200.677 19.2971 199.74V196.822C19.2971 195.786 19.7934 194.867 20.5811 194.296C21.0898 193.917 21.7287 193.706 22.411 193.706H69.0632C69.7331 193.706 70.3534 193.911 70.862 194.277C71.6622 194.848 72.177 195.773 72.177 196.822Z" fill="#FDA218"/>
<path d="M24.6433 195.022H23.7687V202.868H24.6433V195.022Z" fill="#FC8000"/>
<path d="M28.3091 195.022H27.4344V202.868H28.3091V195.022Z" fill="#FC8000"/>
<path d="M31.9812 195.022H31.1066V202.868H31.9812V195.022Z" fill="#FC8000"/>
<path d="M35.6544 195.022H34.7798V202.868H35.6544V195.022Z" fill="#FC8000"/>
<path d="M39.3255 195.022H38.4509V202.868H39.3255V195.022Z" fill="#FC8000"/>
<path d="M42.9976 195.022H42.123V202.868H42.9976V195.022Z" fill="#FC8000"/>
<path d="M46.6644 195.022H45.7898V202.868H46.6644V195.022Z" fill="#FC8000"/>
<path d="M54.0087 195.022H53.1341V202.868H54.0087V195.022Z" fill="#FC8000"/>
<path d="M50.3366 195.022H49.4619V202.868H50.3366V195.022Z" fill="#FC8000"/>
<path d="M57.6804 195.022H56.7934V202.868H57.6804V195.022Z" fill="#FC8000"/>
<path d="M61.3526 195.022H60.4655V202.868H61.3526V195.022Z" fill="#FC8000"/>
<path d="M65.0247 195.022H64.1377V202.868H65.0247V195.022Z" fill="#FC8000"/>
<path d="M68.6968 195.022H67.8098V202.868H68.6968V195.022Z" fill="#FC8000"/>
<path d="M226.357 170.683C230.935 165.847 242.497 161.142 238.558 148.423C234.62 135.704 219.875 141.936 218.473 154.022C217.078 166.101 226.357 170.683 226.357 170.683Z" fill="#4152F3"/>
<path d="M232.516 172.687C236.796 174.363 242.807 180.546 249.916 174.723C257.024 168.901 249.215 161.079 241.126 163.32C233.031 165.555 232.516 172.687 232.516 172.687Z" fill="#4152F3"/>
<path d="M225.209 189.889C224.93 189.889 224.7 189.659 224.7 189.38C224.7 185.407 226.462 157.995 226.996 155.319C227.051 155.04 227.33 154.866 227.591 154.922C227.87 154.978 228.044 155.245 227.988 155.518C227.517 157.864 225.712 184.761 225.712 189.38C225.718 189.659 225.494 189.889 225.209 189.889Z" fill="white"/>
<path d="M225.768 178.448C225.731 178.448 225.687 178.442 225.644 178.436C225.371 178.368 225.204 178.094 225.272 177.821C226.686 172.067 241.058 170.13 241.666 170.05C241.939 170.012 242.2 170.211 242.237 170.49C242.274 170.77 242.076 171.024 241.796 171.061C241.654 171.08 227.511 172.986 226.258 178.063C226.208 178.293 225.998 178.448 225.768 178.448Z" fill="white"/>
<path d="M208.722 186.71L212.5 201.732C212.649 202.322 213.182 202.738 213.79 202.738H237.969C238.546 202.738 239.054 202.366 239.234 201.819L244.091 186.797C244.37 185.941 243.731 185.059 242.826 185.059H210.006C209.15 185.053 208.511 185.866 208.722 186.71Z" fill="#4152F3"/>
<path d="M141.966 94.9952C141.011 94.6165 140.124 88.2539 143.616 84.8211C147.115 81.3884 147.871 81.0035 151.624 76.1059C155.377 71.2082 165.86 70.9537 169.036 72.0958C172.212 73.238 173.483 76.1059 174.562 76.4224C175.642 76.739 180.666 73.8153 186.702 78.6509C192.737 83.4865 186.174 90.0354 189.139 98.2603C192.104 106.485 196.087 111.401 194.306 116.746C192.526 122.091 194.983 125.058 199.393 128.956C203.797 132.854 203.288 138.367 201.26 144.984C199.225 151.601 205.751 155.586 196.006 158.299C186.261 161.011 143.808 157.07 136.687 148.038C129.566 139.006 141.011 135.188 139.231 128.577C137.45 121.96 138.213 120.564 140.248 117.001C142.282 113.438 147.878 101.358 141.966 94.9952Z" fill="#05009F"/>
<path d="M162.621 128.447C162.621 128.447 145.662 154.332 128.71 159.851C127.934 160.105 127.165 160.316 126.39 160.484C125.335 160.707 124.275 160.838 123.22 160.881C123.065 160.893 122.922 160.893 122.774 160.893C121.756 160.937 120.739 160.955 119.74 160.962C119.455 160.974 119.17 160.98 118.884 160.98L119.598 155.605V155.561L119.833 153.767C119.846 153.755 119.846 153.736 119.846 153.724L120.05 152.197L120.478 148.994C120.478 148.981 120.478 148.981 120.478 148.975L120.925 145.573L121.738 139.409C128.61 136.753 142.555 131.309 154.787 129.254C157.504 128.795 160.159 128.497 162.621 128.447Z" fill="#4152F3"/>
<path d="M196.006 158.293C196.006 158.293 192.477 172.986 183.489 184.997C176.603 194.184 166.536 201.807 152.393 200.106C119.741 196.189 123.221 160.875 123.221 160.875L125.814 158.746L162.622 128.441C167.727 128.168 172.336 129.316 176.349 131.321C183.681 134.996 189.028 141.551 191.776 147.696C193.06 150.589 193.953 152.693 194.579 154.227C196.006 157.765 196.006 158.293 196.006 158.293Z" fill="#4152F3"/>
<path d="M183.488 184.997C176.603 194.184 166.536 201.807 152.393 200.106C119.741 196.189 123.221 160.875 123.221 160.875C122.048 160.918 120.882 160.943 119.741 160.956C119.58 158.982 119.487 157.163 119.598 155.605V155.561C119.642 154.922 119.722 154.32 119.834 153.767C119.846 153.755 119.846 153.736 119.846 153.724C120.113 152.513 120.578 151.557 121.341 150.937C123.444 149.199 124.027 153.215 125.814 158.739C125.987 159.298 126.18 159.882 126.391 160.471C128.425 166.213 131.924 172.998 139.516 176.691C155.563 184.494 157.616 191.273 162.281 186.27C166.939 181.273 168.291 178.132 166.257 170.496C164.222 162.861 165.667 161.34 165.667 161.34C165.667 161.34 167.876 163.215 170.648 167.535C170.655 167.548 179.215 174.159 183.488 184.997Z" fill="#322FE6"/>
<path d="M200.863 194.848C194.17 201.745 181.429 203.328 181.429 203.328L171.194 201.776H171.182L155.836 199.454C155.836 199.454 172.106 192.638 175.158 187.548C178.21 182.458 173.124 176.865 169.402 167.542C171.815 165.853 174.842 164.407 177.993 163.196C186.578 159.882 196.006 158.293 196.006 158.293C196.006 158.293 201.942 165.506 204.647 182.806C205.459 187.989 203.71 191.9 200.863 194.848Z" fill="#FDB2D0"/>
<path d="M200.861 194.848C200.781 193.954 200.818 193.085 201.004 192.427C201.866 189.336 194.646 173.091 191.092 162.092C191.092 162.092 189.312 160.881 196.005 158.299C196.005 158.299 201.941 165.512 204.645 182.812C205.458 187.989 203.709 191.9 200.861 194.848Z" fill="#FCCDE0"/>
<path d="M182.619 191.459C176.683 195.022 176.8 193.656 179.455 194.848C182.11 196.04 181.614 201.236 171.187 201.776H171.174L155.828 199.454C155.828 199.454 172.099 192.638 175.15 187.548C178.202 182.458 173.116 176.865 169.394 167.542C171.807 165.853 174.834 164.407 177.985 163.196C180.144 164.115 181.248 165.332 181.248 165.332C183.803 174.159 188.549 187.896 182.619 191.459Z" fill="#FE93BC"/>
<path d="M170.244 164.997C167.93 166.158 166.516 167.796 168.042 169.913C169.568 172.036 170.92 171.272 173.55 170.335C176.174 169.404 196.855 162.303 199.144 160.974C201.432 159.646 199.739 157.511 197.785 156.033C195.837 154.568 173.637 163.302 170.244 164.997Z" fill="#86A8FF"/>
<path d="M147.325 99.961C143.529 97.5401 140.763 100.309 141.513 103.592C142.264 106.876 147.704 108.633 147.704 108.633L147.325 99.961Z" fill="#FE93BC"/>
<path d="M126.775 150.949C126.695 152.569 127.16 154.804 127.836 157.094C128.103 158.019 128.394 158.944 128.711 159.851C130.013 163.618 131.49 166.865 131.49 166.865C131.49 166.865 131.192 177.194 126.769 168.646C125.46 166.114 124.22 163.823 123.159 161.707C123.029 161.433 122.892 161.154 122.775 160.893C121.199 157.634 120.132 154.81 120.051 152.215C120.002 151.104 120.132 150.049 120.479 149.012C120.479 149 120.479 149 120.479 148.994C120.827 147.945 120.939 146.784 120.926 145.592L121.739 139.428C128.612 136.771 142.556 131.327 154.788 129.273C154.806 131.073 154.372 132.786 154.372 132.786C139.74 139.776 127.03 145.964 126.775 150.949Z" fill="#322FE6"/>
<path d="M176.416 114.903C176.206 115.84 175.982 116.784 175.747 117.721C173.185 128.193 169.984 138.094 168.545 140.657C167.683 142.197 166.051 143.097 164.122 143.55C163.911 143.612 163.694 143.649 163.471 143.693C158.924 144.5 153.1 143.01 151.555 141.303C150.811 140.477 150.65 138.342 150.78 135.785V135.772C150.811 135.244 150.848 134.704 150.904 134.146C151.35 129.118 152.653 123.289 152.957 122.594C153.422 121.532 153.565 123.314 149.031 120.831C148.677 120.638 148.286 120.421 147.871 120.167C142.778 117.113 143.628 103.028 144.782 95.5106C144.924 94.5919 145.067 93.7725 145.21 93.0773C145.21 93.0773 145.005 91.7364 147.883 88.0306C148.317 87.4781 148.82 86.8698 149.397 86.2118C151.692 83.5736 158.813 82.506 165.512 83.344C171.783 84.1199 177.713 86.547 179.003 90.9233C180.25 95.1133 178.718 104.996 176.416 114.903Z" fill="#FDB2D0"/>
<path d="M176.417 114.902C172.738 114.151 169.296 107.931 169.482 104.846C169.674 101.674 176.15 103.959 175.778 99.8926C175.393 95.8205 169.736 93.6541 166.684 93.1451C163.632 92.6361 164.079 86.2176 164.079 86.2176C163.192 90.0849 149.67 95.6281 144.782 95.5164C144.924 94.5977 145.067 93.7783 145.21 93.083C145.21 93.083 145.005 91.7422 147.883 88.0364C151.413 86.4162 157.963 84.8023 163.57 83.6477C164.234 83.5174 164.879 83.4118 165.512 83.3436C171.783 84.1195 177.713 86.5466 179.003 90.9229C180.25 95.1129 178.718 104.995 176.417 114.902Z" fill="#FE93BC"/>
<path d="M164.079 86.2117C161.982 89.7127 152.827 92.6426 148.193 93.7227C143.554 94.8028 142.344 95.1876 141.966 94.9952C141.587 94.8028 143.299 87.3911 149.403 83.0521C155.507 78.713 167.453 74.9637 175.654 80.7491C183.854 86.5344 180.802 98.4776 179.152 98.4279C177.502 98.3783 178.389 90.4141 175.021 90.0975C171.647 89.7809 165.673 92.2515 164.079 86.2117Z" fill="#05009F"/>
<path d="M177.806 112.171C182.403 112.171 186.13 108.442 186.13 103.841C186.13 99.2402 182.403 95.5106 177.806 95.5106C173.208 95.5106 169.482 99.2402 169.482 103.841C169.482 108.442 173.208 112.171 177.806 112.171Z" fill="#FCA838"/>
<path d="M149.782 115.859C149.782 117.075 151.066 118.056 152.642 118.056C154.217 118.056 155.501 117.069 155.501 115.859C155.501 114.642 154.217 113.661 152.642 113.661C151.066 113.661 149.782 114.642 149.782 115.859Z" fill="#FCA838"/>
<path d="M152.896 116.367C152.654 116.367 152.437 116.187 152.393 115.939C152.35 115.66 152.536 115.399 152.815 115.355C152.958 115.331 167.218 112.953 173.322 106.845C173.52 106.646 173.843 106.646 174.041 106.845C174.24 107.044 174.24 107.366 174.041 107.565C167.708 113.903 153.578 116.262 152.982 116.361C152.951 116.367 152.92 116.367 152.896 116.367Z" fill="#FCA838"/>
<path d="M130.081 106.702C129.275 111.824 126.316 119.304 123.45 125.958C119.983 134.04 116.658 140.918 117.489 140.918C117.824 140.918 119.362 140.341 121.732 139.422L120.051 152.11L118.879 160.987C102.273 161.229 88.9743 159.143 89.9109 149.18C90.9282 138.373 116.472 114.071 117.365 109.247C117.843 106.64 115.572 103.611 114.388 99.7004C113.383 96.3298 113.166 92.3136 116.23 87.3662C116.552 86.8448 116.881 86.3978 117.204 86.013C123.692 78.4833 131.781 95.9263 130.081 106.702Z" fill="#FDB2D0"/>
<path d="M130.08 106.703C129.274 111.824 126.315 119.304 123.449 125.958C123.306 125.803 123.182 125.623 123.102 125.4C121.985 122.346 124.87 110.005 124.392 102.91C123.983 96.7646 122.544 91.1344 117.203 86.0195C123.691 78.4836 131.78 95.9266 130.08 106.703Z" fill="#FCCDE0"/>
<path d="M94.1533 146.002C93.1856 152.129 117.631 152.129 120.05 152.11L118.878 160.987C102.273 161.229 88.9738 159.143 89.9105 149.18C90.9278 138.373 116.471 114.071 117.365 109.248C117.842 106.64 115.572 103.611 114.387 99.7004C117.954 103.692 122.197 105.84 121.334 108.614C120.249 112.084 95.1706 139.559 94.1533 146.002Z" fill="#FE93BC"/>
<path d="M116.54 162.47C116.596 164.804 117.383 166.592 119.697 166.164C122.011 165.735 121.912 164.332 122.16 161.831C122.408 159.329 124.585 139.72 124.38 137.342C124.182 134.965 121.788 135.524 119.834 136.548C117.886 137.566 116.459 159.05 116.54 162.47Z" fill="#86A8FF"/>
<path d="M194.579 154.233C189.971 149.95 179.481 141.868 176.349 131.327C183.681 135.002 189.028 141.557 191.776 147.703C193.053 150.589 193.953 152.7 194.579 154.233Z" fill="#86A8FF"/>
<path d="M161.45 119.645C160.817 120.11 153.913 125.312 152.641 127.969C152.003 129.31 151.37 131.855 150.905 134.145C151.351 129.117 152.654 123.288 152.958 122.593C153.423 121.532 153.566 123.313 149.031 120.83C153.857 123.015 160.767 119.943 161.45 119.645Z" fill="#FE93FC"/>
<path d="M163.471 143.693C158.924 144.5 153.1 143.01 151.555 141.303C150.811 140.477 150.65 138.342 150.78 135.784C153.336 139.838 159.507 142.408 163.471 143.693Z" fill="#FE93FC"/>
<path d="M175.747 117.721C173.185 128.193 169.985 138.094 168.545 140.658C167.683 142.197 166.052 143.097 164.123 143.55C159.954 142.265 156.456 137.808 160.922 134.146C165.773 130.179 171.2 123.258 175.747 117.721Z" fill="#FCCDE0"/>
<path d="M36.4543 207.4L52.644 242H59.9758L43.7986 206.382L36.4543 207.4Z" fill="#B7CDF9"/>
<path d="M86.1094 207.4L69.9136 242H62.5817L78.7652 206.382L86.1094 207.4Z" fill="#B7CDF9"/>
<path d="M147.667 207.4L163.856 242H171.188L155.005 206.382L147.667 207.4Z" fill="#B7CDF9"/>
<path d="M197.315 207.4L181.126 242H173.794L189.971 206.382L197.315 207.4Z" fill="#B7CDF9"/>
<path d="M243.365 202.732H2.70438V208.499H243.365V202.732Z" fill="#C0D2FF"/>
<path d="M77.903 162.092H143.828L153.659 196.189H92.8149L77.903 162.092Z" fill="#05009F"/>
<path d="M92.8148 196.189C92.8148 196.189 93.6646 202.44 94.043 202.633C94.4214 202.825 182.701 202.695 183.526 202.695C184.351 202.695 186.833 197.605 186.07 197.288C185.307 196.972 153.659 196.189 153.659 196.189H92.8148V196.189Z" fill="#040078"/>
<path d="M77.903 162.092L153.659 196.189H92.8149L77.903 162.092Z" fill="#040078"/>
<path d="M117.386 186.501C119.949 186.085 121.69 183.668 121.274 181.103C120.858 178.537 118.443 176.796 115.88 177.212C113.317 177.628 111.576 180.045 111.992 182.61C112.408 185.175 114.823 186.917 117.386 186.501Z" fill="#F5F7FC"/>
</svg>
